<?xml version="1.0" encoding="UTF-8" standalone="no"?>
<!-- Created with Inkscape (http://www.inkscape.org/) -->

<svg
   xmlns:dc="http://purl.org/dc/elements/1.1/"
   xmlns:cc="http://creativecommons.org/ns#"
   xmlns:rdf="http://www.w3.org/1999/02/22-rdf-syntax-ns#"
   xmlns:svg="http://www.w3.org/2000/svg"
   xmlns="http://www.w3.org/2000/svg"
   xmlns:xlink="http://www.w3.org/1999/xlink"
   xmlns:sodipodi="http://sodipodi.sourceforge.net/DTD/sodipodi-0.dtd"
   xmlns:inkscape="http://www.inkscape.org/namespaces/inkscape"
   width="139.38824"
   height="219.095"
   viewBox="0 0 139.38824 219.095"
   id="svg2"
   version="1.1"
   inkscape:version="0.91 r13725"
   sodipodi:docname="cols2.svg">
  <defs
     id="defs4">
    <marker
       inkscape:stockid="Arrow2Mend"
       orient="auto"
       refY="0"
       refX="0"
       id="marker6862"
       style="overflow:visible"
       inkscape:isstock="true">
      <path
         id="path6864"
         style="fill:#000000;fill-opacity:1;fill-rule:evenodd;stroke:#000000;stroke-width:0.625;stroke-linejoin:round;stroke-opacity:1"
         d="M 8.7185878,4.0337352 -2.2072895,0.01601326 8.7185884,-4.0017078 c -1.7454984,2.3720609 -1.7354408,5.6174519 -6e-7,8.035443 z"
         transform="scale(-0.6,-0.6)"
         inkscape:connector-curvature="0" />
    </marker>
    <marker
       inkscape:stockid="Arrow2Mend"
       orient="auto"
       refY="0"
       refX="0"
       id="Arrow2Mend"
       style="overflow:visible"
       inkscape:isstock="true">
      <path
         id="path5490"
         style="fill:#000000;fill-opacity:1;fill-rule:evenodd;stroke:#000000;stroke-width:0.625;stroke-linejoin:round;stroke-opacity:1"
         d="M 8.7185878,4.0337352 -2.2072895,0.01601326 8.7185884,-4.0017078 c -1.7454984,2.3720609 -1.7354408,5.6174519 -6e-7,8.035443 z"
         transform="scale(-0.6,-0.6)"
         inkscape:connector-curvature="0" />
    </marker>
    <marker
       inkscape:stockid="Arrow1Send"
       orient="auto"
       refY="0"
       refX="0"
       id="Arrow1Send"
       style="overflow:visible"
       inkscape:isstock="true">
      <path
         id="path5478"
         d="M 0,0 5,-5 -12.5,0 5,5 0,0 Z"
         style="fill-rule:evenodd;stroke:#000000;stroke-width:1pt"
         transform="matrix(-0.2,0,0,-0.2,-1.2,0)"
         inkscape:connector-curvature="0" />
    </marker>
    <marker
       inkscape:isstock="true"
       style="overflow:visible"
       id="marker5911"
       refX="0"
       refY="0"
       orient="auto"
       inkscape:stockid="DotM">
      <path
         transform="matrix(0.4,0,0,0.4,2.96,0.4)"
         style="fill:#000000;fill-opacity:1;fill-rule:evenodd;stroke:#000000;stroke-width:1pt;stroke-opacity:1"
         d="m -2.5,-1 c 0,2.76 -2.24,5 -5,5 -2.76,0 -5,-2.24 -5,-5 0,-2.76 2.24,-5 5,-5 2.76,0 5,2.24 5,5 z"
         id="path5913"
         inkscape:connector-curvature="0" />
    </marker>
    <marker
       inkscape:stockid="DotM"
       orient="auto"
       refY="0"
       refX="0"
       id="marker5853"
       style="overflow:visible"
       inkscape:isstock="true"
       inkscape:collect="always">
      <path
         id="path5855"
         d="m -2.5,-1 c 0,2.76 -2.24,5 -5,5 -2.76,0 -5,-2.24 -5,-5 0,-2.76 2.24,-5 5,-5 2.76,0 5,2.24 5,5 z"
         style="fill:#000000;fill-opacity:1;fill-rule:evenodd;stroke:#000000;stroke-width:1pt;stroke-opacity:1"
         transform="matrix(0.4,0,0,0.4,2.96,0.4)"
         inkscape:connector-curvature="0" />
    </marker>
    <marker
       inkscape:isstock="true"
       style="overflow:visible"
       id="marker5807"
       refX="0"
       refY="0"
       orient="auto"
       inkscape:stockid="DotM">
      <path
         transform="matrix(0.4,0,0,0.4,2.96,0.4)"
         style="fill:#000000;fill-opacity:1;fill-rule:evenodd;stroke:#000000;stroke-width:1pt;stroke-opacity:1"
         d="m -2.5,-1 c 0,2.76 -2.24,5 -5,5 -2.76,0 -5,-2.24 -5,-5 0,-2.76 2.24,-5 5,-5 2.76,0 5,2.24 5,5 z"
         id="path5809"
         inkscape:connector-curvature="0" />
    </marker>
    <marker
       inkscape:stockid="DotM"
       orient="auto"
       refY="0"
       refX="0"
       id="marker5767"
       style="overflow:visible"
       inkscape:isstock="true"
       inkscape:collect="always">
      <path
         id="path5769"
         d="m -2.5,-1 c 0,2.76 -2.24,5 -5,5 -2.76,0 -5,-2.24 -5,-5 0,-2.76 2.24,-5 5,-5 2.76,0 5,2.24 5,5 z"
         style="fill:#000000;fill-opacity:1;fill-rule:evenodd;stroke:#000000;stroke-width:1pt;stroke-opacity:1"
         transform="matrix(0.4,0,0,0.4,2.96,0.4)"
         inkscape:connector-curvature="0" />
    </marker>
    <marker
       inkscape:isstock="true"
       style="overflow:visible"
       id="marker5739"
       refX="0"
       refY="0"
       orient="auto"
       inkscape:stockid="DotM">
      <path
         transform="matrix(0.4,0,0,0.4,2.96,0.4)"
         style="fill:#000000;fill-opacity:1;fill-rule:evenodd;stroke:#000000;stroke-width:1pt;stroke-opacity:1"
         d="m -2.5,-1 c 0,2.76 -2.24,5 -5,5 -2.76,0 -5,-2.24 -5,-5 0,-2.76 2.24,-5 5,-5 2.76,0 5,2.24 5,5 z"
         id="path5741"
         inkscape:connector-curvature="0" />
    </marker>
    <marker
       inkscape:stockid="DotM"
       orient="auto"
       refY="0"
       refX="0"
       id="DotM"
       style="overflow:visible"
       inkscape:isstock="true"
       inkscape:collect="always">
      <path
         id="path5527"
         d="m -2.5,-1 c 0,2.76 -2.24,5 -5,5 -2.76,0 -5,-2.24 -5,-5 0,-2.76 2.24,-5 5,-5 2.76,0 5,2.24 5,5 z"
         style="fill:#000000;fill-opacity:1;fill-rule:evenodd;stroke:#000000;stroke-width:1pt;stroke-opacity:1"
         transform="matrix(0.4,0,0,0.4,2.96,0.4)"
         inkscape:connector-curvature="0" />
    </marker>
  </defs>
  <sodipodi:namedview
     id="base"
     pagecolor="#ffffff"
     bordercolor="#666666"
     borderopacity="1.0"
     inkscape:pageopacity="0.0"
     inkscape:pageshadow="2"
     inkscape:zoom="4"
     inkscape:cx="-38.01748"
     inkscape:cy="138.10345"
     inkscape:document-units="px"
     inkscape:current-layer="svg2"
     showgrid="true"
     units="px"
     inkscape:window-width="1920"
     inkscape:window-height="1003"
     inkscape:window-x="0"
     inkscape:window-y="180"
     inkscape:window-maximized="1"
     inkscape:snap-intersection-paths="false"
     inkscape:object-paths="false"
     inkscape:snap-smooth-nodes="false"
     inkscape:object-nodes="false"
     inkscape:snap-bbox="true"
     inkscape:snap-midpoints="false"
     inkscape:bbox-nodes="false"
     inkscape:bbox-paths="true"
     inkscape:snap-bbox-edge-midpoints="false"
     inkscape:snap-bbox-midpoints="true"
     inkscape:snap-text-baseline="true"
     showborder="true"
     inkscape:snap-nodes="true"
     fit-margin-top="0"
     fit-margin-left="0"
     fit-margin-right="0"
     fit-margin-bottom="0"
     inkscape:snap-object-midpoints="true"
     inkscape:snap-center="true">
    <inkscape:grid
       type="xygrid"
       id="grid4684"
       spacingx="5"
       spacingy="5"
       originx="28.888247"
       originy="-9.5000031"
       empspacing="4"
       dotted="true" />
  </sodipodi:namedview>
  <metadata
     id="metadata7">
    <rdf:RDF>
      <cc:Work
         rdf:about="">
        <dc:format>image/svg+xml</dc:format>
        <dc:type
           rdf:resource="http://purl.org/dc/dcmitype/StillImage" />
        <dc:title />
      </cc:Work>
    </rdf:RDF>
  </metadata>
  <g
     inkscape:label="Layer 1"
     inkscape:groupmode="layer"
     id="layer1"
     transform="translate(17.888247,17.594988)" />
  <use
     x="40"
     y="0"
     xlink:href="#path3610"
     id="use3620"
     width="100%"
     height="100%" />
  <path
     style="fill:#b3b3b3;fill-rule:evenodd;stroke:none;stroke-width:1px;stroke-linecap:butt;stroke-linejoin:miter;stroke-opacity:1"
     d="m 68.888247,28.594988 -10,0 0,10 -10,0 0,10 -10,0 0,10 -10,0 0,70.000002 10,0 0,-10 10,0 0,-10 10,0 0,-10.000002 10,0 z"
     id="path3610"
     inkscape:connector-curvature="0" />
  <path
     inkscape:connector-curvature="0"
     id="path3622"
     d="m 138.88825,28.594988 -10,0 0,10 -10,0 0,10 -10,0 0,70.000002 10,0 0,-10 10,0 0,-10.000002 10,0 z"
     style="fill:#b3b3b3;fill-rule:evenodd;stroke:none;stroke-width:1px;stroke-linecap:butt;stroke-linejoin:miter;stroke-opacity:1" />
  <path
     inkscape:connector-curvature="0"
     id="path3396"
     d="m 108.88825,218.595 0,-30.00001 10,0 0,-10 10,0 0,-10 10,0 0,50.00001 z"
     style="fill:#b3b3b3;fill-rule:evenodd;stroke:none;stroke-width:1px;stroke-linecap:butt;stroke-linejoin:miter;stroke-opacity:1"
     sodipodi:nodetypes="ccccccccc" />
  <use
     x="40"
     y="0"
     xlink:href="#path3612"
     id="use3394"
     width="100%"
     height="100%" />
  <path
     style="fill:#b3b3b3;fill-rule:evenodd;stroke:none;stroke-width:1px;stroke-linecap:butt;stroke-linejoin:miter;stroke-opacity:1"
     d="m 28.888247,218.595 0,-20.00001 10,0 0,-10 10,0 0,-10 10,0 0,-10 10,0 0,50.00001 z"
     id="path3612"
     inkscape:connector-curvature="0"
     sodipodi:nodetypes="ccccccccccc" />
  <g
     id="g3379"
     transform="translate(17.888247,17.594988)">
    <path
       inkscape:connector-curvature="0"
       id="path4748"
       d="m 1,21 120,0"
       style="fill:none;fill-rule:evenodd;stroke:#cccccc;stroke-width:0.5px;stroke-linecap:butt;stroke-linejoin:miter;stroke-opacity:1" />
    <use
       height="100%"
       width="100%"
       id="use4750"
       xlink:href="#path4748"
       y="10"
       x="0" />
    <use
       height="100%"
       width="100%"
       id="use4752"
       xlink:href="#path4748"
       y="20"
       x="0" />
    <use
       height="100%"
       width="100%"
       id="use4754"
       xlink:href="#path4748"
       y="30"
       x="0" />
    <use
       id="use4756"
       xlink:href="#path4748"
       y="40"
       x="0"
       width="100%"
       height="100%" />
    <use
       id="use4760"
       xlink:href="#path4748"
       y="50"
       x="0"
       width="100%"
       height="100%" />
    <use
       x="0"
       y="60"
       xlink:href="#path4748"
       id="use4762"
       width="100%"
       height="100%" />
    <use
       id="use4764"
       xlink:href="#path4748"
       y="70"
       x="0"
       width="100%"
       height="100%" />
    <use
       x="0"
       y="80"
       xlink:href="#path4748"
       id="use4768"
       width="100%"
       height="100%" />
    <use
       id="use4770"
       xlink:href="#path4748"
       y="90"
       x="0"
       width="100%"
       height="100%" />
    <use
       x="0"
       y="100"
       xlink:href="#path4748"
       id="use4772"
       width="100%"
       height="100%" />
    <use
       id="use4774"
       xlink:href="#path4748"
       y="110"
       x="0"
       width="100%"
       height="100%" />
    <use
       x="0"
       y="120"
       xlink:href="#path4748"
       id="use4776"
       width="100%"
       height="100%" />
    <use
       id="use4778"
       xlink:href="#path4748"
       y="130"
       x="0"
       width="100%"
       height="100%" />
    <use
       x="0"
       y="140"
       xlink:href="#path4748"
       id="use4780"
       width="100%"
       height="100%" />
    <use
       id="use4782"
       xlink:href="#path4748"
       y="150"
       x="0"
       width="100%"
       height="100%" />
    <use
       x="0"
       y="160"
       xlink:href="#path4748"
       id="use4784"
       width="100%"
       height="100%" />
    <use
       id="use4786"
       xlink:href="#path4748"
       y="170"
       x="0"
       width="100%"
       height="100%" />
  </g>
  <g
     id="g4738"
     transform="translate(17.888247,17.594988)">
    <path
       inkscape:connector-curvature="0"
       id="path4722"
       d="m 21,1 0,200.00001"
       style="fill:none;fill-rule:evenodd;stroke:#cccccc;stroke-width:0.5px;stroke-linecap:butt;stroke-linejoin:miter;stroke-opacity:1"
       sodipodi:nodetypes="cc" />
    <use
       height="100%"
       width="100%"
       id="use4724"
       xlink:href="#path4722"
       y="0"
       x="10" />
    <use
       height="100%"
       width="100%"
       id="use4726"
       xlink:href="#path4722"
       y="0"
       x="20" />
    <use
       height="100%"
       width="100%"
       id="use4728"
       xlink:href="#path4722"
       y="0"
       x="40" />
    <use
       height="100%"
       width="100%"
       id="use4730"
       xlink:href="#path4722"
       y="0"
       x="50" />
    <use
       height="100%"
       width="100%"
       id="use4732"
       xlink:href="#path4722"
       y="0"
       x="60" />
    <use
       height="100%"
       width="100%"
       id="use4734"
       xlink:href="#path4722"
       y="0"
       x="80" />
    <use
       height="100%"
       width="100%"
       id="use4736"
       xlink:href="#path4722"
       y="0"
       x="90" />
  </g>
  <g
     style="font-style:normal;font-variant:normal;font-weight:500;font-stretch:normal;font-size:10px;line-height:125%;font-family:'CMU Serif';-inkscape-font-specification:'CMU Serif Medium';text-align:start;letter-spacing:0px;word-spacing:0px;text-anchor:start;fill:#000000;fill-opacity:1;stroke:none;stroke-width:1px;stroke-linecap:butt;stroke-linejoin:miter;stroke-opacity:1"
     id="text3590"
     transform="translate(-5.518,-1.7350002)">
    <path
       d="m 24.686246,8.6750002 0,-0.31 0.26,0 q 0.56,0 0.69,-0.09 0.13,-0.09 0.13,-0.38 l 0,-5.27 q 0,-0.29 -0.13,-0.38 -0.13,-0.09 -0.69,-0.09 l -0.26,0 0,-0.31 q 0.35,0.03 1.53,0.03 1.17,0 1.52,-0.03 l 0,0.31 -0.26,0 q -0.56,0 -0.69,0.09 -0.13,0.09 -0.13,0.38 l 0,5.27 q 0,0.29 0.13,0.38 0.13,0.09 0.69,0.09 l 0.26,0 0,0.31 q -0.35,-0.03 -1.53,-0.03 -1.17,0 -1.52,0.03 z"
       id="path6508"
       inkscape:connector-curvature="0" />
    <path
       d="m 28.339527,8.6750002 0,-0.31 q 0.53,0 0.65,-0.06 0.13,-0.07 0.13,-0.39 l 0,-2.68 q 0,-0.37 -0.13,-0.46 -0.13,-0.1 -0.65,-0.1 l 0,-0.31 1.41,-0.11 0,1.05 q 0.47,-1.05 1.48,-1.05 0.75,0 1.05,0.37 0.22,0.25 0.26,0.53 0.05,0.28 0.05,1 l 0,1.91 q 0.01,0.21 0.17,0.26 0.16,0.04 0.61,0.04 l 0,0.31 q -1.02,-0.03 -1.12,-0.03 -0.08,0 -1.13,0.03 l 0,-0.31 q 0.53,0 0.65,-0.06 0.13,-0.07 0.13,-0.39 l 0,-2.33 q 0,-0.51 -0.16,-0.81 -0.15,-0.3 -0.58,-0.3 -0.52,0 -0.94,0.44 -0.41,0.43 -0.41,1.16 l 0,1.84 q 0,0.32 0.12,0.39 0.13,0.06 0.66,0.06 l 0,0.31 q -1.02,-0.03 -1.12,-0.03 -0.08,0 -1.13,0.03 z"
       id="path6510"
       inkscape:connector-curvature="0" />
    <path
       d="m 33.896402,8.6750002 0,-0.31 q 0.53,0 0.65,-0.06 0.13,-0.07 0.13,-0.39 l 0,-2.69 q 0,-0.37 -0.13,-0.46 -0.12,-0.09 -0.61,-0.09 l 0,-0.31 1.4,-0.11 0,3.67 q 0,0.3 0.1,0.37 0.11,0.07 0.6,0.07 l 0,0.31 q -1.02,-0.03 -1.04,-0.03 -0.14,0 -1.1,0.03 z m 0.42,-6.16 q 0,-0.2 0.15,-0.36 0.16,-0.17 0.38,-0.17 0.22,0 0.37,0.15 0.16,0.15 0.16,0.38 0,0.23 -0.16,0.38 -0.15,0.15 -0.37,0.15 -0.23,0 -0.38,-0.16 -0.15,-0.16 -0.15,-0.37 z"
       id="path6512"
       inkscape:connector-curvature="0" />
    <path
       d="m 36.52984,4.6750002 0,-0.22 q 0.46,-0.02 0.76,-0.34 0.31,-0.33 0.41,-0.73 0.11,-0.4 0.12,-0.86 l 0.25,0 0,1.84 1.43,0 0,0.31 -1.43,0 0,2.78 q 0,1.08 0.67,1.08 0.29,0 0.48,-0.29 0.19,-0.3 0.19,-0.83 l 0,-0.55 0.25,0 0,0.57 q 0,0.54 -0.25,0.95 -0.25,0.4 -0.74,0.4 -0.18,0 -0.36,-0.05 -0.18,-0.04 -0.41,-0.16 -0.23,-0.12 -0.38,-0.41 -0.14,-0.3 -0.14,-0.73 l 0,-2.76 -0.85,0 z"
       id="path6514"
       inkscape:connector-curvature="0" />
    <path
       d="m 40.556559,8.6750002 0,-0.31 q 0.53,0 0.65,-0.06 0.13,-0.07 0.13,-0.39 l 0,-2.69 q 0,-0.37 -0.13,-0.46 -0.12,-0.09 -0.61,-0.09 l 0,-0.31 1.4,-0.11 0,3.67 q 0,0.3 0.1,0.37 0.11,0.07 0.6,0.07 l 0,0.31 q -1.02,-0.03 -1.04,-0.03 -0.14,0 -1.1,0.03 z m 0.42,-6.16 q 0,-0.2 0.15,-0.36 0.16,-0.17 0.38,-0.17 0.22,0 0.37,0.15 0.16,0.15 0.16,0.38 0,0.23 -0.16,0.38 -0.15,0.15 -0.37,0.15 -0.23,0 -0.38,-0.16 -0.15,-0.16 -0.15,-0.37 z"
       id="path6516"
       inkscape:connector-curvature="0" />
    <path
       d="m 43.419996,7.7250002 q 0,-0.85 1,-1.3 0.6,-0.29 1.84,-0.36 l 0,-0.37 q 0,-0.62 -0.33,-0.95 -0.32,-0.33 -0.73,-0.33 -0.73,0 -1.08,0.46 0.3,0.01 0.4,0.16 0.11,0.15 0.11,0.3 0,0.2 -0.13,0.33 -0.12,0.13 -0.33,0.13 -0.2,0 -0.33,-0.12 -0.13,-0.13 -0.13,-0.35 0,-0.49 0.44,-0.81 0.44,-0.32 1.07,-0.32 0.82,0 1.37,0.55 0.17,0.17 0.25,0.39 0.09,0.22 0.1,0.37 0.01,0.14 0.01,0.42 l 0,2 q 0,0.06 0.02,0.16 0.02,0.09 0.11,0.22 0.09,0.12 0.24,0.12 0.36,0 0.36,-0.64 l 0,-0.56 0.25,0 0,0.56 q 0,0.53 -0.28,0.74 -0.28,0.21 -0.54,0.21 -0.33,0 -0.54,-0.24 -0.21,-0.25 -0.24,-0.58 -0.15,0.38 -0.5,0.63 -0.34,0.24 -0.81,0.24 -0.36,0 -0.7,-0.09 -0.34,-0.09 -0.62,-0.34 -0.28,-0.25 -0.28,-0.63 z m 0.77,-0.01 q 0,0.37 0.26,0.61 0.27,0.24 0.64,0.24 0.42,0 0.79,-0.32 0.38,-0.33 0.38,-0.97 l 0,-1 q -1.11,0.04 -1.59,0.48 -0.48,0.44 -0.48,0.96 z"
       id="path6518"
       inkscape:connector-curvature="0" />
    <path
       d="m 48.329996,8.6750002 0,-0.31 q 0.53,0 0.65,-0.06 0.13,-0.07 0.13,-0.39 l 0,-5.2 q 0,-0.37 -0.13,-0.46 -0.13,-0.1 -0.65,-0.1 l 0,-0.31 1.44,-0.11 0,6.18 q 0,0.32 0.12,0.39 0.13,0.06 0.66,0.06 l 0,0.31 q -0.12,0 -0.38,-0.01 -0.25,-0.01 -0.44,-0.01 -0.18,-0.01 -0.29,-0.01 -0.12,0 -1.11,0.03 z"
       id="path6520"
       inkscape:connector-curvature="0" />
    <path
       d="m 55.083277,8.1250002 q -0.63,-0.66 -0.63,-1.61 0,-0.95 0.62,-1.63 0.63,-0.69 1.55,-0.69 0.61,0 1.07,0.29 0.46,0.29 0.46,0.78 0,0.22 -0.13,0.35 -0.13,0.12 -0.33,0.12 -0.21,0 -0.34,-0.13 -0.12,-0.13 -0.12,-0.33 0,-0.09 0.03,-0.17 0.03,-0.09 0.14,-0.18 0.11,-0.1 0.3,-0.11 -0.36,-0.37 -1.07,-0.37 -0.51,0 -0.93,0.48 -0.42,0.48 -0.42,1.57 0,0.57 0.14,0.99 0.14,0.42 0.37,0.64 0.23,0.21 0.45,0.31 0.23,0.1 0.45,0.1 0.98,0 1.31,-1.05 0.03,-0.1 0.13,-0.1 0.13,0 0.13,0.1 0,0.05 -0.04,0.18 -0.04,0.12 -0.16,0.32 -0.12,0.2 -0.3,0.38 -0.17,0.17 -0.48,0.3 -0.3,0.12 -0.68,0.12 -0.88,0 -1.52,-0.66 z"
       id="path6522"
       inkscape:connector-curvature="0" />
    <path
       d="m 59.486871,8.1350002 q -0.66,-0.65 -0.66,-1.6 0,-0.95 0.64,-1.64 0.65,-0.7 1.58,-0.7 0.91,0 1.56,0.69 0.65,0.69 0.65,1.65 0,0.94 -0.66,1.6 -0.65,0.65 -1.56,0.65 -0.89,0 -1.55,-0.65 z m 0.17,-1.68 q 0,0.97 0.25,1.41 0.39,0.67 1.14,0.67 0.37,0 0.68,-0.2 0.31,-0.2 0.48,-0.54 0.22,-0.44 0.22,-1.34 0,-0.96 -0.26,-1.39 -0.39,-0.65 -1.13,-0.65 -0.32,0 -0.64,0.17 -0.31,0.17 -0.5,0.5 -0.24,0.44 -0.24,1.37 z"
       id="path6524"
       inkscape:connector-curvature="0" />
    <path
       d="m 63.876871,8.6750002 0,-0.31 q 0.53,0 0.65,-0.06 0.13,-0.07 0.13,-0.39 l 0,-5.2 q 0,-0.37 -0.13,-0.46 -0.13,-0.1 -0.65,-0.1 l 0,-0.31 1.44,-0.11 0,6.18 q 0,0.32 0.12,0.39 0.13,0.06 0.66,0.06 l 0,0.31 q -0.12,0 -0.38,-0.01 -0.25,-0.01 -0.44,-0.01 -0.18,-0.01 -0.29,-0.01 -0.12,0 -1.11,0.03 z"
       id="path6526"
       inkscape:connector-curvature="0" />
    <path
       d="m 66.640309,4.6750002 0,-0.31 1.47,-0.11 0,3.32 q 0,0.24 0.02,0.38 0.02,0.14 0.1,0.3 0.08,0.16 0.27,0.24 0.19,0.07 0.49,0.07 0.54,0 0.87,-0.44 0.34,-0.45 0.34,-1.11 l 0,-1.78 q 0,-0.37 -0.13,-0.46 -0.13,-0.1 -0.65,-0.1 l 0,-0.31 1.47,-0.11 0,3.55 q 0,0.37 0.13,0.47 0.13,0.09 0.65,0.09 l 0,0.31 -1.44,0.11 0,-0.9 q -0.42,0.9 -1.29,0.9 -0.44,0 -0.74,-0.11 -0.3,-0.11 -0.45,-0.25 -0.15,-0.14 -0.23,-0.41 -0.08,-0.27 -0.09,-0.43 -0.01,-0.17 -0.01,-0.49 l 0,-1.5 q 0,-0.68 -0.1,-0.8 -0.1,-0.12 -0.68,-0.12 z"
       id="path6528"
       inkscape:connector-curvature="0" />
    <path
       d="m 72.187184,8.6750002 0,-0.31 q 0.53,0 0.65,-0.06 0.13,-0.07 0.13,-0.39 l 0,-2.68 q 0,-0.37 -0.13,-0.46 -0.13,-0.1 -0.65,-0.1 l 0,-0.31 1.41,-0.11 0,1.05 q 0.47,-1.05 1.48,-1.05 1.17,0 1.33,0.98 0.17,-0.38 0.53,-0.68 0.36,-0.3 0.92,-0.3 0.75,0 1.05,0.37 0.22,0.25 0.26,0.53 0.05,0.28 0.05,1 l 0,1.91 q 0.01,0.21 0.17,0.26 0.16,0.04 0.61,0.04 l 0,0.31 q -1.02,-0.03 -1.12,-0.03 -0.08,0 -1.13,0.03 l 0,-0.31 q 0.53,0 0.65,-0.06 0.13,-0.07 0.13,-0.39 l 0,-2.33 q 0,-0.51 -0.16,-0.81 -0.15,-0.3 -0.58,-0.3 -0.52,0 -0.94,0.44 -0.41,0.43 -0.41,1.16 l 0,1.84 q 0,0.32 0.12,0.39 0.13,0.06 0.66,0.06 l 0,0.31 q -1.02,-0.03 -1.12,-0.03 -0.08,0 -1.13,0.03 l 0,-0.31 q 0.53,0 0.65,-0.06 0.13,-0.07 0.13,-0.39 l 0,-2.33 q 0,-0.51 -0.16,-0.81 -0.15,-0.3 -0.58,-0.3 -0.52,0 -0.94,0.44 -0.41,0.43 -0.41,1.16 l 0,1.84 q 0,0.32 0.12,0.39 0.13,0.06 0.66,0.06 l 0,0.31 q -1.02,-0.03 -1.12,-0.03 -0.08,0 -1.13,0.03 z"
       id="path6530"
       inkscape:connector-curvature="0" />
    <path
       d="m 80.527027,8.6750002 0,-0.31 q 0.53,0 0.65,-0.06 0.13,-0.07 0.13,-0.39 l 0,-2.68 q 0,-0.37 -0.13,-0.46 -0.13,-0.1 -0.65,-0.1 l 0,-0.31 1.41,-0.11 0,1.05 q 0.47,-1.05 1.48,-1.05 0.75,0 1.05,0.37 0.22,0.25 0.26,0.53 0.05,0.28 0.05,1 l 0,1.91 q 0.01,0.21 0.17,0.26 0.16,0.04 0.61,0.04 l 0,0.31 q -1.02,-0.03 -1.12,-0.03 -0.08,0 -1.13,0.03 l 0,-0.31 q 0.53,0 0.65,-0.06 0.13,-0.07 0.13,-0.39 l 0,-2.33 q 0,-0.51 -0.16,-0.81 -0.15,-0.3 -0.58,-0.3 -0.52,0 -0.94,0.44 -0.41,0.43 -0.41,1.16 l 0,1.84 q 0,0.32 0.12,0.39 0.13,0.06 0.66,0.06 l 0,0.31 q -1.02,-0.03 -1.12,-0.03 -0.08,0 -1.13,0.03 z"
       id="path6532"
       inkscape:connector-curvature="0" />
  </g>
  <g
     transform="matrix(0,-1,1,0,2.8970009,-24.072683)"
     style="font-style:normal;font-variant:normal;font-weight:500;font-stretch:normal;font-size:10px;line-height:125%;font-family:'CMU Serif';-inkscape-font-specification:'CMU Serif Medium';text-align:center;letter-spacing:0px;word-spacing:0px;text-anchor:middle;fill:#000000;fill-opacity:1;stroke:none;stroke-width:1px;stroke-linecap:butt;stroke-linejoin:miter;stroke-opacity:1"
     id="text3598">
    <path
       d="m -221.57283,9.4062471 0,-0.31 0.24,0 q 0.54,0 0.66,-0.09 0.13,-0.09 0.13,-0.38 l 0,-5.27 q 0,-0.29 -0.13,-0.38 -0.12,-0.09 -0.66,-0.09 l -0.24,0 0,-0.31 3.66,0 q 0.95,0 1.58,0.51 0.64,0.51 0.64,1.18 0,0.55 -0.47,0.99 -0.46,0.44 -1.19,0.58 0.83,0.09 1.38,0.59 0.55,0.5 0.55,1.15 0,0.73 -0.63,1.28 -0.63,0.55 -1.6,0.55 l -3.92,0 z m 1.86,-0.71 q 0,0.26 0.07,0.33 0.08,0.07 0.42,0.07 l 1.25,0 q 0.72,0 1.13,-0.47 0.42,-0.47 0.42,-1.06 0,-0.59 -0.37,-1.09 -0.36,-0.51 -1.04,-0.51 l -1.88,0 0,2.73 z m 0,-2.95 1.45,0 q 0.77,0 1.18,-0.46 0.42,-0.47 0.42,-1.02 0,-0.49 -0.33,-0.93 -0.33,-0.45 -0.99,-0.45 l -1.24,0 q -0.34,0 -0.42,0.07 -0.07,0.07 -0.07,0.33 l 0,2.46 z"
       id="path6449"
       inkscape:connector-curvature="0" />
    <path
       d="m -214.51299,9.4062471 0,-0.31 q 0.53,0 0.65,-0.06 0.13,-0.07 0.13,-0.39 l 0,-5.2 q 0,-0.37 -0.13,-0.46 -0.13,-0.1 -0.65,-0.1 l 0,-0.31 1.44,-0.11 0,6.18 q 0,0.32 0.12,0.39 0.13,0.06 0.66,0.06 l 0,0.31 q -0.12,0 -0.38,-0.01 -0.25,-0.01 -0.44,-0.01 -0.18,-0.01 -0.29,-0.01 -0.12,0 -1.11,0.03 z"
       id="path6451"
       inkscape:connector-curvature="0" />
    <path
       d="m -211.12955,8.8662471 q -0.66,-0.65 -0.66,-1.6 0,-0.95 0.64,-1.64 0.65,-0.7 1.58,-0.7 0.91,0 1.56,0.69 0.65,0.69 0.65,1.65 0,0.94 -0.66,1.6 -0.65,0.65 -1.56,0.65 -0.89,0 -1.55,-0.65 z m 0.17,-1.68 q 0,0.97 0.25,1.41 0.39,0.67 1.14,0.67 0.37,0 0.68,-0.2 0.31,-0.2 0.48,-0.54 0.22,-0.44 0.22,-1.34 0,-0.96 -0.26,-1.39 -0.39,-0.65 -1.13,-0.65 -0.32,0 -0.64,0.17 -0.31,0.17 -0.5,0.5 -0.24,0.44 -0.24,1.37 z"
       id="path6453"
       inkscape:connector-curvature="0" />
    <path
       d="m -205.82611,8.8562471 q -0.63,-0.66 -0.63,-1.61 0,-0.95 0.62,-1.63 0.63,-0.69 1.55,-0.69 0.61,0 1.07,0.29 0.46,0.29 0.46,0.78 0,0.22 -0.13,0.35 -0.13,0.12 -0.33,0.12 -0.21,0 -0.34,-0.13 -0.12,-0.13 -0.12,-0.33 0,-0.09 0.03,-0.17 0.03,-0.09 0.14,-0.18 0.11,-0.1 0.3,-0.11 -0.36,-0.37 -1.07,-0.37 -0.51,0 -0.93,0.48 -0.42,0.48 -0.42,1.57 0,0.57 0.14,0.99 0.14,0.42 0.37,0.64 0.23,0.21 0.45,0.31 0.23,0.1 0.45,0.1 0.98,0 1.31,-1.05 0.03,-0.1 0.13,-0.1 0.13,0 0.13,0.1 0,0.05 -0.04,0.18 -0.04,0.12 -0.16,0.32 -0.12,0.2 -0.3,0.38 -0.17,0.17 -0.48,0.3 -0.3,0.12 -0.68,0.12 -0.88,0 -1.52,-0.66 z"
       id="path6455"
       inkscape:connector-curvature="0" />
    <path
       d="m -202.35596,9.4062471 0,-0.31 q 0.53,0 0.65,-0.06 0.13,-0.07 0.13,-0.39 l 0,-5.2 q 0,-0.37 -0.13,-0.46 -0.13,-0.1 -0.65,-0.1 l 0,-0.31 1.44,-0.11 0,4.8 1.41,-1.22 q 0.22,-0.19 0.22,-0.39 0,-0.23 -0.29,-0.25 l 0,-0.31 q 0.42,0.03 1.12,0.03 0.41,0 0.7,-0.03 l 0,0.31 q -0.63,0.03 -1.26,0.54 -0.14,0.11 -0.48,0.4 -0.33,0.29 -0.33,0.32 0,0.01 0.01,0.04 0.01,0.02 0.03,0.04 0.02,0.02 0.02,0.03 l 1.27,1.79 q 0.26,0.36 0.45,0.45 0.19,0.08 0.52,0.08 l 0,0.31 q -0.43,-0.03 -0.87,-0.03 -0.24,0 -1.08,0.03 l 0,-0.31 q 0.36,0 0.36,-0.23 0,-0.16 -0.81,-1.28 -0.06,-0.08 -0.19,-0.25 -0.12,-0.18 -0.19,-0.27 l -0.64,0.55 0,1.03 q 0,0.32 0.12,0.39 0.13,0.06 0.66,0.06 l 0,0.31 q -0.6,-0.03 -1.1,-0.03 -0.1,0 -1.09,0.03 z"
       id="path6457"
       inkscape:connector-curvature="0" />
    <path
       d="m -197.03252,9.2762471 0,-1.32 q 0,-0.11 0,-0.15 0.01,-0.04 0.04,-0.07 0.03,-0.03 0.09,-0.03 0.07,0 0.09,0.03 0.03,0.03 0.05,0.14 0.15,0.69 0.47,1.06 0.33,0.36 0.92,0.36 0.56,0 0.84,-0.25 0.29,-0.25 0.29,-0.66 0,-0.73 -1.04,-0.92 -0.6,-0.12 -0.85,-0.2 -0.25,-0.08 -0.47,-0.26 -0.43,-0.35 -0.43,-0.85 0,-0.5 0.38,-0.86 0.38,-0.37 1.22,-0.37 0.56,0 0.94,0.28 0.11,-0.09 0.17,-0.16 0.13,-0.12 0.2,-0.12 0.08,0 0.09,0.05 0.02,0.05 0.02,0.19 l 0,1.01 q 0,0.11 -0.01,0.15 0,0.04 -0.03,0.07 -0.03,0.02 -0.09,0.02 -0.11,0 -0.12,-0.09 -0.08,-1.21 -1.17,-1.21 -0.59,0 -0.86,0.23 -0.26,0.22 -0.26,0.53 0,0.17 0.08,0.3 0.08,0.13 0.18,0.21 0.11,0.07 0.3,0.14 0.2,0.07 0.32,0.1 0.12,0.02 0.35,0.07 0.8,0.15 1.14,0.48 0.42,0.42 0.42,0.95 0,0.59 -0.4,0.99 -0.4,0.4 -1.21,0.4 -0.65,0 -1.1,-0.43 -0.06,0.06 -0.11,0.11 -0.04,0.05 -0.06,0.07 -0.01,0.02 -0.02,0.03 0,0.01 -0.01,0.02 -0.2,0.2 -0.25,0.2 -0.08,0 -0.1,-0.05 -0.01,-0.05 -0.01,-0.19 z"
       id="path6459"
       inkscape:connector-curvature="0" />
  </g>
  <g
     style="font-style:normal;font-variant:normal;font-weight:500;font-stretch:normal;font-size:10px;line-height:125%;font-family:'CMU Serif';-inkscape-font-specification:'CMU Serif Medium';text-align:center;letter-spacing:0px;word-spacing:0px;text-anchor:middle;fill:#000000;fill-opacity:1;stroke:none;stroke-width:1px;stroke-linecap:butt;stroke-linejoin:miter;stroke-opacity:1"
     id="text3602"
     transform="matrix(0.99998405,0,0,1,12.271413,-19.734999)">
    <path
       d="m 80.771875,26.674999 0,-0.31 0.24,0 q 0.54,0 0.66,-0.09 0.13,-0.09 0.13,-0.38 l 0,-5.27 q 0,-0.29 -0.13,-0.38 -0.12,-0.09 -0.66,-0.09 l -0.24,0 0,-0.31 3.53,0 q 1.01,0 1.68,0.56 0.68,0.55 0.68,1.3 0,0.74 -0.69,1.28 -0.68,0.53 -1.59,0.53 l -1.69,0 0,2.38 q 0,0.29 0.12,0.38 0.13,0.09 0.67,0.09 l 0.24,0 0,0.31 q -0.35,-0.03 -1.48,-0.03 -1.12,0 -1.47,0.03 z m 1.89,-3.42 1.38,0 q 0.45,0 0.77,-0.12 0.33,-0.13 0.48,-0.28 0.15,-0.16 0.23,-0.41 0.09,-0.25 0.1,-0.39 0.01,-0.14 0.01,-0.35 0,-0.22 -0.01,-0.36 -0.01,-0.14 -0.1,-0.39 -0.08,-0.25 -0.23,-0.4 -0.15,-0.16 -0.48,-0.28 -0.32,-0.12 -0.77,-0.12 l -0.89,0 q -0.34,0 -0.42,0.07 -0.07,0.07 -0.07,0.33 l 0,2.7 z"
       id="path6493"
       inkscape:connector-curvature="0" />
    <path
       d="m 87.54875,26.674999 0,-0.31 q 0.53,0 0.65,-0.06 0.13,-0.07 0.13,-0.39 l 0,-2.69 q 0,-0.37 -0.13,-0.46 -0.12,-0.09 -0.61,-0.09 l 0,-0.31 1.4,-0.11 0,3.67 q 0,0.3 0.1,0.37 0.11,0.07 0.6,0.07 l 0,0.31 q -1.02,-0.03 -1.04,-0.03 -0.14,0 -1.1,0.03 z m 0.42,-6.16 q 0,-0.2 0.15,-0.36 0.16,-0.17 0.38,-0.17 0.22,0 0.37,0.15 0.16,0.15 0.16,0.38 0,0.23 -0.16,0.38 -0.15,0.15 -0.37,0.15 -0.23,0 -0.38,-0.16 -0.15,-0.16 -0.15,-0.37 z"
       id="path6495"
       inkscape:connector-curvature="0" />
    <path
       d="m 90.322187,26.674999 0,-0.31 q 0.53,0 0.650001,-0.06 0.129999,-0.07 0.129999,-0.39 l 0,-5.2 q 0,-0.37 -0.129999,-0.46 -0.130001,-0.1 -0.650001,-0.1 l 0,-0.31 1.44,-0.11 0,6.18 q 0,0.32 0.12,0.39 0.13,0.06 0.66,0.06 l 0,0.31 q -0.119999,0 -0.379999,-0.01 -0.25,-0.01 -0.44,-0.01 -0.180001,-0.01 -0.290001,-0.01 -0.12,0 -1.11,0.03 z"
       id="path6497"
       inkscape:connector-curvature="0" />
    <path
       d="m 93.095625,26.674999 0,-0.31 q 0.53,0 0.65,-0.06 0.13,-0.07 0.13,-0.39 l 0,-5.2 q 0,-0.37 -0.13,-0.46 -0.13,-0.1 -0.65,-0.1 l 0,-0.31 1.44,-0.11 0,6.18 q 0,0.32 0.12,0.39 0.13,0.06 0.66,0.06 l 0,0.31 q -0.12,0 -0.38,-0.01 -0.25,-0.01 -0.44,-0.01 -0.18,-0.01 -0.29,-0.01 -0.12,0 -1.11,0.03 z"
       id="path6499"
       inkscape:connector-curvature="0" />
    <path
       d="m 95.959063,25.724999 q 0,-0.85 1,-1.3 0.599999,-0.29 1.84,-0.36 l 0,-0.37 q 0,-0.62 -0.33,-0.95 -0.320001,-0.33 -0.73,-0.33 -0.730001,0 -1.08,0.46 0.3,0.01 0.399999,0.16 0.11,0.15 0.11,0.3 0,0.2 -0.13,0.33 -0.12,0.13 -0.329999,0.13 -0.200001,0 -0.33,-0.12 -0.130001,-0.13 -0.130001,-0.35 0,-0.49 0.440001,-0.81 0.44,-0.32 1.069999,-0.32 0.820001,0 1.370001,0.55 0.17,0.17 0.25,0.39 0.09,0.22 0.1,0.37 0.01,0.14 0.01,0.42 l 0,2 q 0,0.06 0.02,0.16 0.02,0.09 0.11,0.22 0.09,0.12 0.24,0.12 0.359997,0 0.359997,-0.64 l 0,-0.56 0.25,0 0,0.56 q 0,0.53 -0.28,0.74 -0.279996,0.21 -0.539997,0.21 -0.33,0 -0.54,-0.24 -0.21,-0.25 -0.24,-0.58 -0.149999,0.38 -0.5,0.63 -0.34,0.24 -0.81,0.24 -0.36,0 -0.7,-0.09 -0.339999,-0.09 -0.619999,-0.34 -0.28,-0.25 -0.28,-0.63 z m 0.769999,-0.01 q 0,0.37 0.260001,0.61 0.269999,0.24 0.64,0.24 0.42,0 0.789999,-0.32 0.380001,-0.33 0.380001,-0.97 l 0,-1 q -1.11,0.04 -1.59,0.48 -0.480001,0.44 -0.480001,0.96 z"
       id="path6501"
       inkscape:connector-curvature="0" />
    <path
       d="m 100.81906,26.674999 0,-0.31 q 0.53,0 0.65,-0.06 0.13,-0.07 0.13,-0.39 l 0,-2.68 q 0,-0.37 -0.13,-0.46 -0.13,-0.1 -0.65,-0.1 l 0,-0.31 1.39,-0.11 0,1.1 q 0.14,-0.43 0.44,-0.76 0.3,-0.34 0.79,-0.34 0.32,0 0.53,0.18 0.21,0.18 0.21,0.43 0,0.22 -0.14,0.33 -0.13,0.11 -0.29,0.11 -0.18,0 -0.31,-0.11 -0.12,-0.12 -0.12,-0.32 0,-0.12 0.05,-0.21 0.06,-0.1 0.1,-0.13 0.05,-0.04 0.08,-0.05 -0.02,-0.01 -0.11,-0.01 -0.55,0 -0.87,0.55 -0.31,0.55 -0.31,1.33 l 0,1.54 q 0,0.29 0.12,0.38 0.12,0.09 0.64,0.09 l 0.21,0 0,0.31 q -0.4,-0.03 -1.27,-0.03 -0.12,0 -0.31,0.01 -0.19,0 -0.44,0.01 -0.25,0.01 -0.39,0.01 z"
       id="path6503"
       inkscape:connector-curvature="0" />
    <path
       d="m 104.77531,26.544999 0,-1.32 q 0,-0.11 0,-0.15 0.01,-0.04 0.04,-0.07 0.03,-0.03 0.09,-0.03 0.07,0 0.09,0.03 0.03,0.03 0.05,0.14 0.15,0.69 0.47,1.06 0.33,0.36 0.92,0.36 0.56,0 0.84,-0.25 0.29,-0.25 0.29,-0.66 0,-0.73 -1.04,-0.92 -0.6,-0.12 -0.85,-0.2 -0.25,-0.08 -0.47,-0.26 -0.43,-0.35 -0.43,-0.85 0,-0.5 0.38,-0.86 0.38,-0.37 1.22,-0.37 0.56,0 0.94,0.28 0.11,-0.09 0.17,-0.16 0.13,-0.12 0.2,-0.12 0.08,0 0.09,0.05 0.02,0.05 0.02,0.19 l 0,1.01 q 0,0.11 -0.01,0.15 0,0.04 -0.03,0.07 -0.03,0.02 -0.09,0.02 -0.11,0 -0.12,-0.09 -0.08,-1.21 -1.17,-1.21 -0.59,0 -0.86,0.23 -0.26,0.22 -0.26,0.53 0,0.17 0.08,0.3 0.08,0.13 0.18,0.21 0.11,0.07 0.3,0.14 0.2,0.07 0.32,0.1 0.12,0.02 0.35,0.07 0.8,0.15 1.14,0.48 0.42,0.42 0.42,0.95 0,0.59 -0.4,0.99 -0.4,0.4 -1.21,0.4 -0.65,0 -1.1,-0.43 -0.06,0.06 -0.11,0.11 -0.04,0.05 -0.06,0.07 -0.01,0.02 -0.02,0.03 0,0.01 -0.01,0.02 -0.2,0.2 -0.25,0.2 -0.08,0 -0.1,-0.05 -0.01,-0.05 -0.01,-0.19 z"
       id="path6505"
       inkscape:connector-curvature="0" />
  </g>
  <g
     transform="matrix(0,-1,1,0,-5.518,-9.9508082)"
     style="font-style:normal;font-variant:normal;font-weight:500;font-stretch:normal;font-size:10px;line-height:125%;font-family:'CMU Serif';-inkscape-font-specification:'CMU Serif Medium';text-align:end;letter-spacing:0px;word-spacing:0px;text-anchor:end;fill:#000000;fill-opacity:1;stroke:none;stroke-width:1px;stroke-linecap:butt;stroke-linejoin:miter;stroke-opacity:1"
     id="text3606">
    <path
       d="m -64.534556,13.675 0,-0.31 0.26,0 q 0.56,0 0.69,-0.09 0.13,-0.09 0.13,-0.38 l 0,-5.2699998 q 0,-0.29 -0.13,-0.38 -0.13,-0.09 -0.69,-0.09 l -0.26,0 0,-0.31 q 0.35,0.03 1.53,0.03 1.17,0 1.52,-0.03 l 0,0.31 -0.26,0 q -0.56,0 -0.69,0.09 -0.13,0.09 -0.13,0.38 l 0,5.2699998 q 0,0.29 0.13,0.38 0.13,0.09 0.69,0.09 l 0.26,0 0,0.31 q -0.35,-0.03 -1.53,-0.03 -1.17,0 -1.52,0.03 z"
       id="path6472"
       inkscape:connector-curvature="0" />
    <path
       d="m -60.881275,13.675 0,-0.31 q 0.53,0 0.65,-0.06 0.13,-0.07 0.13,-0.39 l 0,-2.68 q 0,-0.3699998 -0.13,-0.4599998 -0.13,-0.1 -0.65,-0.1 l 0,-0.31 1.41,-0.11 0,1.0499998 q 0.47,-1.0499998 1.48,-1.0499998 0.75,0 1.05,0.37 0.22,0.25 0.26,0.5299998 0.05,0.28 0.05,1 l 0,1.91 q 0.01,0.21 0.17,0.26 0.16,0.04 0.61,0.04 l 0,0.31 q -1.02,-0.03 -1.12,-0.03 -0.08,0 -1.13,0.03 l 0,-0.31 q 0.53,0 0.65,-0.06 0.13,-0.07 0.13,-0.39 l 0,-2.33 q 0,-0.51 -0.16,-0.8099998 -0.15,-0.3 -0.58,-0.3 -0.52,0 -0.94,0.44 -0.41,0.4299998 -0.41,1.1599998 l 0,1.84 q 0,0.32 0.12,0.39 0.13,0.06 0.66,0.06 l 0,0.31 q -1.02,-0.03 -1.12,-0.03 -0.08,0 -1.13,0.03 z"
       id="path6474"
       inkscape:connector-curvature="0" />
    <path
       d="m -55.3244,13.675 0,-0.31 q 0.53,0 0.65,-0.06 0.13,-0.07 0.13,-0.39 l 0,-2.69 q 0,-0.3699998 -0.13,-0.4599998 -0.12,-0.09 -0.61,-0.09 l 0,-0.31 1.4,-0.11 0,3.6699998 q 0,0.3 0.1,0.37 0.11,0.07 0.6,0.07 l 0,0.31 q -1.02,-0.03 -1.04,-0.03 -0.14,0 -1.1,0.03 z m 0.42,-6.1599998 q 0,-0.2 0.15,-0.36 0.16,-0.17 0.38,-0.17 0.22,0 0.37,0.15 0.16,0.15 0.16,0.38 0,0.23 -0.16,0.38 -0.15,0.15 -0.37,0.15 -0.23,0 -0.38,-0.16 -0.15,-0.16 -0.15,-0.37 z"
       id="path6476"
       inkscape:connector-curvature="0" />
    <path
       d="m -52.690962,9.6750002 0,-0.22 q 0.46,-0.02 0.76,-0.34 0.31,-0.33 0.41,-0.73 0.11,-0.4 0.12,-0.86 l 0.25,0 0,1.84 1.43,0 0,0.31 -1.43,0 0,2.7799998 q 0,1.08 0.67,1.08 0.29,0 0.48,-0.29 0.19,-0.3 0.19,-0.83 l 0,-0.55 0.25,0 0,0.57 q 0,0.54 -0.25,0.95 -0.25,0.4 -0.74,0.4 -0.18,0 -0.36,-0.05 -0.18,-0.04 -0.41,-0.16 -0.23,-0.12 -0.38,-0.41 -0.14,-0.3 -0.14,-0.73 l 0,-2.7599998 -0.85,0 z"
       id="path6478"
       inkscape:connector-curvature="0" />
    <path
       d="m -48.664244,13.675 0,-0.31 q 0.53,0 0.65,-0.06 0.13,-0.07 0.13,-0.39 l 0,-2.69 q 0,-0.3699998 -0.13,-0.4599998 -0.12,-0.09 -0.61,-0.09 l 0,-0.31 1.4,-0.11 0,3.6699998 q 0,0.3 0.1,0.37 0.11,0.07 0.6,0.07 l 0,0.31 q -1.02,-0.03 -1.04,-0.03 -0.14,0 -1.1,0.03 z m 0.42,-6.1599998 q 0,-0.2 0.15,-0.36 0.16,-0.17 0.38,-0.17 0.22,0 0.37,0.15 0.16,0.15 0.16,0.38 0,0.23 -0.16,0.38 -0.15,0.15 -0.37,0.15 -0.23,0 -0.38,-0.16 -0.15,-0.16 -0.15,-0.37 z"
       id="path6480"
       inkscape:connector-curvature="0" />
    <path
       d="m -45.800806,12.725 q 0,-0.85 1,-1.3 0.6,-0.29 1.84,-0.36 l 0,-0.37 q 0,-0.62 -0.33,-0.9499998 -0.32,-0.33 -0.73,-0.33 -0.73,0 -1.08,0.46 0.3,0.01 0.4,0.1599998 0.11,0.15 0.11,0.3 0,0.2 -0.13,0.33 -0.12,0.13 -0.33,0.13 -0.2,0 -0.33,-0.12 -0.13,-0.13 -0.13,-0.35 0,-0.4899998 0.44,-0.8099998 0.44,-0.32 1.07,-0.32 0.82,0 1.37,0.55 0.17,0.17 0.25,0.3899998 0.09,0.22 0.1,0.37 0.01,0.14 0.01,0.42 l 0,2 q 0,0.06 0.02,0.16 0.02,0.09 0.11,0.22 0.09,0.12 0.24,0.12 0.36,0 0.36,-0.64 l 0,-0.56 0.25,0 0,0.56 q 0,0.53 -0.28,0.74 -0.28,0.21 -0.54,0.21 -0.33,0 -0.54,-0.24 -0.21,-0.25 -0.24,-0.58 -0.15,0.38 -0.5,0.63 -0.34,0.24 -0.81,0.24 -0.36,0 -0.7,-0.09 -0.34,-0.09 -0.62,-0.34 -0.28,-0.25 -0.28,-0.63 z m 0.77,-0.01 q 0,0.37 0.26,0.61 0.27,0.24 0.64,0.24 0.42,0 0.79,-0.32 0.38,-0.33 0.38,-0.97 l 0,-1 q -1.11,0.04 -1.59,0.48 -0.48,0.44 -0.48,0.96 z"
       id="path6482"
       inkscape:connector-curvature="0" />
    <path
       d="m -40.890806,13.675 0,-0.31 q 0.53,0 0.65,-0.06 0.13,-0.07 0.13,-0.39 l 0,-5.1999998 q 0,-0.37 -0.13,-0.46 -0.13,-0.1 -0.65,-0.1 l 0,-0.31 1.44,-0.11 0,6.1799998 q 0,0.32 0.12,0.39 0.13,0.06 0.66,0.06 l 0,0.31 q -0.12,0 -0.38,-0.01 -0.25,-0.01 -0.44,-0.01 -0.18,-0.01 -0.29,-0.01 -0.12,0 -1.11,0.03 z"
       id="path6484"
       inkscape:connector-curvature="0" />
    <path
       d="m -34.827525,13.675 0,-0.31 q 0.53,0 0.65,-0.06 0.13,-0.07 0.13,-0.39 l 0,-2.68 q 0,-0.3699998 -0.13,-0.4599998 -0.13,-0.1 -0.65,-0.1 l 0,-0.31 1.39,-0.11 0,1.0999998 q 0.14,-0.4299998 0.44,-0.7599998 0.3,-0.34 0.79,-0.34 0.32,0 0.53,0.18 0.21,0.18 0.21,0.43 0,0.2199998 -0.14,0.3299998 -0.13,0.11 -0.29,0.11 -0.18,0 -0.31,-0.11 -0.12,-0.12 -0.12,-0.3199998 0,-0.12 0.05,-0.21 0.06,-0.1 0.1,-0.13 0.05,-0.04 0.08,-0.05 -0.02,-0.01 -0.11,-0.01 -0.55,0 -0.87,0.5499998 -0.31,0.55 -0.31,1.33 l 0,1.54 q 0,0.29 0.12,0.38 0.12,0.09 0.64,0.09 l 0.21,0 0,0.31 q -0.4,-0.03 -1.27,-0.03 -0.12,0 -0.31,0.01 -0.19,0 -0.44,0.01 -0.25,0.01 -0.39,0.01 z"
       id="path6486"
       inkscape:connector-curvature="0" />
    <path
       d="m -30.261275,13.135 q -0.66,-0.65 -0.66,-1.6 0,-0.95 0.64,-1.6399998 0.65,-0.7 1.58,-0.7 0.91,0 1.56,0.69 0.65,0.6899998 0.65,1.6499998 0,0.94 -0.66,1.6 -0.65,0.65 -1.56,0.65 -0.89,0 -1.55,-0.65 z m 0.17,-1.68 q 0,0.97 0.25,1.41 0.39,0.67 1.14,0.67 0.37,0 0.68,-0.2 0.31,-0.2 0.48,-0.54 0.22,-0.44 0.22,-1.34 0,-0.96 -0.26,-1.39 -0.39,-0.6499998 -1.13,-0.6499998 -0.32,0 -0.64,0.17 -0.31,0.17 -0.5,0.4999998 -0.24,0.44 -0.24,1.37 z"
       id="path6488"
       inkscape:connector-curvature="0" />
    <path
       d="m -26.294712,9.6750002 0,-0.31 q 0.54,0.03 0.93,0.03 0.19,0 1.09,-0.03 l 0,0.31 q -0.59,0 -0.59,0.27 0,0.06 0.05,0.1799998 l 0.95,2.67 0.86,-2.42 q -0.18,-0.4899998 -0.23,-0.5499998 -0.12,-0.15 -0.63,-0.15 l 0,-0.31 q 0.45,0.03 0.89,0.03 0.17,0 1.04,-0.03 l 0,0.31 q -0.59,0 -0.59,0.27 0,0.04 0.05,0.1899998 l 0.99,2.79 0.91,-2.56 q 0.05,-0.13 0.05,-0.21 0,-0.2199998 -0.16,-0.3399998 -0.15,-0.13 -0.42,-0.14 l 0,-0.31 q 0.57,0.03 0.93,0.03 0.4,0 0.73,-0.03 l 0,0.31 q -0.62,0.02 -0.84,0.6399998 l -1.17,3.28 q -0.11,0.18 -0.2,0.19 -0.13,0 -0.2,-0.19 l -1.02,-2.84 -1.01,2.83 q -0.04,0.12 -0.08,0.16 -0.03,0.04 -0.12,0.04 -0.09,0 -0.13,-0.05 -0.04,-0.05 -0.08,-0.17 l -1.26,-3.54 q -0.09,-0.2299998 -0.22,-0.2899998 -0.13,-0.06 -0.52,-0.06 z"
       id="path6490"
       inkscape:connector-curvature="0" />
  </g>
  <g
     id="g6932"
     style="font-style:normal;font-variant:normal;font-weight:bold;font-stretch:normal;font-size:12.5px;line-height:125%;font-family:'CMU Serif';-inkscape-font-specification:'CMU Serif Bold';text-align:center;letter-spacing:0px;word-spacing:0px;text-anchor:middle;fill:#000000;fill-opacity:1;stroke:#ffffff;stroke-width:4;stroke-linecap:butt;stroke-linejoin:miter;stroke-miterlimit:4;stroke-dasharray:none;stroke-opacity:1"
     transform="matrix(1.0000098,0,0,0.99999018,18.052947,21.882021)">
    <path
       inkscape:connector-curvature="0"
       id="path6934"
       style="stroke:#ffffff;stroke-width:4;stroke-linejoin:round;stroke-miterlimit:4;stroke-dasharray:none"
       d="m 26.372498,66.000648 0,-0.5875 1.35,0 0,-7.4 -1.35,0 0,-0.5875 5.425,0 q 1.45,0 2.275,0.625 0.825,0.6125 0.825,1.525 0,0.725 -0.575,1.25 -0.575,0.525 -1.5875,0.7 1.125,0.0875 1.8375,0.675 0.725,0.5875 0.725,1.475 0,0.975 -0.825,1.65 -0.8125,0.675 -2.3,0.675 l -5.8,0 z m 2.9875,-0.5875 2.3,0 q 0.425,0 0.75,-0.1125 0.3375,-0.1125 0.5125,-0.3125 0.1875,-0.2 0.3,-0.3875 0.125,-0.1875 0.1625,-0.4125 0.05,-0.2375 0.0625,-0.3375 0.0125,-0.1 0.0125,-0.1875 0,-0.8375 -0.4125,-1.3625 -0.425,-0.5375 -1.2625,-0.5375 l -2.425,0 0,3.65 z m 0,-4.1 1.95,0 q 0.875,0 1.3375,-0.4875 0.475,-0.4875 0.475,-1.25 0,-0.25 -0.0625,-0.4875 -0.0625,-0.25 -0.2125,-0.5 -0.1375,-0.2625 -0.45,-0.4125 -0.3125,-0.1625 -0.7625,-0.1625 l -2.275,0 0,3.3 z" />
  </g>
  <g
     transform="matrix(1.0000098,0,0,0.99999018,18.052947,16.882438)"
     style="font-style:normal;font-variant:normal;font-weight:bold;font-stretch:normal;font-size:12.5px;line-height:125%;font-family:'CMU Serif';-inkscape-font-specification:'CMU Serif Bold';text-align:center;letter-spacing:0px;word-spacing:0px;text-anchor:middle;fill:#000000;fill-opacity:1;stroke:none;stroke-width:0.30000001;stroke-linecap:butt;stroke-linejoin:miter;stroke-miterlimit:4;stroke-dasharray:none;stroke-opacity:1"
     id="text3591">
    <path
       d="m 26.372498,71.00028 0,-0.5875 1.35,0 0,-7.4 -1.35,0 0,-0.5875 5.425,0 q 1.45,0 2.275,0.625 0.825,0.6125 0.825,1.525 0,0.725 -0.575,1.25 -0.575,0.525 -1.5875,0.7 1.125,0.0875 1.8375,0.675 0.725,0.5875 0.725,1.475 0,0.975 -0.825,1.65 -0.8125,0.675 -2.3,0.675 l -5.8,0 z m 2.9875,-0.5875 2.3,0 q 0.425,0 0.75,-0.1125 0.3375,-0.1125 0.5125,-0.3125 0.1875,-0.2 0.3,-0.3875 0.125,-0.1875 0.1625,-0.4125 0.05,-0.2375 0.0625,-0.3375 0.0125,-0.1 0.0125,-0.1875 0,-0.8375 -0.4125,-1.3625 -0.425,-0.5375 -1.2625,-0.5375 l -2.425,0 0,3.65 z m 0,-4.1 1.95,0 q 0.875,0 1.3375,-0.4875 0.475,-0.4875 0.475,-1.25 0,-0.25 -0.0625,-0.4875 -0.0625,-0.25 -0.2125,-0.5 -0.1375,-0.2625 -0.45,-0.4125 -0.3125,-0.1625 -0.7625,-0.1625 l -2.275,0 0,3.3 z"
       style="stroke:none;stroke-width:0.30000001;stroke-miterlimit:4;stroke-dasharray:none"
       id="path4512"
       inkscape:connector-curvature="0" />
  </g>
  <g
     transform="translate(17.888696,16.882488)"
     id="g6936"
     style="font-style:normal;font-variant:normal;font-weight:bold;font-stretch:normal;font-size:12.5px;line-height:125%;font-family:'CMU Serif';-inkscape-font-specification:'CMU Serif Bold';text-align:center;letter-spacing:0px;word-spacing:0px;text-anchor:middle;fill:#000000;fill-opacity:1;stroke:#ffffff;stroke-width:4;stroke-linecap:butt;stroke-linejoin:miter;stroke-miterlimit:4;stroke-dasharray:none;stroke-opacity:1">
    <path
       inkscape:connector-curvature="0"
       id="path6938"
       style="stroke:#ffffff;stroke-width:4;stroke-miterlimit:4;stroke-dasharray:none;stroke-linejoin:round"
       d="m 27.974512,134.9 q -1.3625,-1.2375 -1.3625,-3.1875 0,-1.95 1.3625,-3.1875 1.3625,-1.2375 3.6625,-1.2375 1.4125,0 2.4625,0.85 l 0.825,-0.7375 q 0.125,-0.1125 0.2375,-0.1125 0.15,0 0.1875,0.075 0.0375,0.0625 0.0375,0.275 l 0,2.6875 q 0,0.25 -0.05,0.3 -0.05,0.05 -0.2875,0.05 -0.2125,0 -0.2625,-0.0375 -0.05,-0.0375 -0.075,-0.225 -0.2,-1.1625 -0.9875,-1.85 -0.7875,-0.6875 -1.825,-0.6875 -1.6,0 -2.55,0.9625 -0.825,0.8625 -0.825,2.875 0,1.875 0.7375,2.775 0.9,1.0625 2.675,1.0625 1.0625,0 1.925,-0.6375 0.875,-0.6375 0.9375,-1.8 0.0125,-0.15 0.075,-0.175 0.0625,-0.0375 0.2125,-0.0375 0.175,0 0.2375,0.05 0.0625,0.0375 0.0625,0.2125 0,1.15 -1.05,2.0625 -1.0375,0.9125 -2.7,0.9125 -2.3,0 -3.6625,-1.2375 z" />
  </g>
  <g
     style="font-style:normal;font-variant:normal;font-weight:bold;font-stretch:normal;font-size:12.5px;line-height:125%;font-family:'CMU Serif';-inkscape-font-specification:'CMU Serif Bold';text-align:center;letter-spacing:0px;word-spacing:0px;text-anchor:middle;fill:#000000;fill-opacity:1;stroke:none;stroke-width:0.30000001;stroke-linecap:butt;stroke-linejoin:miter;stroke-miterlimit:4;stroke-dasharray:none;stroke-opacity:1"
     id="text3595"
     transform="translate(17.888696,16.882488)">
    <path
       d="m 27.974512,134.9 q -1.3625,-1.2375 -1.3625,-3.1875 0,-1.95 1.3625,-3.1875 1.3625,-1.2375 3.6625,-1.2375 1.4125,0 2.4625,0.85 l 0.825,-0.7375 q 0.125,-0.1125 0.2375,-0.1125 0.15,0 0.1875,0.075 0.0375,0.0625 0.0375,0.275 l 0,2.6875 q 0,0.25 -0.05,0.3 -0.05,0.05 -0.2875,0.05 -0.2125,0 -0.2625,-0.0375 -0.05,-0.0375 -0.075,-0.225 -0.2,-1.1625 -0.9875,-1.85 -0.7875,-0.6875 -1.825,-0.6875 -1.6,0 -2.55,0.9625 -0.825,0.8625 -0.825,2.875 0,1.875 0.7375,2.775 0.9,1.0625 2.675,1.0625 1.0625,0 1.925,-0.6375 0.875,-0.6375 0.9375,-1.8 0.0125,-0.15 0.075,-0.175 0.0625,-0.0375 0.2125,-0.0375 0.175,0 0.2375,0.05 0.0625,0.0375 0.0625,0.2125 0,1.15 -1.05,2.0625 -1.0375,0.9125 -2.7,0.9125 -2.3,0 -3.6625,-1.2375 z"
       style="stroke:none;stroke-width:0.30000001;stroke-miterlimit:4;stroke-dasharray:none"
       id="path4509"
       inkscape:connector-curvature="0" />
  </g>
  <g
     transform="translate(18.043618,16.882488)"
     id="g6940"
     style="font-style:normal;font-variant:normal;font-weight:bold;font-stretch:normal;font-size:12.5px;line-height:125%;font-family:'CMU Serif';-inkscape-font-specification:'CMU Serif Bold';text-align:center;letter-spacing:0px;word-spacing:0px;text-anchor:middle;fill:#000000;fill-opacity:1;stroke:#ffffff;stroke-width:4;stroke-linecap:butt;stroke-linejoin:miter;stroke-miterlimit:4;stroke-dasharray:none;stroke-opacity:1">
    <path
       inkscape:connector-curvature="0"
       id="path6942"
       style="stroke:#ffffff;stroke-width:4;stroke-miterlimit:4;stroke-dasharray:none;stroke-linejoin:round"
       d="m 25.982129,191 0,-0.5875 1.35,0 0,-7.4 -1.35,0 0,-0.5875 5.375,0 q 1.9,0 3.125,1.175 1.225,1.175 1.225,3.1875 0,1.9625 -1.225,3.0875 -1.2125,1.125 -3.1125,1.125 l -5.3875,0 z m 3.05,-0.5875 1.825,0 q 1.725,0 2.4625,-1.05 0.3,-0.425 0.425,-1 0.125,-0.575 0.125,-1.5875 0,-1.8625 -0.5375,-2.65 -0.775,-1.1125 -2.475,-1.1125 l -1.825,0 0,7.4 z" />
  </g>
  <g
     style="font-style:normal;font-variant:normal;font-weight:bold;font-stretch:normal;font-size:12.5px;line-height:125%;font-family:'CMU Serif';-inkscape-font-specification:'CMU Serif Bold';text-align:center;letter-spacing:0px;word-spacing:0px;text-anchor:middle;fill:#000000;fill-opacity:1;stroke:none;stroke-width:0.30000001;stroke-linecap:butt;stroke-linejoin:miter;stroke-miterlimit:4;stroke-dasharray:none;stroke-opacity:1"
     id="text3599"
     transform="translate(18.043618,16.882488)">
    <path
       d="m 25.982129,191 0,-0.5875 1.35,0 0,-7.4 -1.35,0 0,-0.5875 5.375,0 q 1.9,0 3.125,1.175 1.225,1.175 1.225,3.1875 0,1.9625 -1.225,3.0875 -1.2125,1.125 -3.1125,1.125 l -5.3875,0 z m 3.05,-0.5875 1.825,0 q 1.725,0 2.4625,-1.05 0.3,-0.425 0.425,-1 0.125,-0.575 0.125,-1.5875 0,-1.8625 -0.5375,-2.65 -0.775,-1.1125 -2.475,-1.1125 l -1.825,0 0,7.4 z"
       style="stroke:none;stroke-width:0.30000001;stroke-miterlimit:4;stroke-dasharray:none"
       id="path4494"
       inkscape:connector-curvature="0" />
  </g>
  <g
     transform="translate(17.932084,11.838828)"
     id="g6944"
     style="font-style:normal;font-variant:normal;font-weight:bold;font-stretch:normal;font-size:12.5px;line-height:125%;font-family:'CMU Serif';-inkscape-font-specification:'CMU Serif Bold';text-align:center;letter-spacing:0px;word-spacing:0px;text-anchor:middle;fill:#000000;fill-opacity:1;stroke:#ffffff;stroke-width:4;stroke-linecap:butt;stroke-linejoin:miter;stroke-miterlimit:4;stroke-dasharray:none;stroke-opacity:1">
    <path
       inkscape:connector-curvature="0"
       id="path6946"
       style="stroke:#ffffff;stroke-width:4;stroke-miterlimit:4;stroke-dasharray:none;stroke-linejoin:round"
       d="m 66.970898,66 0,-0.5875 1.35,0 0,-7.325 -1.35,0 0,-0.5875 7.5625,0 0.3875,3.0125 -0.5875,0 q -0.0625,-0.5 -0.1375,-0.8125 -0.075,-0.325 -0.2375,-0.6625 -0.1625,-0.3375 -0.425,-0.525 -0.25,-0.1875 -0.675,-0.3 -0.425,-0.125 -1.0125,-0.125 l -1.75,0 0,3.3625 0.625,0 q 0.8375,0 1.075,-0.3375 0.2375,-0.3375 0.2375,-1.125 l 0.5875,0 0,3.5125 -0.5875,0 q 0,-0.7875 -0.2375,-1.125 -0.2375,-0.3375 -1.075,-0.3375 l -0.625,0 0,3.375 1.6875,0 0,0.5875 q -0.55,-0.0375 -2.525,-0.0375 -1.8125,0 -2.2875,0.0375 z" />
  </g>
  <g
     style="font-style:normal;font-variant:normal;font-weight:bold;font-stretch:normal;font-size:12.5px;line-height:125%;font-family:'CMU Serif';-inkscape-font-specification:'CMU Serif Bold';text-align:center;letter-spacing:0px;word-spacing:0px;text-anchor:middle;fill:#000000;fill-opacity:1;stroke:none;stroke-width:0.30000001;stroke-linecap:butt;stroke-linejoin:miter;stroke-miterlimit:4;stroke-dasharray:none;stroke-opacity:1"
     id="text3607"
     transform="translate(17.932084,11.838828)">
    <path
       d="m 66.970898,66 0,-0.5875 1.35,0 0,-7.325 -1.35,0 0,-0.5875 7.5625,0 0.3875,3.0125 -0.5875,0 q -0.0625,-0.5 -0.1375,-0.8125 -0.075,-0.325 -0.2375,-0.6625 -0.1625,-0.3375 -0.425,-0.525 -0.25,-0.1875 -0.675,-0.3 -0.425,-0.125 -1.0125,-0.125 l -1.75,0 0,3.3625 0.625,0 q 0.8375,0 1.075,-0.3375 0.2375,-0.3375 0.2375,-1.125 l 0.5875,0 0,3.5125 -0.5875,0 q 0,-0.7875 -0.2375,-1.125 -0.2375,-0.3375 -1.075,-0.3375 l -0.625,0 0,3.375 1.6875,0 0,0.5875 q -0.55,-0.0375 -2.525,-0.0375 -1.8125,0 -2.2875,0.0375 z"
       style="stroke:none;stroke-width:0.30000001;stroke-miterlimit:4;stroke-dasharray:none"
       id="path4515"
       inkscape:connector-curvature="0" />
  </g>
  <g
     transform="translate(17.890102,16.882488)"
     id="g6948"
     style="font-style:normal;font-variant:normal;font-weight:bold;font-stretch:normal;font-size:12.5px;line-height:125%;font-family:'CMU Serif';-inkscape-font-specification:'CMU Serif Bold';text-align:center;letter-spacing:0px;word-spacing:0px;text-anchor:middle;fill:#000000;fill-opacity:1;stroke:#ffffff;stroke-width:4;stroke-linecap:butt;stroke-linejoin:miter;stroke-miterlimit:4;stroke-dasharray:none;stroke-opacity:1">
    <path
       inkscape:connector-curvature="0"
       id="path6950"
       style="stroke:#ffffff;stroke-width:4;stroke-miterlimit:4;stroke-dasharray:none;stroke-linejoin:round"
       d="m 66.148145,131.7125 q 0,-1.9625 1.3625,-3.1875 1.375,-1.2375 3.65,-1.2375 1.3875,0 2.4625,0.85 l 0.825,-0.7375 q 0.125,-0.1125 0.2375,-0.1125 0.15,0 0.1875,0.075 0.0375,0.0625 0.0375,0.275 l 0,2.6875 q 0,0.25 -0.05,0.3 -0.05,0.05 -0.2875,0.05 -0.2125,0 -0.2625,-0.0375 -0.05,-0.0375 -0.075,-0.225 -0.2,-1.1625 -0.9875,-1.85 -0.7875,-0.6875 -1.8125,-0.6875 -0.875,0 -1.575,0.3 -0.7,0.3 -1.0875,0.7875 -0.7125,0.9375 -0.7125,2.7375 0,1.8125 0.7,2.7125 0.4375,0.5625 1.175,0.85 0.75,0.2875 1.5875,0.2875 0.675,0 1.125,-0.2625 0.4875,-0.2875 0.4875,-0.8875 l 0,-1.2625 -1.8,0 0,-0.5875 q 0.675,0.0375 2.5625,0.0375 1.575,0 2.0125,-0.0375 l 0,0.5875 -1,0 0,2.5125 q 0,0.35 -0.175,0.35 -0.0875,0 -0.525,-0.2125 -0.4375,-0.225 -0.7,-0.45 -0.65,0.8 -2.325,0.8 -2.35,0 -3.7,-1.25 -1.3375,-1.25 -1.3375,-3.175 z" />
  </g>
  <g
     style="font-style:normal;font-variant:normal;font-weight:bold;font-stretch:normal;font-size:12.5px;line-height:125%;font-family:'CMU Serif';-inkscape-font-specification:'CMU Serif Bold';text-align:center;letter-spacing:0px;word-spacing:0px;text-anchor:middle;fill:#000000;fill-opacity:1;stroke:none;stroke-width:0.30000001;stroke-linecap:butt;stroke-linejoin:miter;stroke-miterlimit:4;stroke-dasharray:none;stroke-opacity:1"
     id="text3611"
     transform="translate(17.890102,16.882488)">
    <path
       d="m 66.148145,131.7125 q 0,-1.9625 1.3625,-3.1875 1.375,-1.2375 3.65,-1.2375 1.3875,0 2.4625,0.85 l 0.825,-0.7375 q 0.125,-0.1125 0.2375,-0.1125 0.15,0 0.1875,0.075 0.0375,0.0625 0.0375,0.275 l 0,2.6875 q 0,0.25 -0.05,0.3 -0.05,0.05 -0.2875,0.05 -0.2125,0 -0.2625,-0.0375 -0.05,-0.0375 -0.075,-0.225 -0.2,-1.1625 -0.9875,-1.85 -0.7875,-0.6875 -1.8125,-0.6875 -0.875,0 -1.575,0.3 -0.7,0.3 -1.0875,0.7875 -0.7125,0.9375 -0.7125,2.7375 0,1.8125 0.7,2.7125 0.4375,0.5625 1.175,0.85 0.75,0.2875 1.5875,0.2875 0.675,0 1.125,-0.2625 0.4875,-0.2875 0.4875,-0.8875 l 0,-1.2625 -1.8,0 0,-0.5875 q 0.675,0.0375 2.5625,0.0375 1.575,0 2.0125,-0.0375 l 0,0.5875 -1,0 0,2.5125 q 0,0.35 -0.175,0.35 -0.0875,0 -0.525,-0.2125 -0.4375,-0.225 -0.7,-0.45 -0.65,0.8 -2.325,0.8 -2.35,0 -3.7,-1.25 -1.3375,-1.25 -1.3375,-3.175 z"
       style="stroke:none;stroke-width:0.30000001;stroke-miterlimit:4;stroke-dasharray:none"
       id="path4506"
       inkscape:connector-curvature="0" />
  </g>
  <g
     transform="translate(17.896938,16.882488)"
     id="g6952"
     style="font-style:normal;font-variant:normal;font-weight:bold;font-stretch:normal;font-size:12.5px;line-height:125%;font-family:'CMU Serif';-inkscape-font-specification:'CMU Serif Bold';text-align:center;letter-spacing:0px;word-spacing:0px;text-anchor:middle;fill:#000000;fill-opacity:1;stroke:#ffffff;stroke-width:4;stroke-linecap:butt;stroke-linejoin:miter;stroke-miterlimit:4;stroke-dasharray:none;stroke-opacity:1">
    <path
       inkscape:connector-curvature="0"
       id="path6954"
       style="stroke:#ffffff;stroke-width:4;stroke-miterlimit:4;stroke-dasharray:none;stroke-linejoin:round"
       d="m 65.860059,191 0,-0.5875 1.35,0 0,-7.4 -1.35,0 0,-0.5875 q 0.475,0.0375 2.2375,0.0375 1.7625,0 2.2375,-0.0375 l 0,0.5875 -1.35,0 0,3.2375 4.0125,0 0,-3.2375 -1.35,0 0,-0.5875 q 0.475,0.0375 2.2375,0.0375 1.7625,0 2.2375,-0.0375 l 0,0.5875 -1.35,0 0,7.4 1.35,0 0,0.5875 q -0.475,-0.0375 -2.2375,-0.0375 -1.7625,0 -2.2375,0.0375 l 0,-0.5875 1.35,0 0,-3.575 -4.0125,0 0,3.575 1.35,0 0,0.5875 q -0.475,-0.0375 -2.2375,-0.0375 -1.7625,0 -2.2375,0.0375 z" />
  </g>
  <g
     style="font-style:normal;font-variant:normal;font-weight:bold;font-stretch:normal;font-size:12.5px;line-height:125%;font-family:'CMU Serif';-inkscape-font-specification:'CMU Serif Bold';text-align:center;letter-spacing:0px;word-spacing:0px;text-anchor:middle;fill:#000000;fill-opacity:1;stroke:none;stroke-width:0.30000001;stroke-linecap:butt;stroke-linejoin:miter;stroke-miterlimit:4;stroke-dasharray:none;stroke-opacity:1"
     id="text3615"
     transform="translate(17.896938,16.882488)">
    <path
       d="m 65.860059,191 0,-0.5875 1.35,0 0,-7.4 -1.35,0 0,-0.5875 q 0.475,0.0375 2.2375,0.0375 1.7625,0 2.2375,-0.0375 l 0,0.5875 -1.35,0 0,3.2375 4.0125,0 0,-3.2375 -1.35,0 0,-0.5875 q 0.475,0.0375 2.2375,0.0375 1.7625,0 2.2375,-0.0375 l 0,0.5875 -1.35,0 0,7.4 1.35,0 0,0.5875 q -0.475,-0.0375 -2.2375,-0.0375 -1.7625,0 -2.2375,0.0375 l 0,-0.5875 1.35,0 0,-3.575 -4.0125,0 0,3.575 1.35,0 0,0.5875 q -0.475,-0.0375 -2.2375,-0.0375 -1.7625,0 -2.2375,0.0375 z"
       style="stroke:none;stroke-width:0.30000001;stroke-miterlimit:4;stroke-dasharray:none"
       id="path4497"
       inkscape:connector-curvature="0" />
  </g>
  <g
     transform="translate(17.885415,16.882488)"
     id="g6956"
     style="font-style:normal;font-variant:normal;font-weight:bold;font-stretch:normal;font-size:12.5px;line-height:125%;font-family:'CMU Serif';-inkscape-font-specification:'CMU Serif Bold';text-align:center;letter-spacing:0px;word-spacing:0px;text-anchor:middle;fill:#000000;fill-opacity:1;stroke:#ffffff;stroke-width:4;stroke-linecap:butt;stroke-linejoin:miter;stroke-miterlimit:4;stroke-dasharray:none;stroke-opacity:1">
    <path
       inkscape:connector-curvature="0"
       id="path6958"
       style="stroke:#ffffff;stroke-width:4;stroke-miterlimit:4;stroke-dasharray:none;stroke-linejoin:round"
       d="m 93.690332,21 0,-0.5875 1.425,0 0,-7.4 -1.425,0 0,-0.5875 q 0.5125,0.0375 2.3125,0.0375 1.8,0 2.3125,-0.0375 l 0,0.5875 -1.425,0 0,7.4 1.425,0 0,0.5875 q -0.5125,-0.0375 -2.3125,-0.0375 -1.8,0 -2.3125,0.0375 z" />
  </g>
  <g
     style="font-style:normal;font-variant:normal;font-weight:bold;font-stretch:normal;font-size:12.5px;line-height:125%;font-family:'CMU Serif';-inkscape-font-specification:'CMU Serif Bold';text-align:center;letter-spacing:0px;word-spacing:0px;text-anchor:middle;fill:#000000;fill-opacity:1;stroke:none;stroke-width:0.30000001;stroke-linecap:butt;stroke-linejoin:miter;stroke-miterlimit:4;stroke-dasharray:none;stroke-opacity:1"
     id="text3619"
     transform="translate(17.885415,16.882488)">
    <path
       d="m 93.690332,21 0,-0.5875 1.425,0 0,-7.4 -1.425,0 0,-0.5875 q 0.5125,0.0375 2.3125,0.0375 1.8,0 2.3125,-0.0375 l 0,0.5875 -1.425,0 0,7.4 1.425,0 0,0.5875 q -0.5125,-0.0375 -2.3125,-0.0375 -1.8,0 -2.3125,0.0375 z"
       style="stroke:none;stroke-width:0.30000001;stroke-miterlimit:4;stroke-dasharray:none"
       id="path4521"
       inkscape:connector-curvature="0" />
  </g>
  <g
     id="g4712"
     transform="translate(17.888247,17.594988)">
    <path
       inkscape:connector-curvature="0"
       id="path4686"
       d="m 11,1 0,200.00001"
       style="fill:none;fill-rule:evenodd;stroke:#000000;stroke-width:1px;stroke-linecap:butt;stroke-linejoin:miter;stroke-opacity:1"
       sodipodi:nodetypes="cc" />
    <path
       inkscape:connector-curvature="0"
       id="path4690"
       d="m 51,1 0,200.00001"
       style="fill:none;fill-rule:evenodd;stroke:#000000;stroke-width:1px;stroke-linecap:butt;stroke-linejoin:miter;stroke-opacity:1"
       sodipodi:nodetypes="cc" />
    <path
       inkscape:connector-curvature="0"
       id="path4692"
       d="m 91,1 0,200.00001"
       style="fill:none;fill-rule:evenodd;stroke:#000000;stroke-width:1px;stroke-linecap:butt;stroke-linejoin:miter;stroke-opacity:1"
       sodipodi:nodetypes="cc" />
    <path
       inkscape:connector-curvature="0"
       id="path4702"
       d="m 1,11 120,0"
       style="fill:none;fill-rule:evenodd;stroke:#000000;stroke-width:1px;stroke-linecap:butt;stroke-linejoin:miter;stroke-opacity:1" />
    <path
       inkscape:connector-curvature="0"
       id="path4704"
       d="m 121,1 0,200.00001"
       style="fill:none;fill-rule:evenodd;stroke:#000000;stroke-width:1px;stroke-linecap:square;stroke-linejoin:round;stroke-opacity:1"
       sodipodi:nodetypes="cc" />
    <path
       inkscape:connector-curvature="0"
       id="path4706"
       d="M 1,1 121,1"
       style="fill:none;fill-rule:evenodd;stroke:#000000;stroke-width:1px;stroke-linecap:square;stroke-linejoin:round;stroke-opacity:1" />
    <path
       inkscape:connector-curvature="0"
       id="path4708"
       d="M 1,201.00001 1,1"
       style="fill:none;fill-rule:evenodd;stroke:#000000;stroke-width:1px;stroke-linecap:square;stroke-linejoin:round;stroke-opacity:1"
       sodipodi:nodetypes="cc" />
    <path
       inkscape:connector-curvature="0"
       id="path4710"
       d="m 121,201.00001 -120,0"
       style="fill:none;fill-rule:evenodd;stroke:#000000;stroke-width:1px;stroke-linecap:square;stroke-linejoin:round;stroke-opacity:1"
       sodipodi:nodetypes="cc" />
  </g>
  <g
     transform="translate(17.946937,16.882668)"
     id="g6964"
     style="font-style:normal;font-variant:normal;font-weight:bold;font-stretch:normal;font-size:12.5px;line-height:125%;font-family:'CMU Serif';-inkscape-font-specification:'CMU Serif Bold';text-align:center;letter-spacing:0px;word-spacing:0px;text-anchor:middle;fill:#000000;fill-opacity:1;stroke:#ffffff;stroke-width:4;stroke-linecap:butt;stroke-linejoin:miter;stroke-miterlimit:4;stroke-dasharray:none;stroke-opacity:1">
    <path
       inkscape:connector-curvature="0"
       id="path6966"
       style="stroke:#ffffff;stroke-width:4;stroke-miterlimit:4;stroke-dasharray:none;stroke-linejoin:round"
       d="m 100.86006,136 0,-0.5875 1.35,0 0,-7.4 -1.35,0 0,-0.5875 q 0.475,0.0375 2.2375,0.0375 1.7625,0 2.2375,-0.0375 l 0,0.5875 -1.35,0 0,4 4.625,-3.8625 q -0.05,-0.0125 -0.05,-0.025 0,-0.025 -0.1125,-0.05 -0.3125,-0.0625 -0.725,-0.0625 l 0,-0.5875 q 0.45,0.0375 1.825,0.0375 0.775,0 1.275,-0.0375 l 0,0.5875 -0.2125,0 q -0.9,0 -1.175,0.225 l -3,2.5 3.375,4.425 q 0.125,0.1625 0.25,0.2125 0.125,0.0375 0.6,0.0375 l 0.3625,0 0,0.5875 q -0.4625,-0.0375 -1.825,-0.0375 -1.6875,0 -2.2,0.0375 l 0,-0.5875 q 0.6875,0 0.9125,-0.1 -0.0625,-0.1375 -0.1,-0.175 l -2.575,-3.3875 -1.25,1.0375 0,2.625 1.35,0 0,0.5875 q -0.475,-0.0375 -2.2375,-0.0375 -1.7625,0 -2.2375,0.0375 z" />
  </g>
  <g
     transform="translate(18.161687,16.820438)"
     id="g6960"
     style="font-style:normal;font-variant:normal;font-weight:bold;font-stretch:normal;font-size:12.5px;line-height:125%;font-family:'CMU Serif';-inkscape-font-specification:'CMU Serif Bold';text-align:center;letter-spacing:0px;word-spacing:0px;text-anchor:middle;fill:#000000;fill-opacity:1;stroke:#ffffff;stroke-width:4;stroke-linecap:butt;stroke-linejoin:miter;stroke-miterlimit:4;stroke-dasharray:none;stroke-opacity:1">
    <path
       inkscape:connector-curvature="0"
       id="path6962"
       style="stroke:#ffffff;stroke-width:4;stroke-miterlimit:4;stroke-dasharray:none;stroke-linecap:round;stroke-linejoin:round"
       d="m 102.57656,64.575 q 0,-0.4625 0.2875,-0.7125 0.2875,-0.25 0.675,-0.25 0.3625,0 0.65,0.25 0.3,0.25 0.3,0.7125 0,0.3 -0.15,0.525 -0.1375,0.225 -0.275,0.3 l -0.15,0.075 q 0.475,0.2125 1.0125,0.2125 0.425,0 0.7,-0.1875 0.2875,-0.2 0.3875,-0.5125 0.1,-0.325 0.125,-0.4875 0.025,-0.175 0.025,-0.3625 l 0,-6.125 -1.7625,0 0,-0.5875 q 0.6,0.0375 2.4875,0.0375 1.55,0 1.9875,-0.0375 l 0,0.5875 -1.0125,0 0,6.1125 q 0,0.95 -0.8,1.4875 -0.7875,0.525 -2.075,0.525 -1.075,0 -1.75,-0.425 -0.6625,-0.425 -0.6625,-1.1375 z" />
  </g>
  <g
     style="font-style:normal;font-variant:normal;font-weight:bold;font-stretch:normal;font-size:12.5px;line-height:125%;font-family:'CMU Serif';-inkscape-font-specification:'CMU Serif Bold';text-align:center;letter-spacing:0px;word-spacing:0px;text-anchor:middle;fill:#000000;fill-opacity:1;stroke:none;stroke-width:0.30000001;stroke-linecap:butt;stroke-linejoin:miter;stroke-miterlimit:4;stroke-dasharray:none;stroke-opacity:1"
     id="text3623"
     transform="translate(18.161687,16.820438)">
    <path
       d="m 102.57656,64.575 q 0,-0.4625 0.2875,-0.7125 0.2875,-0.25 0.675,-0.25 0.3625,0 0.65,0.25 0.3,0.25 0.3,0.7125 0,0.3 -0.15,0.525 -0.1375,0.225 -0.275,0.3 l -0.15,0.075 q 0.475,0.2125 1.0125,0.2125 0.425,0 0.7,-0.1875 0.2875,-0.2 0.3875,-0.5125 0.1,-0.325 0.125,-0.4875 0.025,-0.175 0.025,-0.3625 l 0,-6.125 -1.7625,0 0,-0.5875 q 0.6,0.0375 2.4875,0.0375 1.55,0 1.9875,-0.0375 l 0,0.5875 -1.0125,0 0,6.1125 q 0,0.95 -0.8,1.4875 -0.7875,0.525 -2.075,0.525 -1.075,0 -1.75,-0.425 -0.6625,-0.425 -0.6625,-1.1375 z"
       style="stroke:none;stroke-width:0.30000001;stroke-miterlimit:4;stroke-dasharray:none"
       id="path4518"
       inkscape:connector-curvature="0" />
  </g>
  <g
     style="font-style:normal;font-variant:normal;font-weight:bold;font-stretch:normal;font-size:12.5px;line-height:125%;font-family:'CMU Serif';-inkscape-font-specification:'CMU Serif Bold';text-align:center;letter-spacing:0px;word-spacing:0px;text-anchor:middle;fill:#000000;fill-opacity:1;stroke:none;stroke-width:0.30000001;stroke-linecap:butt;stroke-linejoin:miter;stroke-miterlimit:4;stroke-dasharray:none;stroke-opacity:1"
     id="text3627"
     transform="translate(17.946937,16.882668)">
    <path
       d="m 100.86006,136 0,-0.5875 1.35,0 0,-7.4 -1.35,0 0,-0.5875 q 0.475,0.0375 2.2375,0.0375 1.7625,0 2.2375,-0.0375 l 0,0.5875 -1.35,0 0,4 4.625,-3.8625 q -0.05,-0.0125 -0.05,-0.025 0,-0.025 -0.1125,-0.05 -0.3125,-0.0625 -0.725,-0.0625 l 0,-0.5875 q 0.45,0.0375 1.825,0.0375 0.775,0 1.275,-0.0375 l 0,0.5875 -0.2125,0 q -0.9,0 -1.175,0.225 l -3,2.5 3.375,4.425 q 0.125,0.1625 0.25,0.2125 0.125,0.0375 0.6,0.0375 l 0.3625,0 0,0.5875 q -0.4625,-0.0375 -1.825,-0.0375 -1.6875,0 -2.2,0.0375 l 0,-0.5875 q 0.6875,0 0.9125,-0.1 -0.0625,-0.1375 -0.1,-0.175 l -2.575,-3.3875 -1.25,1.0375 0,2.625 1.35,0 0,0.5875 q -0.475,-0.0375 -2.2375,-0.0375 -1.7625,0 -2.2375,0.0375 z"
       style="stroke:none;stroke-width:0.30000001;stroke-miterlimit:4;stroke-dasharray:none"
       id="path4503"
       inkscape:connector-curvature="0" />
  </g>
  <g
     transform="translate(17.938073,16.888638)"
     id="g6968"
     style="font-style:normal;font-variant:normal;font-weight:bold;font-stretch:normal;font-size:12.5px;line-height:125%;font-family:'CMU Serif';-inkscape-font-specification:'CMU Serif Bold';text-align:center;letter-spacing:0px;word-spacing:0px;text-anchor:middle;fill:#000000;fill-opacity:1;stroke:#ffffff;stroke-width:4;stroke-linecap:butt;stroke-linejoin:miter;stroke-miterlimit:4;stroke-dasharray:none;stroke-opacity:1">
    <path
       inkscape:connector-curvature="0"
       id="path6970"
       style="stroke:#ffffff;stroke-width:4;stroke-miterlimit:4;stroke-dasharray:none;stroke-linejoin:round"
       d="m 102.16621,191 0,-0.5875 1.35,0 0,-7.4 -1.35,0 0,-0.5875 q 0.475,0.0375 2.2875,0.0375 1.975,0 2.525,-0.0375 l 0,0.5875 -1.6875,0 0,7.4 1.2875,0 q 0.4625,0 0.8375,-0.1125 0.3875,-0.125 0.625,-0.2875 0.25,-0.175 0.45,-0.45 0.2,-0.2875 0.3,-0.5 0.1,-0.2125 0.175,-0.55 0.0875,-0.3375 0.1,-0.5 0.025,-0.1625 0.0625,-0.4375 l 0.5875,0 -0.3875,3.425 -7.1625,0 z" />
  </g>
  <g
     style="font-style:normal;font-variant:normal;font-weight:bold;font-stretch:normal;font-size:12.5px;line-height:125%;font-family:'CMU Serif';-inkscape-font-specification:'CMU Serif Bold';text-align:center;letter-spacing:0px;word-spacing:0px;text-anchor:middle;fill:#000000;fill-opacity:1;stroke:none;stroke-width:0.30000001;stroke-linecap:butt;stroke-linejoin:miter;stroke-miterlimit:4;stroke-dasharray:none;stroke-opacity:1"
     id="text3631"
     transform="translate(17.938073,16.888638)">
    <path
       d="m 102.16621,191 0,-0.5875 1.35,0 0,-7.4 -1.35,0 0,-0.5875 q 0.475,0.0375 2.2875,0.0375 1.975,0 2.525,-0.0375 l 0,0.5875 -1.6875,0 0,7.4 1.2875,0 q 0.4625,0 0.8375,-0.1125 0.3875,-0.125 0.625,-0.2875 0.25,-0.175 0.45,-0.45 0.2,-0.2875 0.3,-0.5 0.1,-0.2125 0.175,-0.55 0.0875,-0.3375 0.1,-0.5 0.025,-0.1625 0.0625,-0.4375 l 0.5875,0 -0.3875,3.425 -7.1625,0 z"
       style="stroke:none;stroke-width:0.30000001;stroke-miterlimit:4;stroke-dasharray:none"
       id="path4500"
       inkscape:connector-curvature="0" />
  </g>
  <g
     transform="translate(17.895376,16.950778)"
     id="g6972"
     style="font-style:normal;font-variant:normal;font-weight:bold;font-stretch:normal;font-size:12.5px;line-height:125%;font-family:'CMU Serif';-inkscape-font-specification:'CMU Serif Bold';text-align:center;letter-spacing:0px;word-spacing:0px;text-anchor:middle;fill:#000000;fill-opacity:1;stroke:#ffffff;stroke-width:4;stroke-linecap:butt;stroke-linejoin:miter;stroke-miterlimit:4;stroke-dasharray:none;stroke-opacity:1">
    <path
       inkscape:connector-curvature="0"
       id="path6974"
       style="stroke:#ffffff;stroke-width:4;stroke-miterlimit:4;stroke-dasharray:none;stroke-linejoin:round"
       d="m 16.080371,26 0,-0.5875 0.2625,0 q 0.65,0 0.825,-0.0625 0.175,-0.0625 0.2375,-0.225 l 3.1,-7.525 q 0.05,-0.1375 0.0875,-0.1875 0.0375,-0.0625 0.125,-0.1 0.1,-0.0375 0.275,-0.0375 0.1375,0 0.2,0.0125 0.0625,0.0125 0.15,0.0875 0.0875,0.075 0.15,0.225 l 3.2,7.8125 1.2125,0 0,0.5875 q -0.4375,-0.0375 -2.0375,-0.0375 -1.725,0 -2.2,0.0375 l 0,-0.5875 1.1875,0 -0.75,-1.825 -3.35,0 -0.625,1.5125 q -0.05,0.05 -0.05,0.15 0,0.1625 1.1125,0.1625 l 0,0.5875 q -0.4625,-0.0375 -1.65,-0.0375 -0.0375,0 -1.4625,0.0375 z m 2.925,-3 2.85,0 -1.425,-3.475 -1.425,3.475 z" />
  </g>
  <g
     style="font-style:normal;font-variant:normal;font-weight:bold;font-stretch:normal;font-size:12.5px;line-height:125%;font-family:'CMU Serif';-inkscape-font-specification:'CMU Serif Bold';text-align:center;letter-spacing:0px;word-spacing:0px;text-anchor:middle;fill:#000000;fill-opacity:1;stroke:none;stroke-width:0.30000001;stroke-linecap:butt;stroke-linejoin:miter;stroke-miterlimit:4;stroke-dasharray:none;stroke-opacity:1"
     id="text3635"
     transform="translate(17.895376,16.950778)">
    <path
       d="m 16.080371,26 0,-0.5875 0.2625,0 q 0.65,0 0.825,-0.0625 0.175,-0.0625 0.2375,-0.225 l 3.1,-7.525 q 0.05,-0.1375 0.0875,-0.1875 0.0375,-0.0625 0.125,-0.1 0.1,-0.0375 0.275,-0.0375 0.1375,0 0.2,0.0125 0.0625,0.0125 0.15,0.0875 0.0875,0.075 0.15,0.225 l 3.2,7.8125 1.2125,0 0,0.5875 q -0.4375,-0.0375 -2.0375,-0.0375 -1.725,0 -2.2,0.0375 l 0,-0.5875 1.1875,0 -0.75,-1.825 -3.35,0 -0.625,1.5125 q -0.05,0.05 -0.05,0.15 0,0.1625 1.1125,0.1625 l 0,0.5875 q -0.4625,-0.0375 -1.65,-0.0375 -0.0375,0 -1.4625,0.0375 z m 2.925,-3 2.85,0 -1.425,-3.475 -1.425,3.475 z"
       style="stroke:none;stroke-width:0.30000001;stroke-miterlimit:4;stroke-dasharray:none"
       id="path4527"
       inkscape:connector-curvature="0" />
  </g>
  <path
     inkscape:connector-curvature="0"
     id="path3643"
     d="m 68.888247,28.594988 -10,0 0,10 -10,0 0,10 -10,0 0,10 -10,0 0,70.000002 10,0 0,-10 10,0 0,-10 10,0 0,-10.000002 10,0 z"
     style="fill:none;fill-rule:evenodd;stroke:#000000;stroke-width:0.5;stroke-linecap:butt;stroke-linejoin:miter;stroke-miterlimit:4;stroke-dasharray:none;stroke-opacity:1" />
  <use
     x="40"
     y="0"
     xlink:href="#path3643"
     id="use3645"
     width="100%"
     height="100%" />
  <path
     style="fill:none;fill-rule:evenodd;stroke:#000000;stroke-width:0.5;stroke-linecap:butt;stroke-linejoin:miter;stroke-miterlimit:4;stroke-dasharray:none;stroke-opacity:1"
     d="m 138.88825,28.594988 -10,0 0,10 -10,0 0,10 -10,0 0,70.000002 10,0 0,-10 10,0 0,-10.000002 10,0 z"
     id="path3647"
     inkscape:connector-curvature="0" />
  <path
     inkscape:connector-curvature="0"
     id="path4449"
     d="m 28.888247,218.595 0,-20.00001 10,0 0,-10 10,0 0,-10 10,0 0,-10 10,0 0,50.00001 z"
     style="fill:none;fill-rule:evenodd;stroke:#000000;stroke-width:0.5;stroke-linecap:butt;stroke-linejoin:miter;stroke-miterlimit:4;stroke-dasharray:none;stroke-opacity:1"
     sodipodi:nodetypes="ccccccccccc" />
  <path
     style="fill:none;fill-rule:evenodd;stroke:#000000;stroke-width:0.5;stroke-linecap:butt;stroke-linejoin:miter;stroke-miterlimit:4;stroke-dasharray:none;stroke-opacity:1"
     d="m 108.88825,218.595 0,-30.00001 10,0 0,-10 10,0 0,-10 10,0 0,50.00001 z"
     id="path4451"
     inkscape:connector-curvature="0"
     sodipodi:nodetypes="ccccccccc" />
  <use
     x="40"
     y="0"
     xlink:href="#path4449"
     id="use4455"
     width="100%"
     height="100%" />
  <path
     inkscape:connector-curvature="0"
     id="use4545"
     d="m 70.888247,16.594988 c 0,-5 18,-5 18,-5 0,0 18.000003,0 18.000003,5"
     style="fill:none;fill-rule:evenodd;stroke:#000000;stroke-width:0.5;stroke-linecap:butt;stroke-linejoin:miter;stroke-miterlimit:4;stroke-dasharray:none;stroke-opacity:1" />
  <path
     inkscape:connector-curvature="0"
     id="path4547"
     d="m 110.88825,16.594988 c 0,-5 13,-5 13,-5 0,0 13,0 13,5"
     style="fill:none;fill-rule:evenodd;stroke:#000000;stroke-width:0.5;stroke-linecap:butt;stroke-linejoin:miter;stroke-miterlimit:4;stroke-dasharray:none;stroke-opacity:1" />
  <path
     style="fill:none;fill-rule:evenodd;stroke:#000000;stroke-width:0.5;stroke-linecap:square;stroke-linejoin:miter;stroke-miterlimit:4;stroke-dasharray:none;stroke-opacity:1"
     d="m 88.888247,3.5949998 0,7.9999882"
     id="path4549"
     inkscape:connector-curvature="0"
     sodipodi:nodetypes="cc" />
  <path
     style="fill:none;fill-rule:evenodd;stroke:#000000;stroke-width:0.5;stroke-linecap:butt;stroke-linejoin:miter;stroke-miterlimit:4;stroke-dasharray:none;stroke-opacity:1"
     d="m 123.88825,11.594988 0,-7.9999882 -3.00025,0"
     id="path4551"
     inkscape:connector-curvature="0"
     sodipodi:nodetypes="ccc" />
  <path
     style="fill:none;fill-rule:evenodd;stroke:#000000;stroke-width:0.5;stroke-linecap:butt;stroke-linejoin:miter;stroke-miterlimit:4;stroke-dasharray:none;stroke-opacity:1;marker-end:url(#Arrow2Mend)"
     d="m 23.888247,8.5949998 0,7.9999882"
     id="path4583"
     inkscape:connector-curvature="0"
     sodipodi:nodetypes="cc" />
  <path
     style="fill:none;fill-rule:evenodd;stroke:#000000;stroke-width:1;stroke-linecap:round;stroke-linejoin:round;stroke-miterlimit:4;stroke-dasharray:1, 2;stroke-dashoffset:0;stroke-opacity:1;marker-start:url(#marker5739);marker-mid:url(#marker5807);marker-end:url(#marker5911)"
     d="m 63.888247,23.594988 0,10 0,10 -10,0 0,10 -10,0 0,10 -10,0 0,9.999997 -10,0 0,10.000003 0,10 0,10.000002 0,10 0,10"
     id="path4585"
     inkscape:connector-curvature="0" />
  <path
     style="fill:none;fill-rule:evenodd;stroke:#000000;stroke-width:1;stroke-linecap:round;stroke-linejoin:round;stroke-miterlimit:4;stroke-dasharray:1, 2;stroke-dashoffset:0;stroke-opacity:1;marker-start:url(#DotM);marker-mid:url(#marker5767);marker-end:url(#marker5853)"
     d="m 103.88825,23.594988 0,10 0,10 0,10 0,10 0,9.999997 0,10.000003 -10.000003,0 0,10 -10,0 0,10.000002 -10,0 0,10 -10,0 0,10"
     id="path4587"
     inkscape:connector-curvature="0" />
  <path
     d="m 74.599606,42.844988 0,-0.5875 1.35,0 0,-7.325 -1.35,0 0,-0.5875 7.7625,0 0.3875,3.0125 -0.5875,0 q -0.0625,-0.5125 -0.15,-0.8375 -0.075,-0.3375 -0.25,-0.6625 -0.175,-0.325 -0.4375,-0.5125 -0.2625,-0.1875 -0.6875,-0.3 -0.425,-0.1125 -1.0125,-0.1125 l -1.9,0 0,3.2125 0.6875,0 q 0.8375,0 1.075,-0.3375 0.25,-0.3375 0.25,-1.125 l 0.5875,0 0,3.5125 -0.5875,0 q 0,-0.7875 -0.25,-1.125 -0.2375,-0.3375 -1.075,-0.3375 l -0.6875,0 0,3.525 1.9,0 q 0.5625,0 0.9875,-0.075 0.4375,-0.0875 0.7375,-0.275 0.3,-0.2 0.5,-0.4125 0.2125,-0.225 0.35,-0.575 0.1375,-0.3625 0.2125,-0.6875 0.075,-0.325 0.15,-0.8125 l 0.5875,0 -0.575,3.425 -7.975,0 z"
     style="font-style:normal;font-variant:normal;font-weight:bold;font-stretch:normal;font-size:medium;line-height:125%;font-family:'CMU Serif';-inkscape-font-specification:'CMU Serif Bold';text-align:center;letter-spacing:0px;word-spacing:0px;text-anchor:middle;fill:#000000;fill-opacity:1;stroke:#ffffff;stroke-width:4;stroke-linecap:butt;stroke-linejoin:miter;stroke-miterlimit:4;stroke-dasharray:none;stroke-opacity:1;marker-end:"
     id="path6976"
     inkscape:connector-curvature="0" />
  <path
     inkscape:connector-curvature="0"
     id="path4524"
     style="font-style:normal;font-variant:normal;font-weight:bold;font-stretch:normal;font-size:medium;line-height:125%;font-family:'CMU Serif';-inkscape-font-specification:'CMU Serif Bold';text-align:center;letter-spacing:0px;word-spacing:0px;text-anchor:middle;fill:#000000;fill-opacity:1;stroke:none;stroke-width:0.30000001;stroke-linecap:butt;stroke-linejoin:round;stroke-miterlimit:4;stroke-dasharray:none;stroke-opacity:1"
     d="m 74.599606,42.844988 0,-0.5875 1.35,0 0,-7.325 -1.35,0 0,-0.5875 7.7625,0 0.3875,3.0125 -0.5875,0 q -0.0625,-0.5125 -0.15,-0.8375 -0.075,-0.3375 -0.25,-0.6625 -0.175,-0.325 -0.4375,-0.5125 -0.2625,-0.1875 -0.6875,-0.3 -0.425,-0.1125 -1.0125,-0.1125 l -1.9,0 0,3.2125 0.6875,0 q 0.8375,0 1.075,-0.3375 0.25,-0.3375 0.25,-1.125 l 0.5875,0 0,3.5125 -0.5875,0 q 0,-0.7875 -0.25,-1.125 -0.2375,-0.3375 -1.075,-0.3375 l -0.6875,0 0,3.525 1.9,0 q 0.5625,0 0.9875,-0.075 0.4375,-0.0875 0.7375,-0.275 0.3,-0.2 0.5,-0.4125 0.2125,-0.225 0.35,-0.575 0.1375,-0.3625 0.2125,-0.6875 0.075,-0.325 0.15,-0.8125 l 0.5875,0 -0.575,3.425 -7.975,0 z" />
  <path
     style="color:#000000;font-style:normal;font-variant:normal;font-weight:normal;font-stretch:normal;font-size:medium;line-height:normal;font-family:sans-serif;text-indent:0;text-align:start;text-decoration:none;text-decoration-line:none;text-decoration-style:solid;text-decoration-color:#000000;letter-spacing:normal;word-spacing:normal;text-transform:none;direction:ltr;block-progression:tb;writing-mode:lr-tb;baseline-shift:baseline;text-anchor:start;white-space:normal;clip-rule:nonzero;display:inline;overflow:visible;visibility:visible;opacity:1;isolation:auto;mix-blend-mode:normal;color-interpolation:sRGB;color-interpolation-filters:linearRGB;solid-color:#000000;solid-opacity:1;fill:#ffffff;fill-opacity:1;fill-rule:evenodd;stroke:#000000;stroke-width:0.2;stroke-linecap:butt;stroke-linejoin:miter;stroke-miterlimit:4;stroke-dasharray:none;stroke-dashoffset:0;stroke-opacity:1;color-rendering:auto;image-rendering:auto;shape-rendering:auto;text-rendering:auto;enable-background:accumulate"
     d="m 56.468647,45.511378 a 0.6626391,0.6626391 0 0 0 -0.46263,1.1388 l 3.48432,3.48433 -0.6713,0.67131 3.11228,0.83145 -0.0744,-0.27661 -0.75704,-2.83567 -0.67131,0.67131 -3.48433,-3.48434 a 0.6626391,0.6626391 0 0 0 -0.47558,-0.20058 z"
     id="path4594-2"
     inkscape:connector-curvature="0"
     sodipodi:nodetypes="cccccccc" />
  <use
     x="0"
     y="0"
     xlink:href="#path4594-2"
     id="use6350"
     transform="translate(-9.9999992,9.9999998)"
     width="100%"
     height="100%" />
  <use
     height="100%"
     width="100%"
     transform="translate(-20,20)"
     id="use6354"
     xlink:href="#path4594-2"
     y="0"
     x="0" />
  <use
     x="0"
     y="0"
     xlink:href="#path4594-2"
     id="use6356"
     transform="translate(-30,30)"
     width="100%"
     height="100%" />
  <use
     height="100%"
     width="100%"
     transform="translate(40,40)"
     id="use6358"
     xlink:href="#path4594-2"
     y="0"
     x="0" />
  <use
     x="0"
     y="0"
     xlink:href="#path4594-2"
     id="use6360"
     transform="translate(30,50)"
     width="100%"
     height="100%" />
  <use
     height="100%"
     width="100%"
     transform="translate(20,60)"
     id="use6362"
     xlink:href="#path4594-2"
     y="0"
     x="0" />
  <use
     x="0"
     y="0"
     xlink:href="#path4594-2"
     id="use6364"
     transform="translate(10,70)"
     width="100%"
     height="100%" />
  <g
     style="font-style:normal;font-variant:normal;font-weight:500;font-stretch:normal;font-size:10px;line-height:125%;font-family:'CMU Serif';-inkscape-font-specification:'CMU Serif Medium';text-align:center;letter-spacing:0px;word-spacing:0px;text-anchor:middle;fill:#000000;fill-opacity:1;stroke:none;stroke-width:1px;stroke-linecap:butt;stroke-linejoin:miter;stroke-opacity:1"
     id="text3598-3"
     transform="translate(-1.5753901,-24.933768)">
    <path
       d="m 1.7253901,151.94376 0,-0.31 0.24,0 q 0.54,0 0.66,-0.09 0.13,-0.09 0.13,-0.38 l 0,-5.27 q 0,-0.29 -0.13,-0.38 -0.12,-0.09 -0.66,-0.09 l -0.24,0 0,-0.31 3.66,0 q 1.28,0 2.17,1.02 0.89,1.02 0.89,2.45 0,1.4 -0.9,2.38 -0.89,0.98 -2.16,0.98 l -3.66,0 z m 1.89,-0.71 q 0,0.26 0.07,0.33 0.08,0.07 0.42,0.07 l 1.01,0 q 0.66,0 1.1,-0.27 0.45,-0.27 0.68,-0.58 0.55,-0.75 0.55,-2.2 0,-1.52 -0.52,-2.23 -0.67,-0.93 -1.82,-0.93 l -1,0 q -0.34,0 -0.42,0.07 -0.07,0.07 -0.07,0.33 l 0,5.41 z"
       id="path6467"
       inkscape:connector-curvature="0" />
    <path
       d="m 9.9021088,146.23376 0,-0.31 q 1.2000002,0 1.8200002,-0.64 0.17,0 0.2,0.04 0.03,0.04 0.03,0.22 l 0,5.61 q 0,0.3 0.14,0.39 0.15,0.09 0.79,0.09 l 0.32,0 0,0.31 q -0.35,-0.03 -1.62,-0.03 -1.27,0 -1.6200002,0.03 l 0,-0.31 0.3200002,0 q 0.63,0 0.78,-0.09 0.15,-0.09 0.15,-0.39 l 0,-5.18 q -0.52,0.26 -1.3100002,0.26 z"
       id="path6469"
       inkscape:connector-curvature="0" />
  </g>
  <path
     style="fill:none;fill-rule:evenodd;stroke:#000000;stroke-width:0.5;stroke-linecap:butt;stroke-linejoin:miter;stroke-miterlimit:4;stroke-dasharray:none;stroke-opacity:1;marker-end:url(#marker6862)"
     d="m 10.488,23.594998 5.400247,-10e-6"
     id="path6406"
     inkscape:connector-curvature="0"
     sodipodi:nodetypes="cc" />
  <path
     style="fill:none;fill-rule:evenodd;stroke:#000000;stroke-width:0.5;stroke-linecap:butt;stroke-linejoin:miter;stroke-miterlimit:4;stroke-dasharray:none;stroke-opacity:1"
     d="m 12.888,123.59499 8.000247,0"
     id="path6408"
     inkscape:connector-curvature="0"
     sodipodi:nodetypes="cc" />
  <g
     style="font-style:normal;font-variant:normal;font-weight:500;font-stretch:normal;font-size:10px;line-height:125%;font-family:'CMU Serif';-inkscape-font-specification:'CMU Serif Medium';text-align:center;letter-spacing:0px;word-spacing:0px;text-anchor:middle;fill:#000000;fill-opacity:1;stroke:none;stroke-width:1px;stroke-linecap:butt;stroke-linejoin:miter;stroke-opacity:1"
     id="text6410"
     transform="translate(-1.7253901,-24.934008)">
    <path
       d="m 1.7253901,161.944 0,-0.31 0.24,0 q 0.54,0 0.66,-0.09 0.13,-0.09 0.13,-0.38 l 0,-5.27 q 0,-0.29 -0.13,-0.38 -0.12,-0.09 -0.66,-0.09 l -0.24,0 0,-0.31 3.66,0 q 1.28,0 2.17,1.02 0.89,1.02 0.89,2.45 0,1.4 -0.9,2.38 -0.89,0.98 -2.16,0.98 l -3.66,0 z m 1.89,-0.71 q 0,0.26 0.07,0.33 0.08,0.07 0.42,0.07 l 1.01,0 q 0.66,0 1.1,-0.27 0.45,-0.27 0.68,-0.58 0.55,-0.75 0.55,-2.2 0,-1.52 -0.52,-2.23 -0.67,-0.93 -1.82,-0.93 l -1,0 q -0.34,0 -0.42,0.07 -0.07,0.07 -0.07,0.33 l 0,5.41 z"
       id="path6462"
       inkscape:connector-curvature="0" />
    <path
       d="m 9.5121088,161.944 q 0,-0.18 0.01,-0.23 0.02,-0.06 0.1,-0.14 l 1.9200002,-2.14 q 1.05,-1.18 1.05,-2.21 0,-0.67 -0.35,-1.15 -0.35,-0.48 -0.99,-0.48 -0.44,0 -0.81,0.27 -0.37,0.27 -0.5400002,0.75 0.03,-0.01 0.1300002,-0.01 0.25,0 0.39,0.16 0.14,0.15 0.14,0.36 0,0.27 -0.18,0.4 -0.17,0.13 -0.34,0.13 -0.07,0 -0.1600002,-0.01 -0.09,-0.02 -0.23,-0.16 -0.14,-0.14 -0.14,-0.39 0,-0.7 0.5300002,-1.25 0.53,-0.56 1.34,-0.56 0.92,0 1.52,0.55 0.6,0.54 0.6,1.39 0,0.3 -0.09,0.57 -0.09,0.27 -0.21,0.48 -0.12,0.21 -0.44,0.55 -0.32,0.33 -0.58,0.57 -0.26,0.24 -0.84,0.75 l -1.06,1.03 1.8,0 q 0.88,0 0.95,-0.08 0.1,-0.14 0.22,-0.89 l 0.25,0 -0.28,1.74 -3.7100002,0 z"
       id="path6464"
       inkscape:connector-curvature="0" />
  </g>
  <path
     style="fill:none;fill-rule:evenodd;stroke:#000000;stroke-width:0.5;stroke-linecap:butt;stroke-linejoin:miter;stroke-miterlimit:4;stroke-dasharray:none;stroke-opacity:1"
     d="m 12.888,133.59499 41.000247,0 8,-8"
     id="path6408-3"
     inkscape:connector-curvature="0"
     sodipodi:nodetypes="ccc" />
  <path
     style="fill:none;fill-rule:evenodd;stroke:#000000;stroke-width:0.5;stroke-linecap:butt;stroke-linejoin:miter;stroke-miterlimit:4;stroke-dasharray:none;stroke-opacity:1"
     d="m 13.888247,183.595 20.000001,0 0,10 6.999752,7"
     id="path6534"
     inkscape:connector-curvature="0"
     sodipodi:nodetypes="cccc" />
  <path
     style="fill:none;fill-rule:evenodd;stroke:#000000;stroke-width:0.5;stroke-linecap:butt;stroke-linejoin:miter;stroke-miterlimit:4;stroke-dasharray:none;stroke-opacity:1"
     d="m 33.888248,183.595 0,-20 10,-10"
     id="path6538"
     inkscape:connector-curvature="0" />
  <path
     style="fill:none;fill-rule:evenodd;stroke:#000000;stroke-width:0.5;stroke-linecap:square;stroke-linejoin:miter;stroke-miterlimit:4;stroke-dasharray:none;stroke-opacity:1"
     d="m 88.88825,3.5949998 2.99975,-2e-6"
     id="path6550"
     inkscape:connector-curvature="0"
     sodipodi:nodetypes="cc" />
</svg>
