<?xml version="1.0" encoding="UTF-8" standalone="no"?>
<!-- Created with Inkscape (http://www.inkscape.org/) -->

<svg
   xmlns:dc="http://purl.org/dc/elements/1.1/"
   xmlns:cc="http://creativecommons.org/ns#"
   xmlns:rdf="http://www.w3.org/1999/02/22-rdf-syntax-ns#"
   xmlns:svg="http://www.w3.org/2000/svg"
   xmlns="http://www.w3.org/2000/svg"
   xmlns:xlink="http://www.w3.org/1999/xlink"
   xmlns:sodipodi="http://sodipodi.sourceforge.net/DTD/sodipodi-0.dtd"
   xmlns:inkscape="http://www.inkscape.org/namespaces/inkscape"
   width="120"
   height="110"
   viewBox="0 0 120 110"
   id="svg2"
   version="1.1"
   inkscape:version="0.91 r13725"
   sodipodi:docname="start.svg">
  <defs
     id="defs4">
    <marker
       inkscape:stockid="Arrow2Send"
       orient="auto"
       refY="0"
       refX="0"
       id="marker14136"
       style="overflow:visible"
       inkscape:isstock="true">
      <path
         id="path14138"
         style="fill:#999999;fill-opacity:1;fill-rule:evenodd;stroke:#999999;stroke-width:0.625;stroke-linejoin:round;stroke-opacity:1"
         d="M 8.7185878,4.0337352 -2.2072895,0.01601326 8.7185884,-4.0017078 c -1.7454984,2.3720609 -1.7354408,5.6174519 -6e-7,8.035443 z"
         transform="matrix(-0.3,0,0,-0.3,0.69,0)"
         inkscape:connector-curvature="0" />
    </marker>
    <marker
       inkscape:stockid="Arrow2Send"
       orient="auto"
       refY="0"
       refX="0"
       id="marker13802"
       style="overflow:visible"
       inkscape:isstock="true">
      <path
         id="path13804"
         style="fill:#999999;fill-opacity:1;fill-rule:evenodd;stroke:#999999;stroke-width:0.625;stroke-linejoin:round;stroke-opacity:1"
         d="M 8.7185878,4.0337352 -2.2072895,0.01601326 8.7185884,-4.0017078 c -1.7454984,2.3720609 -1.7354408,5.6174519 -6e-7,8.035443 z"
         transform="matrix(-0.3,0,0,-0.3,0.69,0)"
         inkscape:connector-curvature="0" />
    </marker>
    <marker
       inkscape:stockid="Arrow2Send"
       orient="auto"
       refY="0"
       refX="0"
       id="marker13474"
       style="overflow:visible"
       inkscape:isstock="true">
      <path
         id="path13476"
         style="fill:#999999;fill-opacity:1;fill-rule:evenodd;stroke:#999999;stroke-width:0.625;stroke-linejoin:round;stroke-opacity:1"
         d="M 8.7185878,4.0337352 -2.2072895,0.01601326 8.7185884,-4.0017078 c -1.7454984,2.3720609 -1.7354408,5.6174519 -6e-7,8.035443 z"
         transform="matrix(-0.3,0,0,-0.3,0.69,0)"
         inkscape:connector-curvature="0" />
    </marker>
    <marker
       inkscape:stockid="Arrow2Send"
       orient="auto"
       refY="0"
       refX="0"
       id="marker13152"
       style="overflow:visible"
       inkscape:isstock="true">
      <path
         id="path13154"
         style="fill:#999999;fill-opacity:1;fill-rule:evenodd;stroke:#999999;stroke-width:0.625;stroke-linejoin:round;stroke-opacity:1"
         d="M 8.7185878,4.0337352 -2.2072895,0.01601326 8.7185884,-4.0017078 c -1.7454984,2.3720609 -1.7354408,5.6174519 -6e-7,8.035443 z"
         transform="matrix(-0.3,0,0,-0.3,0.69,0)"
         inkscape:connector-curvature="0" />
    </marker>
    <marker
       inkscape:stockid="Arrow2Send"
       orient="auto"
       refY="0"
       refX="0"
       id="marker12836"
       style="overflow:visible"
       inkscape:isstock="true">
      <path
         id="path12838"
         style="fill:#999999;fill-opacity:1;fill-rule:evenodd;stroke:#999999;stroke-width:0.625;stroke-linejoin:round;stroke-opacity:1"
         d="M 8.7185878,4.0337352 -2.2072895,0.01601326 8.7185884,-4.0017078 c -1.7454984,2.3720609 -1.7354408,5.6174519 -6e-7,8.035443 z"
         transform="matrix(-0.3,0,0,-0.3,0.69,0)"
         inkscape:connector-curvature="0" />
    </marker>
    <marker
       inkscape:stockid="Arrow2Send"
       orient="auto"
       refY="0"
       refX="0"
       id="marker12526"
       style="overflow:visible"
       inkscape:isstock="true">
      <path
         id="path12528"
         style="fill:#999999;fill-opacity:1;fill-rule:evenodd;stroke:#999999;stroke-width:0.625;stroke-linejoin:round;stroke-opacity:1"
         d="M 8.7185878,4.0337352 -2.2072895,0.01601326 8.7185884,-4.0017078 c -1.7454984,2.3720609 -1.7354408,5.6174519 -6e-7,8.035443 z"
         transform="matrix(-0.3,0,0,-0.3,0.69,0)"
         inkscape:connector-curvature="0" />
    </marker>
    <marker
       inkscape:stockid="Arrow2Send"
       orient="auto"
       refY="0"
       refX="0"
       id="marker12222"
       style="overflow:visible"
       inkscape:isstock="true">
      <path
         id="path12224"
         style="fill:#999999;fill-opacity:1;fill-rule:evenodd;stroke:#999999;stroke-width:0.625;stroke-linejoin:round;stroke-opacity:1"
         d="M 8.7185878,4.0337352 -2.2072895,0.01601326 8.7185884,-4.0017078 c -1.7454984,2.3720609 -1.7354408,5.6174519 -6e-7,8.035443 z"
         transform="matrix(-0.3,0,0,-0.3,0.69,0)"
         inkscape:connector-curvature="0" />
    </marker>
    <marker
       inkscape:stockid="Arrow2Send"
       orient="auto"
       refY="0"
       refX="0"
       id="marker11924"
       style="overflow:visible"
       inkscape:isstock="true">
      <path
         id="path11926"
         style="fill:#000000;fill-opacity:1;fill-rule:evenodd;stroke:#000000;stroke-width:0.625;stroke-linejoin:round;stroke-opacity:1"
         d="M 8.7185878,4.0337352 -2.2072895,0.01601326 8.7185884,-4.0017078 c -1.7454984,2.3720609 -1.7354408,5.6174519 -6e-7,8.035443 z"
         transform="matrix(-0.3,0,0,-0.3,0.69,0)"
         inkscape:connector-curvature="0" />
    </marker>
    <marker
       inkscape:stockid="Arrow2Send"
       orient="auto"
       refY="0"
       refX="0"
       id="marker11632"
       style="overflow:visible"
       inkscape:isstock="true">
      <path
         id="path11634"
         style="fill:#000000;fill-opacity:1;fill-rule:evenodd;stroke:#000000;stroke-width:0.625;stroke-linejoin:round;stroke-opacity:1"
         d="M 8.7185878,4.0337352 -2.2072895,0.01601326 8.7185884,-4.0017078 c -1.7454984,2.3720609 -1.7354408,5.6174519 -6e-7,8.035443 z"
         transform="matrix(-0.3,0,0,-0.3,0.69,0)"
         inkscape:connector-curvature="0" />
    </marker>
    <marker
       inkscape:stockid="Arrow2Send"
       orient="auto"
       refY="0"
       refX="0"
       id="marker11346"
       style="overflow:visible"
       inkscape:isstock="true">
      <path
         id="path11348"
         style="fill:#000000;fill-opacity:1;fill-rule:evenodd;stroke:#000000;stroke-width:0.625;stroke-linejoin:round;stroke-opacity:1"
         d="M 8.7185878,4.0337352 -2.2072895,0.01601326 8.7185884,-4.0017078 c -1.7454984,2.3720609 -1.7354408,5.6174519 -6e-7,8.035443 z"
         transform="matrix(-0.3,0,0,-0.3,0.69,0)"
         inkscape:connector-curvature="0" />
    </marker>
    <marker
       inkscape:stockid="Arrow2Send"
       orient="auto"
       refY="0"
       refX="0"
       id="marker11066"
       style="overflow:visible"
       inkscape:isstock="true">
      <path
         id="path11068"
         style="fill:#000000;fill-opacity:1;fill-rule:evenodd;stroke:#000000;stroke-width:0.625;stroke-linejoin:round;stroke-opacity:1"
         d="M 8.7185878,4.0337352 -2.2072895,0.01601326 8.7185884,-4.0017078 c -1.7454984,2.3720609 -1.7354408,5.6174519 -6e-7,8.035443 z"
         transform="matrix(-0.3,0,0,-0.3,0.69,0)"
         inkscape:connector-curvature="0" />
    </marker>
    <marker
       inkscape:stockid="Arrow2Send"
       orient="auto"
       refY="0"
       refX="0"
       id="marker10792"
       style="overflow:visible"
       inkscape:isstock="true">
      <path
         id="path10794"
         style="fill:#000000;fill-opacity:1;fill-rule:evenodd;stroke:#000000;stroke-width:0.625;stroke-linejoin:round;stroke-opacity:1"
         d="M 8.7185878,4.0337352 -2.2072895,0.01601326 8.7185884,-4.0017078 c -1.7454984,2.3720609 -1.7354408,5.6174519 -6e-7,8.035443 z"
         transform="matrix(-0.3,0,0,-0.3,0.69,0)"
         inkscape:connector-curvature="0" />
    </marker>
    <marker
       inkscape:stockid="Arrow2Send"
       orient="auto"
       refY="0"
       refX="0"
       id="marker10524"
       style="overflow:visible"
       inkscape:isstock="true">
      <path
         id="path10526"
         style="fill:#000000;fill-opacity:1;fill-rule:evenodd;stroke:#000000;stroke-width:0.625;stroke-linejoin:round;stroke-opacity:1"
         d="M 8.7185878,4.0337352 -2.2072895,0.01601326 8.7185884,-4.0017078 c -1.7454984,2.3720609 -1.7354408,5.6174519 -6e-7,8.035443 z"
         transform="matrix(-0.3,0,0,-0.3,0.69,0)"
         inkscape:connector-curvature="0" />
    </marker>
    <marker
       inkscape:stockid="Arrow2Send"
       orient="auto"
       refY="0"
       refX="0"
       id="marker10262"
       style="overflow:visible"
       inkscape:isstock="true">
      <path
         id="path10264"
         style="fill:#000000;fill-opacity:1;fill-rule:evenodd;stroke:#000000;stroke-width:0.625;stroke-linejoin:round;stroke-opacity:1"
         d="M 8.7185878,4.0337352 -2.2072895,0.01601326 8.7185884,-4.0017078 c -1.7454984,2.3720609 -1.7354408,5.6174519 -6e-7,8.035443 z"
         transform="matrix(-0.3,0,0,-0.3,0.69,0)"
         inkscape:connector-curvature="0" />
    </marker>
    <marker
       inkscape:stockid="Arrow2Send"
       orient="auto"
       refY="0"
       refX="0"
       id="marker10006"
       style="overflow:visible"
       inkscape:isstock="true">
      <path
         id="path10008"
         style="fill:#000000;fill-opacity:1;fill-rule:evenodd;stroke:#000000;stroke-width:0.625;stroke-linejoin:round;stroke-opacity:1"
         d="M 8.7185878,4.0337352 -2.2072895,0.01601326 8.7185884,-4.0017078 c -1.7454984,2.3720609 -1.7354408,5.6174519 -6e-7,8.035443 z"
         transform="matrix(-0.3,0,0,-0.3,0.69,0)"
         inkscape:connector-curvature="0" />
    </marker>
    <marker
       inkscape:stockid="Arrow2Send"
       orient="auto"
       refY="0"
       refX="0"
       id="marker9756"
       style="overflow:visible"
       inkscape:isstock="true">
      <path
         id="path9758"
         style="fill:#000000;fill-opacity:1;fill-rule:evenodd;stroke:#000000;stroke-width:0.625;stroke-linejoin:round;stroke-opacity:1"
         d="M 8.7185878,4.0337352 -2.2072895,0.01601326 8.7185884,-4.0017078 c -1.7454984,2.3720609 -1.7354408,5.6174519 -6e-7,8.035443 z"
         transform="matrix(-0.3,0,0,-0.3,0.69,0)"
         inkscape:connector-curvature="0" />
    </marker>
    <marker
       inkscape:stockid="Arrow2Send"
       orient="auto"
       refY="0"
       refX="0"
       id="marker9512"
       style="overflow:visible"
       inkscape:isstock="true">
      <path
         id="path9514"
         style="fill:#000000;fill-opacity:1;fill-rule:evenodd;stroke:#000000;stroke-width:0.625;stroke-linejoin:round;stroke-opacity:1"
         d="M 8.7185878,4.0337352 -2.2072895,0.01601326 8.7185884,-4.0017078 c -1.7454984,2.3720609 -1.7354408,5.6174519 -6e-7,8.035443 z"
         transform="matrix(-0.3,0,0,-0.3,0.69,0)"
         inkscape:connector-curvature="0" />
    </marker>
    <marker
       inkscape:stockid="Arrow2Send"
       orient="auto"
       refY="0"
       refX="0"
       id="marker9274"
       style="overflow:visible"
       inkscape:isstock="true">
      <path
         id="path9276"
         style="fill:#000000;fill-opacity:1;fill-rule:evenodd;stroke:#000000;stroke-width:0.625;stroke-linejoin:round;stroke-opacity:1"
         d="M 8.7185878,4.0337352 -2.2072895,0.01601326 8.7185884,-4.0017078 c -1.7454984,2.3720609 -1.7354408,5.6174519 -6e-7,8.035443 z"
         transform="matrix(-0.3,0,0,-0.3,0.69,0)"
         inkscape:connector-curvature="0" />
    </marker>
    <marker
       inkscape:stockid="Arrow2Send"
       orient="auto"
       refY="0"
       refX="0"
       id="marker9042"
       style="overflow:visible"
       inkscape:isstock="true">
      <path
         id="path9044"
         style="fill:#000000;fill-opacity:1;fill-rule:evenodd;stroke:#000000;stroke-width:0.625;stroke-linejoin:round;stroke-opacity:1"
         d="M 8.7185878,4.0337352 -2.2072895,0.01601326 8.7185884,-4.0017078 c -1.7454984,2.3720609 -1.7354408,5.6174519 -6e-7,8.035443 z"
         transform="matrix(-0.3,0,0,-0.3,0.69,0)"
         inkscape:connector-curvature="0" />
    </marker>
    <marker
       inkscape:stockid="Arrow2Send"
       orient="auto"
       refY="0"
       refX="0"
       id="marker8816"
       style="overflow:visible"
       inkscape:isstock="true">
      <path
         id="path8818"
         style="fill:#000000;fill-opacity:1;fill-rule:evenodd;stroke:#000000;stroke-width:0.625;stroke-linejoin:round;stroke-opacity:1"
         d="M 8.7185878,4.0337352 -2.2072895,0.01601326 8.7185884,-4.0017078 c -1.7454984,2.3720609 -1.7354408,5.6174519 -6e-7,8.035443 z"
         transform="matrix(-0.3,0,0,-0.3,0.69,0)"
         inkscape:connector-curvature="0" />
    </marker>
    <marker
       inkscape:stockid="Arrow2Send"
       orient="auto"
       refY="0"
       refX="0"
       id="marker8596"
       style="overflow:visible"
       inkscape:isstock="true">
      <path
         id="path8598"
         style="fill:#999999;fill-opacity:1;fill-rule:evenodd;stroke:#999999;stroke-width:0.625;stroke-linejoin:round;stroke-opacity:1"
         d="M 8.7185878,4.0337352 -2.2072895,0.01601326 8.7185884,-4.0017078 c -1.7454984,2.3720609 -1.7354408,5.6174519 -6e-7,8.035443 z"
         transform="matrix(-0.3,0,0,-0.3,0.69,0)"
         inkscape:connector-curvature="0" />
    </marker>
    <marker
       inkscape:stockid="Arrow2Send"
       orient="auto"
       refY="0"
       refX="0"
       id="marker8382"
       style="overflow:visible"
       inkscape:isstock="true">
      <path
         id="path8384"
         style="fill:#999999;fill-opacity:1;fill-rule:evenodd;stroke:#999999;stroke-width:0.625;stroke-linejoin:round;stroke-opacity:1"
         d="M 8.7185878,4.0337352 -2.2072895,0.01601326 8.7185884,-4.0017078 c -1.7454984,2.3720609 -1.7354408,5.6174519 -6e-7,8.035443 z"
         transform="matrix(-0.3,0,0,-0.3,0.69,0)"
         inkscape:connector-curvature="0" />
    </marker>
    <marker
       inkscape:stockid="Arrow2Send"
       orient="auto"
       refY="0"
       refX="0"
       id="marker8174"
       style="overflow:visible"
       inkscape:isstock="true">
      <path
         id="path8176"
         style="fill:#000000;fill-opacity:1;fill-rule:evenodd;stroke:#000000;stroke-width:0.625;stroke-linejoin:round;stroke-opacity:1"
         d="M 8.7185878,4.0337352 -2.2072895,0.01601326 8.7185884,-4.0017078 c -1.7454984,2.3720609 -1.7354408,5.6174519 -6e-7,8.035443 z"
         transform="matrix(-0.3,0,0,-0.3,0.69,0)"
         inkscape:connector-curvature="0" />
    </marker>
    <marker
       inkscape:stockid="Arrow2Send"
       orient="auto"
       refY="0"
       refX="0"
       id="marker7972"
       style="overflow:visible"
       inkscape:isstock="true">
      <path
         id="path7974"
         style="fill:#000000;fill-opacity:1;fill-rule:evenodd;stroke:#000000;stroke-width:0.625;stroke-linejoin:round;stroke-opacity:1"
         d="M 8.7185878,4.0337352 -2.2072895,0.01601326 8.7185884,-4.0017078 c -1.7454984,2.3720609 -1.7354408,5.6174519 -6e-7,8.035443 z"
         transform="matrix(-0.3,0,0,-0.3,0.69,0)"
         inkscape:connector-curvature="0" />
    </marker>
    <marker
       inkscape:stockid="Arrow2Send"
       orient="auto"
       refY="0"
       refX="0"
       id="marker7776"
       style="overflow:visible"
       inkscape:isstock="true">
      <path
         id="path7778"
         style="fill:#000000;fill-opacity:1;fill-rule:evenodd;stroke:#000000;stroke-width:0.625;stroke-linejoin:round;stroke-opacity:1"
         d="M 8.7185878,4.0337352 -2.2072895,0.01601326 8.7185884,-4.0017078 c -1.7454984,2.3720609 -1.7354408,5.6174519 -6e-7,8.035443 z"
         transform="matrix(-0.3,0,0,-0.3,0.69,0)"
         inkscape:connector-curvature="0" />
    </marker>
    <marker
       inkscape:stockid="Arrow2Send"
       orient="auto"
       refY="0"
       refX="0"
       id="marker7766"
       style="overflow:visible"
       inkscape:isstock="true">
      <path
         id="path7768"
         style="fill:#000000;fill-opacity:1;fill-rule:evenodd;stroke:#000000;stroke-width:0.625;stroke-linejoin:round;stroke-opacity:1"
         d="M 8.7185878,4.0337352 -2.2072895,0.01601326 8.7185884,-4.0017078 c -1.7454984,2.3720609 -1.7354408,5.6174519 -6e-7,8.035443 z"
         transform="matrix(-0.3,0,0,-0.3,0.69,0)"
         inkscape:connector-curvature="0" />
    </marker>
    <marker
       inkscape:stockid="Arrow2Send"
       orient="auto"
       refY="0"
       refX="0"
       id="marker7570"
       style="overflow:visible"
       inkscape:isstock="true">
      <path
         id="path7572"
         style="fill:#999999;fill-opacity:1;fill-rule:evenodd;stroke:#999999;stroke-width:0.625;stroke-linejoin:round;stroke-opacity:1"
         d="M 8.7185878,4.0337352 -2.2072895,0.01601326 8.7185884,-4.0017078 c -1.7454984,2.3720609 -1.7354408,5.6174519 -6e-7,8.035443 z"
         transform="matrix(-0.3,0,0,-0.3,0.69,0)"
         inkscape:connector-curvature="0" />
    </marker>
    <marker
       inkscape:stockid="Arrow2Send"
       orient="auto"
       refY="0"
       refX="0"
       id="marker7386"
       style="overflow:visible"
       inkscape:isstock="true">
      <path
         id="path7388"
         style="fill:#999999;fill-opacity:1;fill-rule:evenodd;stroke:#999999;stroke-width:0.625;stroke-linejoin:round;stroke-opacity:1"
         d="M 8.7185878,4.0337352 -2.2072895,0.01601326 8.7185884,-4.0017078 c -1.7454984,2.3720609 -1.7354408,5.6174519 -6e-7,8.035443 z"
         transform="matrix(-0.3,0,0,-0.3,0.69,0)"
         inkscape:connector-curvature="0" />
    </marker>
    <marker
       inkscape:stockid="Arrow2Send"
       orient="auto"
       refY="0"
       refX="0"
       id="marker7208"
       style="overflow:visible"
       inkscape:isstock="true">
      <path
         id="path7210"
         style="fill:#000000;fill-opacity:1;fill-rule:evenodd;stroke:#000000;stroke-width:0.625;stroke-linejoin:round;stroke-opacity:1"
         d="M 8.7185878,4.0337352 -2.2072895,0.01601326 8.7185884,-4.0017078 c -1.7454984,2.3720609 -1.7354408,5.6174519 -6e-7,8.035443 z"
         transform="matrix(-0.3,0,0,-0.3,0.69,0)"
         inkscape:connector-curvature="0" />
    </marker>
    <marker
       inkscape:isstock="true"
       style="overflow:visible"
       id="marker7024"
       refX="0"
       refY="0"
       orient="auto"
       inkscape:stockid="Arrow2Send"
       inkscape:collect="always">
      <path
         transform="matrix(-0.3,0,0,-0.3,0.69,0)"
         d="M 8.7185878,4.0337352 -2.2072895,0.01601326 8.7185884,-4.0017078 c -1.7454984,2.3720609 -1.7354408,5.6174519 -6e-7,8.035443 z"
         style="fill:#999999;fill-opacity:1;fill-rule:evenodd;stroke:#999999;stroke-width:0.625;stroke-linejoin:round;stroke-opacity:1"
         id="path7026"
         inkscape:connector-curvature="0" />
    </marker>
    <marker
       inkscape:isstock="true"
       style="overflow:visible"
       id="marker6858"
       refX="0"
       refY="0"
       orient="auto"
       inkscape:stockid="Arrow2Send">
      <path
         transform="matrix(-0.3,0,0,-0.3,0.69,0)"
         d="M 8.7185878,4.0337352 -2.2072895,0.01601326 8.7185884,-4.0017078 c -1.7454984,2.3720609 -1.7354408,5.6174519 -6e-7,8.035443 z"
         style="fill:#000000;fill-opacity:1;fill-rule:evenodd;stroke:#000000;stroke-width:0.625;stroke-linejoin:round;stroke-opacity:1"
         id="path6860"
         inkscape:connector-curvature="0" />
    </marker>
    <marker
       inkscape:isstock="true"
       style="overflow:visible"
       id="marker6698"
       refX="0"
       refY="0"
       orient="auto"
       inkscape:stockid="Arrow2Send">
      <path
         transform="matrix(-0.3,0,0,-0.3,0.69,0)"
         d="M 8.7185878,4.0337352 -2.2072895,0.01601326 8.7185884,-4.0017078 c -1.7454984,2.3720609 -1.7354408,5.6174519 -6e-7,8.035443 z"
         style="fill:#000000;fill-opacity:1;fill-rule:evenodd;stroke:#000000;stroke-width:0.625;stroke-linejoin:round;stroke-opacity:1"
         id="path6700"
         inkscape:connector-curvature="0" />
    </marker>
    <marker
       inkscape:isstock="true"
       style="overflow:visible"
       id="marker6544"
       refX="0"
       refY="0"
       orient="auto"
       inkscape:stockid="Arrow2Send">
      <path
         transform="matrix(-0.3,0,0,-0.3,0.69,0)"
         d="M 8.7185878,4.0337352 -2.2072895,0.01601326 8.7185884,-4.0017078 c -1.7454984,2.3720609 -1.7354408,5.6174519 -6e-7,8.035443 z"
         style="fill:#000000;fill-opacity:1;fill-rule:evenodd;stroke:#000000;stroke-width:0.625;stroke-linejoin:round;stroke-opacity:1"
         id="path6546"
         inkscape:connector-curvature="0" />
    </marker>
    <marker
       inkscape:isstock="true"
       style="overflow:visible"
       id="marker6396"
       refX="0"
       refY="0"
       orient="auto"
       inkscape:stockid="Arrow2Send">
      <path
         transform="matrix(-0.3,0,0,-0.3,0.69,0)"
         d="M 8.7185878,4.0337352 -2.2072895,0.01601326 8.7185884,-4.0017078 c -1.7454984,2.3720609 -1.7354408,5.6174519 -6e-7,8.035443 z"
         style="fill:#000000;fill-opacity:1;fill-rule:evenodd;stroke:#000000;stroke-width:0.625;stroke-linejoin:round;stroke-opacity:1"
         id="path6398"
         inkscape:connector-curvature="0" />
    </marker>
    <marker
       inkscape:isstock="true"
       style="overflow:visible"
       id="marker6254"
       refX="0"
       refY="0"
       orient="auto"
       inkscape:stockid="Arrow2Send">
      <path
         transform="matrix(-0.3,0,0,-0.3,0.69,0)"
         d="M 8.7185878,4.0337352 -2.2072895,0.01601326 8.7185884,-4.0017078 c -1.7454984,2.3720609 -1.7354408,5.6174519 -6e-7,8.035443 z"
         style="fill:#000000;fill-opacity:1;fill-rule:evenodd;stroke:#000000;stroke-width:0.625;stroke-linejoin:round;stroke-opacity:1"
         id="path6256"
         inkscape:connector-curvature="0" />
    </marker>
    <marker
       inkscape:isstock="true"
       style="overflow:visible"
       id="marker6118"
       refX="0"
       refY="0"
       orient="auto"
       inkscape:stockid="Arrow2Send">
      <path
         transform="matrix(-0.3,0,0,-0.3,0.69,0)"
         d="M 8.7185878,4.0337352 -2.2072895,0.01601326 8.7185884,-4.0017078 c -1.7454984,2.3720609 -1.7354408,5.6174519 -6e-7,8.035443 z"
         style="fill:#000000;fill-opacity:1;fill-rule:evenodd;stroke:#000000;stroke-width:0.625;stroke-linejoin:round;stroke-opacity:1"
         id="path6120"
         inkscape:connector-curvature="0" />
    </marker>
    <marker
       inkscape:isstock="true"
       style="overflow:visible"
       id="marker5988"
       refX="0"
       refY="0"
       orient="auto"
       inkscape:stockid="Arrow2Send">
      <path
         transform="matrix(-0.3,0,0,-0.3,0.69,0)"
         d="M 8.7185878,4.0337352 -2.2072895,0.01601326 8.7185884,-4.0017078 c -1.7454984,2.3720609 -1.7354408,5.6174519 -6e-7,8.035443 z"
         style="fill:#000000;fill-opacity:1;fill-rule:evenodd;stroke:#000000;stroke-width:0.625;stroke-linejoin:round;stroke-opacity:1"
         id="path5990"
         inkscape:connector-curvature="0" />
    </marker>
    <marker
       inkscape:isstock="true"
       style="overflow:visible"
       id="marker5864"
       refX="0"
       refY="0"
       orient="auto"
       inkscape:stockid="Arrow2Send">
      <path
         transform="matrix(-0.3,0,0,-0.3,0.69,0)"
         d="M 8.7185878,4.0337352 -2.2072895,0.01601326 8.7185884,-4.0017078 c -1.7454984,2.3720609 -1.7354408,5.6174519 -6e-7,8.035443 z"
         style="fill:#000000;fill-opacity:1;fill-rule:evenodd;stroke:#000000;stroke-width:0.625;stroke-linejoin:round;stroke-opacity:1"
         id="path5866"
         inkscape:connector-curvature="0" />
    </marker>
    <marker
       inkscape:isstock="true"
       style="overflow:visible"
       id="marker5746"
       refX="0"
       refY="0"
       orient="auto"
       inkscape:stockid="Arrow2Send">
      <path
         transform="matrix(-0.3,0,0,-0.3,0.69,0)"
         d="M 8.7185878,4.0337352 -2.2072895,0.01601326 8.7185884,-4.0017078 c -1.7454984,2.3720609 -1.7354408,5.6174519 -6e-7,8.035443 z"
         style="fill:#000000;fill-opacity:1;fill-rule:evenodd;stroke:#000000;stroke-width:0.625;stroke-linejoin:round;stroke-opacity:1"
         id="path5748"
         inkscape:connector-curvature="0" />
    </marker>
    <marker
       inkscape:isstock="true"
       style="overflow:visible"
       id="marker5634"
       refX="0"
       refY="0"
       orient="auto"
       inkscape:stockid="Arrow2Send">
      <path
         transform="matrix(-0.3,0,0,-0.3,0.69,0)"
         d="M 8.7185878,4.0337352 -2.2072895,0.01601326 8.7185884,-4.0017078 c -1.7454984,2.3720609 -1.7354408,5.6174519 -6e-7,8.035443 z"
         style="fill:#000000;fill-opacity:1;fill-rule:evenodd;stroke:#000000;stroke-width:0.625;stroke-linejoin:round;stroke-opacity:1"
         id="path5636"
         inkscape:connector-curvature="0" />
    </marker>
    <marker
       inkscape:isstock="true"
       style="overflow:visible"
       id="marker5528"
       refX="0"
       refY="0"
       orient="auto"
       inkscape:stockid="Arrow2Send">
      <path
         transform="matrix(-0.3,0,0,-0.3,0.69,0)"
         d="M 8.7185878,4.0337352 -2.2072895,0.01601326 8.7185884,-4.0017078 c -1.7454984,2.3720609 -1.7354408,5.6174519 -6e-7,8.035443 z"
         style="fill:#000000;fill-opacity:1;fill-rule:evenodd;stroke:#000000;stroke-width:0.625;stroke-linejoin:round;stroke-opacity:1"
         id="path5530"
         inkscape:connector-curvature="0" />
    </marker>
    <marker
       inkscape:isstock="true"
       style="overflow:visible"
       id="marker5428"
       refX="0"
       refY="0"
       orient="auto"
       inkscape:stockid="Arrow2Send">
      <path
         transform="matrix(-0.3,0,0,-0.3,0.69,0)"
         d="M 8.7185878,4.0337352 -2.2072895,0.01601326 8.7185884,-4.0017078 c -1.7454984,2.3720609 -1.7354408,5.6174519 -6e-7,8.035443 z"
         style="fill:#000000;fill-opacity:1;fill-rule:evenodd;stroke:#000000;stroke-width:0.625;stroke-linejoin:round;stroke-opacity:1"
         id="path5430"
         inkscape:connector-curvature="0" />
    </marker>
    <marker
       inkscape:isstock="true"
       style="overflow:visible"
       id="marker5334"
       refX="0"
       refY="0"
       orient="auto"
       inkscape:stockid="Arrow2Send">
      <path
         transform="matrix(-0.3,0,0,-0.3,0.69,0)"
         d="M 8.7185878,4.0337352 -2.2072895,0.01601326 8.7185884,-4.0017078 c -1.7454984,2.3720609 -1.7354408,5.6174519 -6e-7,8.035443 z"
         style="fill:#000000;fill-opacity:1;fill-rule:evenodd;stroke:#000000;stroke-width:0.625;stroke-linejoin:round;stroke-opacity:1"
         id="path5336"
         inkscape:connector-curvature="0" />
    </marker>
    <marker
       inkscape:isstock="true"
       style="overflow:visible"
       id="marker5246"
       refX="0"
       refY="0"
       orient="auto"
       inkscape:stockid="Arrow2Send">
      <path
         transform="matrix(-0.3,0,0,-0.3,0.69,0)"
         d="M 8.7185878,4.0337352 -2.2072895,0.01601326 8.7185884,-4.0017078 c -1.7454984,2.3720609 -1.7354408,5.6174519 -6e-7,8.035443 z"
         style="fill:#000000;fill-opacity:1;fill-rule:evenodd;stroke:#000000;stroke-width:0.625;stroke-linejoin:round;stroke-opacity:1"
         id="path5248"
         inkscape:connector-curvature="0" />
    </marker>
    <marker
       inkscape:isstock="true"
       style="overflow:visible"
       id="marker5164"
       refX="0"
       refY="0"
       orient="auto"
       inkscape:stockid="Arrow2Send">
      <path
         transform="matrix(-0.3,0,0,-0.3,0.69,0)"
         d="M 8.7185878,4.0337352 -2.2072895,0.01601326 8.7185884,-4.0017078 c -1.7454984,2.3720609 -1.7354408,5.6174519 -6e-7,8.035443 z"
         style="fill:#000000;fill-opacity:1;fill-rule:evenodd;stroke:#000000;stroke-width:0.625;stroke-linejoin:round;stroke-opacity:1"
         id="path5166"
         inkscape:connector-curvature="0" />
    </marker>
    <marker
       inkscape:isstock="true"
       style="overflow:visible"
       id="marker5088"
       refX="0"
       refY="0"
       orient="auto"
       inkscape:stockid="Arrow2Send">
      <path
         transform="matrix(-0.3,0,0,-0.3,0.69,0)"
         d="M 8.7185878,4.0337352 -2.2072895,0.01601326 8.7185884,-4.0017078 c -1.7454984,2.3720609 -1.7354408,5.6174519 -6e-7,8.035443 z"
         style="fill:#000000;fill-opacity:1;fill-rule:evenodd;stroke:#000000;stroke-width:0.625;stroke-linejoin:round;stroke-opacity:1"
         id="path5090"
         inkscape:connector-curvature="0" />
    </marker>
    <marker
       inkscape:isstock="true"
       style="overflow:visible"
       id="marker5018"
       refX="0"
       refY="0"
       orient="auto"
       inkscape:stockid="Arrow2Send">
      <path
         transform="matrix(-0.3,0,0,-0.3,0.69,0)"
         d="M 8.7185878,4.0337352 -2.2072895,0.01601326 8.7185884,-4.0017078 c -1.7454984,2.3720609 -1.7354408,5.6174519 -6e-7,8.035443 z"
         style="fill:#000000;fill-opacity:1;fill-rule:evenodd;stroke:#000000;stroke-width:0.625;stroke-linejoin:round;stroke-opacity:1"
         id="path5020"
         inkscape:connector-curvature="0" />
    </marker>
    <marker
       inkscape:isstock="true"
       style="overflow:visible"
       id="marker4954"
       refX="0"
       refY="0"
       orient="auto"
       inkscape:stockid="Arrow2Send">
      <path
         transform="matrix(-0.3,0,0,-0.3,0.69,0)"
         d="M 8.7185878,4.0337352 -2.2072895,0.01601326 8.7185884,-4.0017078 c -1.7454984,2.3720609 -1.7354408,5.6174519 -6e-7,8.035443 z"
         style="fill:#000000;fill-opacity:1;fill-rule:evenodd;stroke:#000000;stroke-width:0.625;stroke-linejoin:round;stroke-opacity:1"
         id="path4956"
         inkscape:connector-curvature="0" />
    </marker>
    <marker
       inkscape:isstock="true"
       style="overflow:visible"
       id="marker4896"
       refX="0"
       refY="0"
       orient="auto"
       inkscape:stockid="Arrow2Send">
      <path
         transform="matrix(-0.3,0,0,-0.3,0.69,0)"
         d="M 8.7185878,4.0337352 -2.2072895,0.01601326 8.7185884,-4.0017078 c -1.7454984,2.3720609 -1.7354408,5.6174519 -6e-7,8.035443 z"
         style="fill:#000000;fill-opacity:1;fill-rule:evenodd;stroke:#000000;stroke-width:0.625;stroke-linejoin:round;stroke-opacity:1"
         id="path4898"
         inkscape:connector-curvature="0" />
    </marker>
    <marker
       inkscape:isstock="true"
       style="overflow:visible"
       id="marker4844"
       refX="0"
       refY="0"
       orient="auto"
       inkscape:stockid="Arrow2Send">
      <path
         transform="matrix(-0.3,0,0,-0.3,0.69,0)"
         d="M 8.7185878,4.0337352 -2.2072895,0.01601326 8.7185884,-4.0017078 c -1.7454984,2.3720609 -1.7354408,5.6174519 -6e-7,8.035443 z"
         style="fill:#000000;fill-opacity:1;fill-rule:evenodd;stroke:#000000;stroke-width:0.625;stroke-linejoin:round;stroke-opacity:1"
         id="path4846"
         inkscape:connector-curvature="0" />
    </marker>
    <marker
       inkscape:isstock="true"
       style="overflow:visible"
       id="marker4798"
       refX="0"
       refY="0"
       orient="auto"
       inkscape:stockid="Arrow2Send">
      <path
         transform="matrix(-0.3,0,0,-0.3,0.69,0)"
         d="M 8.7185878,4.0337352 -2.2072895,0.01601326 8.7185884,-4.0017078 c -1.7454984,2.3720609 -1.7354408,5.6174519 -6e-7,8.035443 z"
         style="fill:#000000;fill-opacity:1;fill-rule:evenodd;stroke:#000000;stroke-width:0.625;stroke-linejoin:round;stroke-opacity:1"
         id="path4800"
         inkscape:connector-curvature="0" />
    </marker>
    <marker
       inkscape:isstock="true"
       style="overflow:visible"
       id="marker4758"
       refX="0"
       refY="0"
       orient="auto"
       inkscape:stockid="Arrow2Send">
      <path
         transform="matrix(-0.3,0,0,-0.3,0.69,0)"
         d="M 8.7185878,4.0337352 -2.2072895,0.01601326 8.7185884,-4.0017078 c -1.7454984,2.3720609 -1.7354408,5.6174519 -6e-7,8.035443 z"
         style="fill:#000000;fill-opacity:1;fill-rule:evenodd;stroke:#000000;stroke-width:0.625;stroke-linejoin:round;stroke-opacity:1"
         id="path4760"
         inkscape:connector-curvature="0" />
    </marker>
    <marker
       inkscape:isstock="true"
       style="overflow:visible"
       id="marker4724"
       refX="0"
       refY="0"
       orient="auto"
       inkscape:stockid="Arrow2Send">
      <path
         transform="matrix(-0.3,0,0,-0.3,0.69,0)"
         d="M 8.7185878,4.0337352 -2.2072895,0.01601326 8.7185884,-4.0017078 c -1.7454984,2.3720609 -1.7354408,5.6174519 -6e-7,8.035443 z"
         style="fill:#000000;fill-opacity:1;fill-rule:evenodd;stroke:#000000;stroke-width:0.625;stroke-linejoin:round;stroke-opacity:1"
         id="path4726"
         inkscape:connector-curvature="0" />
    </marker>
    <marker
       inkscape:isstock="true"
       style="overflow:visible"
       id="marker4696"
       refX="0"
       refY="0"
       orient="auto"
       inkscape:stockid="Arrow2Send">
      <path
         transform="matrix(-0.3,0,0,-0.3,0.69,0)"
         d="M 8.7185878,4.0337352 -2.2072895,0.01601326 8.7185884,-4.0017078 c -1.7454984,2.3720609 -1.7354408,5.6174519 -6e-7,8.035443 z"
         style="fill:#000000;fill-opacity:1;fill-rule:evenodd;stroke:#000000;stroke-width:0.625;stroke-linejoin:round;stroke-opacity:1"
         id="path4698"
         inkscape:connector-curvature="0" />
    </marker>
    <marker
       inkscape:isstock="true"
       style="overflow:visible"
       id="marker4674"
       refX="0"
       refY="0"
       orient="auto"
       inkscape:stockid="Arrow2Send">
      <path
         transform="matrix(-0.3,0,0,-0.3,0.69,0)"
         d="M 8.7185878,4.0337352 -2.2072895,0.01601326 8.7185884,-4.0017078 c -1.7454984,2.3720609 -1.7354408,5.6174519 -6e-7,8.035443 z"
         style="fill:#000000;fill-opacity:1;fill-rule:evenodd;stroke:#000000;stroke-width:0.625;stroke-linejoin:round;stroke-opacity:1"
         id="path4676"
         inkscape:connector-curvature="0" />
    </marker>
  </defs>
  <sodipodi:namedview
     id="base"
     pagecolor="#ffffff"
     bordercolor="#666666"
     borderopacity="1.0"
     inkscape:pageopacity="0.0"
     inkscape:pageshadow="2"
     inkscape:zoom="11.2"
     inkscape:cx="68.857353"
     inkscape:cy="57.594179"
     inkscape:document-units="px"
     inkscape:current-layer="layer1"
     showgrid="true"
     units="px"
     inkscape:window-width="2560"
     inkscape:window-height="1381"
     inkscape:window-x="1920"
     inkscape:window-y="0"
     inkscape:window-maximized="1"
     inkscape:snap-bbox="true">
    <inkscape:grid
       type="xygrid"
       id="grid3336" />
  </sodipodi:namedview>
  <metadata
     id="metadata7">
    <rdf:RDF>
      <cc:Work
         rdf:about="">
        <dc:format>image/svg+xml</dc:format>
        <dc:type
           rdf:resource="http://purl.org/dc/dcmitype/StillImage" />
        <dc:title />
      </cc:Work>
    </rdf:RDF>
  </metadata>
  <g
     inkscape:label="Layer 1"
     inkscape:groupmode="layer"
     id="layer1"
     transform="translate(0,-942.36216)">
    <rect
       style="fill:#ececec;fill-opacity:1;stroke:none;stroke-width:0.5;stroke-linecap:round;stroke-linejoin:round;stroke-miterlimit:4;stroke-dasharray:1, 1;stroke-dashoffset:0"
       id="rect14749"
       width="120"
       height="20"
       x="0"
       y="1007.3622" />
    <rect
       style="fill:#ececec;fill-opacity:1;stroke:none;stroke-width:0.5;stroke-linecap:round;stroke-linejoin:round;stroke-miterlimit:4;stroke-dasharray:1, 1;stroke-dashoffset:0"
       id="rect14747"
       width="120"
       height="20"
       x="0"
       y="967.36218" />
    <g
       id="g4370">
      <path
         inkscape:connector-curvature="0"
         id="path3382"
         d="m 10,962.36216 110,0"
         style="fill:none;fill-rule:evenodd;stroke:#000000;stroke-width:0.5;stroke-linecap:round;stroke-linejoin:miter;stroke-miterlimit:4;stroke-dasharray:none;stroke-opacity:1"
         sodipodi:nodetypes="cc" />
      <path
         inkscape:connector-curvature="0"
         id="path3384"
         d="m 10,952.36216 110,0"
         style="fill:none;fill-rule:evenodd;stroke:#000000;stroke-width:0.5;stroke-linecap:round;stroke-linejoin:miter;stroke-miterlimit:4;stroke-dasharray:none;stroke-opacity:1"
         sodipodi:nodetypes="cc" />
      <path
         inkscape:connector-curvature="0"
         id="path3386"
         d="m 10,952.36216 0,10"
         style="fill:none;fill-rule:evenodd;stroke:#000000;stroke-width:0.5;stroke-linecap:round;stroke-linejoin:miter;stroke-miterlimit:4;stroke-dasharray:none;stroke-opacity:1" />
      <path
         inkscape:connector-curvature="0"
         id="path3388"
         d="m 20,952.36216 0,10"
         style="fill:none;fill-rule:evenodd;stroke:#000000;stroke-width:0.5;stroke-linecap:round;stroke-linejoin:miter;stroke-miterlimit:4;stroke-dasharray:none;stroke-opacity:1" />
      <path
         inkscape:connector-curvature="0"
         id="path3390"
         d="m 30,952.36216 0,10"
         style="fill:none;fill-rule:evenodd;stroke:#000000;stroke-width:0.5;stroke-linecap:round;stroke-linejoin:miter;stroke-miterlimit:4;stroke-dasharray:none;stroke-opacity:1" />
      <path
         inkscape:connector-curvature="0"
         id="path3392"
         d="m 40,952.36216 0,10"
         style="fill:none;fill-rule:evenodd;stroke:#000000;stroke-width:0.5;stroke-linecap:round;stroke-linejoin:miter;stroke-miterlimit:4;stroke-dasharray:none;stroke-opacity:1" />
      <path
         inkscape:connector-curvature="0"
         id="path3394"
         d="m 50,952.36216 0,10"
         style="fill:none;fill-rule:evenodd;stroke:#000000;stroke-width:0.5;stroke-linecap:round;stroke-linejoin:miter;stroke-miterlimit:4;stroke-dasharray:none;stroke-opacity:1" />
      <path
         inkscape:connector-curvature="0"
         id="path3396"
         d="m 60,952.36216 0,10"
         style="fill:none;fill-rule:evenodd;stroke:#000000;stroke-width:0.5;stroke-linecap:round;stroke-linejoin:miter;stroke-miterlimit:4;stroke-dasharray:none;stroke-opacity:1" />
      <path
         inkscape:connector-curvature="0"
         id="path3398"
         d="m 70,952.36216 0,10"
         style="fill:none;fill-rule:evenodd;stroke:#000000;stroke-width:0.5;stroke-linecap:round;stroke-linejoin:miter;stroke-miterlimit:4;stroke-dasharray:none;stroke-opacity:1" />
      <path
         inkscape:connector-curvature="0"
         id="path3400"
         d="m 80,952.36216 0,10"
         style="fill:none;fill-rule:evenodd;stroke:#000000;stroke-width:0.5;stroke-linecap:round;stroke-linejoin:miter;stroke-miterlimit:4;stroke-dasharray:none;stroke-opacity:1" />
      <path
         inkscape:connector-curvature="0"
         id="path3402"
         d="m 90,952.36216 0,10"
         style="fill:none;fill-rule:evenodd;stroke:#000000;stroke-width:0.5;stroke-linecap:round;stroke-linejoin:miter;stroke-miterlimit:4;stroke-dasharray:none;stroke-opacity:1" />
      <path
         inkscape:connector-curvature="0"
         id="path3404"
         d="m 100,952.36216 0,10"
         style="fill:none;fill-rule:evenodd;stroke:#000000;stroke-width:0.5;stroke-linecap:round;stroke-linejoin:miter;stroke-miterlimit:4;stroke-dasharray:none;stroke-opacity:1" />
    </g>
    <path
       style="fill:none;fill-rule:evenodd;stroke:#000000;stroke-width:0.5;stroke-linecap:round;stroke-linejoin:miter;stroke-miterlimit:4;stroke-dasharray:none;stroke-opacity:1;marker-end:url(#marker10792)"
       d="m 55,964.36216 0,6"
       id="path3406"
       inkscape:connector-curvature="0" />
    <path
       style="fill:none;fill-rule:evenodd;stroke:#000000;stroke-width:0.5;stroke-linecap:round;stroke-linejoin:miter;stroke-miterlimit:4;stroke-dasharray:none;stroke-opacity:1;marker-end:url(#marker10524)"
       d="m 63,964.36216 -6,6"
       id="path3408"
       inkscape:connector-curvature="0" />
    <path
       style="fill:none;fill-rule:evenodd;stroke:#000000;stroke-width:0.5;stroke-linecap:round;stroke-linejoin:miter;stroke-miterlimit:4;stroke-dasharray:none;stroke-opacity:1;marker-end:url(#marker10262)"
       d="m 47,964.36216 6,6"
       id="path3410"
       inkscape:connector-curvature="0" />
    <path
       style="fill:none;fill-rule:evenodd;stroke:#000000;stroke-width:0.5;stroke-linecap:round;stroke-linejoin:miter;stroke-miterlimit:4;stroke-dasharray:none;stroke-opacity:1;marker-end:url(#marker8174)"
       d="m 45,984.36216 0,6"
       id="path3412"
       inkscape:connector-curvature="0"
       sodipodi:nodetypes="cc" />
    <path
       style="fill:none;fill-rule:evenodd;stroke:#000000;stroke-width:0.5;stroke-linecap:round;stroke-linejoin:miter;stroke-miterlimit:4;stroke-dasharray:none;stroke-opacity:1;marker-end:url(#marker9512)"
       d="m 65,984.36216 0,6"
       id="path3420"
       inkscape:connector-curvature="0"
       sodipodi:nodetypes="cc" />
    <path
       style="fill:none;fill-rule:evenodd;stroke:#000000;stroke-width:0.5;stroke-linecap:round;stroke-linejoin:miter;stroke-miterlimit:4;stroke-dasharray:none;stroke-opacity:1;marker-end:url(#marker9274)"
       d="m 73,984.36216 -6,6"
       id="path3422"
       inkscape:connector-curvature="0"
       sodipodi:nodetypes="cc" />
    <path
       style="fill:none;fill-rule:evenodd;stroke:#000000;stroke-width:0.5;stroke-linecap:round;stroke-linejoin:miter;stroke-miterlimit:4;stroke-dasharray:none;stroke-opacity:1;marker-end:url(#marker7972)"
       d="m 37,984.36216 6,6"
       id="path3424"
       inkscape:connector-curvature="0"
       sodipodi:nodetypes="cc" />
    <path
       style="fill:none;fill-rule:evenodd;stroke:#000000;stroke-width:0.5;stroke-linecap:round;stroke-linejoin:miter;stroke-miterlimit:4;stroke-dasharray:none;stroke-opacity:1;marker-end:url(#marker7208)"
       d="m 55,1004.3622 0,6"
       id="path3428"
       inkscape:connector-curvature="0"
       sodipodi:nodetypes="cc" />
    <path
       style="fill:#999999;fill-rule:evenodd;stroke:#999999;stroke-width:0.5;stroke-linecap:round;stroke-linejoin:miter;stroke-miterlimit:4;stroke-dasharray:1, 1;stroke-dashoffset:0;stroke-opacity:1;marker-end:url(#marker14136)"
       d="m 65,1024.3622 0,6"
       id="path3430"
       inkscape:connector-curvature="0"
       sodipodi:nodetypes="cc" />
    <path
       style="fill:none;fill-rule:evenodd;stroke:#999999;stroke-width:0.5;stroke-linecap:round;stroke-linejoin:miter;stroke-miterlimit:4;stroke-dasharray:1, 1;stroke-dashoffset:0;stroke-opacity:1;marker-end:url(#marker7386)"
       d="m 45,1024.3622 0,6"
       id="path3432"
       inkscape:connector-curvature="0"
       sodipodi:nodetypes="cc" />
    <path
       style="fill:none;fill-rule:evenodd;stroke:#000000;stroke-width:0.5;stroke-linecap:round;stroke-linejoin:miter;stroke-miterlimit:4;stroke-dasharray:none;stroke-opacity:1;marker-end:url(#marker10006)"
       d="m 53,984.36216 -6,6"
       id="path3434"
       inkscape:connector-curvature="0" />
    <path
       style="fill:none;fill-rule:evenodd;stroke:#000000;stroke-width:0.5;stroke-linecap:round;stroke-linejoin:miter;stroke-miterlimit:4;stroke-dasharray:none;stroke-opacity:1;marker-end:url(#marker9756)"
       d="m 57,984.36216 6,6"
       id="path3436"
       inkscape:connector-curvature="0" />
    <path
       style="fill:none;fill-rule:evenodd;stroke:#000000;stroke-width:0.5;stroke-linecap:round;stroke-linejoin:miter;stroke-miterlimit:4;stroke-dasharray:none;stroke-opacity:1;marker-end:url(#marker11924)"
       d="m 67,1004.3622 6,6"
       id="path3440"
       inkscape:connector-curvature="0" />
    <path
       style="fill:none;fill-rule:evenodd;stroke:#000000;stroke-width:0.5;stroke-linecap:round;stroke-linejoin:miter;stroke-miterlimit:4;stroke-dasharray:none;stroke-opacity:1;marker-end:url(#marker11632)"
       d="m 47,1004.3622 6,6"
       id="path3442"
       inkscape:connector-curvature="0" />
    <path
       style="fill:none;fill-rule:evenodd;stroke:#000000;stroke-width:0.5;stroke-linecap:round;stroke-linejoin:miter;stroke-miterlimit:4;stroke-dasharray:none;stroke-opacity:1;marker-end:url(#marker11346)"
       d="m 63,1004.3622 -6,6"
       id="path3444"
       inkscape:connector-curvature="0" />
    <path
       style="fill:none;fill-rule:evenodd;stroke:#000000;stroke-width:0.5;stroke-linecap:round;stroke-linejoin:miter;stroke-miterlimit:4;stroke-dasharray:none;stroke-opacity:1;marker-end:url(#marker11066)"
       d="m 43,1004.3622 -6,6"
       id="path3446"
       inkscape:connector-curvature="0" />
    <path
       style="fill:none;fill-rule:evenodd;stroke:#000000;stroke-width:0.5;stroke-linecap:round;stroke-linejoin:miter;stroke-miterlimit:4;stroke-dasharray:none;stroke-opacity:1;marker-end:url(#marker7776)"
       d="m 35,1004.3622 0,6"
       id="path3448"
       inkscape:connector-curvature="0"
       sodipodi:nodetypes="cc" />
    <path
       style="fill:none;fill-rule:evenodd;stroke:#000000;stroke-width:0.5;stroke-linecap:round;stroke-linejoin:miter;stroke-miterlimit:4;stroke-dasharray:none;stroke-opacity:1;marker-end:url(#marker9042)"
       d="m 75,1004.3622 0,6"
       id="path3450"
       inkscape:connector-curvature="0"
       sodipodi:nodetypes="cc" />
    <path
       style="fill:none;fill-rule:evenodd;stroke:#999999;stroke-width:0.5;stroke-linecap:round;stroke-linejoin:miter;stroke-miterlimit:4;stroke-dasharray:1, 1;stroke-dashoffset:0;stroke-opacity:1;marker-end:url(#marker13802)"
       d="m 33,1024.3622 -6,6"
       id="path3458"
       inkscape:connector-curvature="0" />
    <path
       style="fill:none;fill-rule:evenodd;stroke:#999999;stroke-width:0.5;stroke-linecap:round;stroke-linejoin:miter;stroke-miterlimit:4;stroke-dasharray:1, 1;stroke-dashoffset:0;stroke-opacity:1;marker-end:url(#marker13474)"
       d="m 37,1024.3622 6,6"
       id="path3460"
       inkscape:connector-curvature="0" />
    <path
       style="fill:none;fill-rule:evenodd;stroke:#999999;stroke-width:0.5;stroke-linecap:round;stroke-linejoin:miter;stroke-miterlimit:4;stroke-dasharray:1, 1;stroke-dashoffset:0;stroke-opacity:1;marker-end:url(#marker13152)"
       d="m 53,1024.3622 -6,6"
       id="path3462"
       inkscape:connector-curvature="0" />
    <path
       style="fill:none;fill-rule:evenodd;stroke:#999999;stroke-width:0.5;stroke-linecap:round;stroke-linejoin:miter;stroke-miterlimit:4;stroke-dasharray:1, 1;stroke-dashoffset:0;stroke-opacity:1;marker-end:url(#marker12836)"
       d="m 57,1024.3622 6,6"
       id="path3464"
       inkscape:connector-curvature="0" />
    <path
       style="fill:none;fill-rule:evenodd;stroke:#999999;stroke-width:0.5;stroke-linecap:round;stroke-linejoin:miter;stroke-miterlimit:4;stroke-dasharray:1, 1;stroke-dashoffset:0;stroke-opacity:1;marker-end:url(#marker12526)"
       d="m 73,1024.3622 -6,6"
       id="path3466"
       inkscape:connector-curvature="0" />
    <path
       style="fill:none;fill-rule:evenodd;stroke:#999999;stroke-width:0.5;stroke-linecap:round;stroke-linejoin:miter;stroke-miterlimit:4;stroke-dasharray:1, 1;stroke-dashoffset:0;stroke-opacity:1;marker-end:url(#marker12222)"
       d="m 77,1024.3622 6,6"
       id="path3468"
       inkscape:connector-curvature="0" />
    <path
       style="fill:none;fill-rule:evenodd;stroke:#999999;stroke-width:0.5;stroke-linecap:round;stroke-linejoin:miter;stroke-miterlimit:4;stroke-dasharray:1, 1;stroke-dashoffset:0;stroke-opacity:1;marker-end:url(#marker8596)"
       d="m 85,1024.3622 0,6"
       id="path3470"
       inkscape:connector-curvature="0"
       sodipodi:nodetypes="cc" />
    <path
       style="fill:none;fill-rule:evenodd;stroke:#000000;stroke-width:0.5;stroke-linecap:round;stroke-linejoin:miter;stroke-miterlimit:4;stroke-dasharray:none;stroke-opacity:1;marker-end:url(#marker8816)"
       d="m 83,1004.3622 -6,6"
       id="path3472"
       inkscape:connector-curvature="0"
       sodipodi:nodetypes="cc" />
    <path
       style="fill:none;fill-rule:evenodd;stroke:#000000;stroke-width:0.5;stroke-linecap:round;stroke-linejoin:miter;stroke-miterlimit:4;stroke-dasharray:none;stroke-opacity:1;marker-end:url(#marker7766)"
       d="m 27,1004.3622 6,6"
       id="path3474"
       inkscape:connector-curvature="0"
       sodipodi:nodetypes="cc" />
    <path
       style="fill:none;fill-rule:evenodd;stroke:#999999;stroke-width:0.5;stroke-linecap:round;stroke-linejoin:miter;stroke-miterlimit:4;stroke-dasharray:1, 1;stroke-dashoffset:0;stroke-opacity:1;marker-end:url(#marker7024)"
       d="m 25,1024.3622 0,6"
       id="path3476"
       inkscape:connector-curvature="0"
       sodipodi:nodetypes="cc" />
    <path
       style="fill:none;fill-rule:evenodd;stroke:#999999;stroke-width:0.5;stroke-linecap:round;stroke-linejoin:miter;stroke-miterlimit:4;stroke-dasharray:1, 1;stroke-dashoffset:0;stroke-opacity:1;marker-end:url(#marker7570)"
       d="m 16.99999,1024.3622 6.00002,6"
       id="path3478"
       inkscape:connector-curvature="0"
       sodipodi:nodetypes="cc" />
    <path
       style="fill:none;fill-rule:evenodd;stroke:#999999;stroke-width:0.5;stroke-linecap:round;stroke-linejoin:miter;stroke-miterlimit:4;stroke-dasharray:1, 1;stroke-dashoffset:0;stroke-opacity:1;marker-end:url(#marker8382)"
       d="m 93,1024.3622 -6,6"
       id="path3488"
       inkscape:connector-curvature="0"
       sodipodi:nodetypes="cc" />
    <g
       style="font-style:normal;font-variant:normal;font-weight:500;font-stretch:normal;font-size:6.25px;line-height:125%;font-family:'CMU Serif';-inkscape-font-specification:'CMU Serif Medium';text-align:center;letter-spacing:0px;word-spacing:0px;text-anchor:middle;fill:#000000;fill-opacity:1;stroke:none;stroke-width:1px;stroke-linecap:butt;stroke-linejoin:miter;stroke-opacity:1"
       id="text3490">
      <path
         d="m 11.519727,959.56165 0,-0.19375 0.15,0 q 0.3375,0 0.4125,-0.0562 0.08125,-0.0562 0.08125,-0.2375 l 0,-3.275 q 0,-0.18125 -0.08125,-0.2375 -0.075,-0.0562 -0.4125,-0.0562 l -0.15,0 0,-0.19375 3.51875,0 0.175,1.40625 -0.15625,0 q -0.04375,-0.35625 -0.1,-0.5625 -0.05625,-0.20625 -0.19375,-0.3625 -0.13125,-0.1625 -0.35625,-0.225 -0.21875,-0.0625 -0.575,-0.0625 l -0.80625,0 q -0.2125,0 -0.2625,0.0438 -0.04375,0.0437 -0.04375,0.20625 l 0,1.5 0.5625,0 q 0.43125,0 0.55,-0.15 0.125,-0.15 0.125,-0.58125 l 0.15625,0 0,1.65625 -0.15625,0 q 0,-0.425 -0.125,-0.575 -0.11875,-0.15625 -0.55,-0.15625 l -0.5625,0 0,1.66875 q 0,0.1625 0.04375,0.20625 0.05,0.0437 0.2625,0.0437 l 0.83125,0 q 0.26875,0 0.4625,-0.0312 0.2,-0.0375 0.3375,-0.125 0.1375,-0.0875 0.23125,-0.1875 0.09375,-0.1 0.15625,-0.28125 0.06875,-0.18125 0.10625,-0.35 0.0375,-0.16875 0.08125,-0.44375 l 0.15625,0 -0.2625,1.6125 -3.60625,0 z"
         style="font-size:6.25px"
         id="path16253" />
      <path
         d="m 15.805273,957.56165 q 0,-0.91875 0.23125,-1.41875 0.325,-0.74375 1.0875,-0.74375 0.1625,0 0.33125,0.0438 0.16875,0.0438 0.38125,0.2125 0.21875,0.16875 0.35,0.44375 0.25,0.53125 0.25,1.4625 0,0.9125 -0.23125,1.4125 -0.3375,0.725 -1.0875,0.725 -0.28125,0 -0.56875,-0.14375 -0.28125,-0.14375 -0.4625,-0.4875 -0.28125,-0.51875 -0.28125,-1.50625 z m 0.51875,-0.075 q 0,0.94375 0.06875,1.31875 0.075,0.40625 0.28125,0.58125 0.2125,0.175 0.44375,0.175 0.25,0 0.45625,-0.1875 0.2125,-0.1875 0.275,-0.59375 0.06875,-0.4 0.06875,-1.29375 0,-0.86875 -0.0625,-1.21875 -0.08125,-0.40625 -0.3,-0.56875 -0.21875,-0.1625 -0.4375,-0.1625 -0.08125,0 -0.16875,0.025 -0.0875,0.025 -0.2125,0.0937 -0.125,0.0688 -0.225,0.24375 -0.09375,0.175 -0.1375,0.4375 -0.05,0.3375 -0.05,1.15 z"
         style="font-size:6.25px"
         id="path16255" />
    </g>
    <g
       style="font-style:normal;font-variant:normal;font-weight:500;font-stretch:normal;font-size:6.25px;line-height:125%;font-family:'CMU Serif';-inkscape-font-specification:'CMU Serif Medium';text-align:center;letter-spacing:0px;word-spacing:0px;text-anchor:middle;fill:#000000;fill-opacity:1;stroke:none;stroke-width:1px;stroke-linecap:butt;stroke-linejoin:miter;stroke-opacity:1"
       id="text3494">
      <path
         d="m 21.269775,959.56165 0,-0.19375 0.15,0 q 0.3375,0 0.4125,-0.0562 0.08125,-0.0562 0.08125,-0.2375 l 0,-3.29375 q 0,-0.18125 -0.08125,-0.2375 -0.075,-0.0562 -0.4125,-0.0562 l -0.15,0 0,-0.19375 2.2875,0 q 0.8,0 1.35625,0.6375 0.55625,0.6375 0.55625,1.53125 0,0.875 -0.5625,1.4875 -0.55625,0.6125 -1.35,0.6125 l -2.2875,0 z m 1.18125,-0.44375 q 0,0.1625 0.04375,0.20625 0.05,0.0437 0.2625,0.0437 l 0.63125,0 q 0.4125,0 0.6875,-0.16875 0.28125,-0.16875 0.425,-0.3625 0.34375,-0.46875 0.34375,-1.375 0,-0.95 -0.325,-1.39375 -0.41875,-0.58125 -1.1375,-0.58125 l -0.625,0 q -0.2125,0 -0.2625,0.0437 -0.04375,0.0438 -0.04375,0.20625 l 0,3.38125 z"
         style=""
         id="path16248" />
      <path
         d="m 26.067725,957.56165 q 0,-0.91875 0.23125,-1.41875 0.325,-0.74375 1.0875,-0.74375 0.1625,0 0.33125,0.0438 0.16875,0.0438 0.38125,0.2125 0.21875,0.16875 0.35,0.44375 0.25,0.53125 0.25,1.4625 0,0.9125 -0.23125,1.4125 -0.3375,0.725 -1.0875,0.725 -0.28125,0 -0.56875,-0.14375 -0.28125,-0.14375 -0.4625,-0.4875 -0.28125,-0.51875 -0.28125,-1.50625 z m 0.51875,-0.075 q 0,0.94375 0.06875,1.31875 0.075,0.40625 0.28125,0.58125 0.2125,0.175 0.44375,0.175 0.25,0 0.45625,-0.1875 0.2125,-0.1875 0.275,-0.59375 0.06875,-0.4 0.06875,-1.29375 0,-0.86875 -0.0625,-1.21875 -0.08125,-0.40625 -0.3,-0.56875 -0.21875,-0.1625 -0.4375,-0.1625 -0.08125,0 -0.16875,0.025 -0.0875,0.025 -0.2125,0.0937 -0.125,0.0688 -0.225,0.24375 -0.09375,0.175 -0.1375,0.4375 -0.05,0.3375 -0.05,1.15 z"
         style=""
         id="path16250" />
    </g>
    <g
       style="font-style:normal;font-variant:normal;font-weight:500;font-stretch:normal;font-size:6.25px;line-height:125%;font-family:'CMU Serif';-inkscape-font-specification:'CMU Serif Medium';text-align:center;letter-spacing:0px;word-spacing:0px;text-anchor:middle;fill:#000000;fill-opacity:1;stroke:none;stroke-width:1px;stroke-linecap:butt;stroke-linejoin:miter;stroke-opacity:1"
       id="text3498">
      <path
         d="m 31.529199,957.42415 q 0,-0.94375 0.64375,-1.60625 0.64375,-0.6625 1.53125,-0.6625 0.275,0 0.51875,0.1 0.24375,0.1 0.35625,0.1875 0.1125,0.0875 0.275,0.25 l 0.3125,-0.4625 q 0.05,-0.075 0.1,-0.075 0.05,0 0.05625,0.0312 0.0125,0.025 0.0125,0.11875 l 0,1.48125 q 0,0.1 -0.0125,0.125 -0.0125,0.025 -0.0875,0.025 -0.0625,0 -0.075,-0.0187 -0.0125,-0.0188 -0.025,-0.0875 -0.09375,-0.675 -0.46875,-1.075 -0.375,-0.40625 -0.89375,-0.40625 -0.15,0 -0.31875,0.0375 -0.1625,0.0312 -0.40625,0.1625 -0.2375,0.125 -0.425,0.3375 -0.18125,0.2125 -0.31875,0.6125 -0.13125,0.4 -0.13125,0.93125 0,0.525 0.13125,0.93125 0.1375,0.4 0.31875,0.6125 0.1875,0.20625 0.425,0.3375 0.24375,0.125 0.4125,0.1625 0.16875,0.0312 0.31875,0.0312 0.5375,0 0.95,-0.38125 0.4125,-0.38125 0.45,-1.025 0.0063,-0.0312 0.0063,-0.0438 0,-0.0125 0.0063,-0.025 0.0063,-0.0187 0.01875,-0.025 0.01875,-0.006 0.04375,-0.006 0.08125,0 0.08125,0.10625 0,0.59375 -0.45625,1.09375 -0.45625,0.5 -1.175,0.5 -0.8875,0 -1.53125,-0.65625 -0.64375,-0.6625 -0.64375,-1.61875 z"
         style=""
         id="path16243" />
      <path
         d="m 35.939551,957.56165 q 0,-0.91875 0.23125,-1.41875 0.325,-0.74375 1.0875,-0.74375 0.1625,0 0.33125,0.0438 0.16875,0.0438 0.38125,0.2125 0.21875,0.16875 0.35,0.44375 0.25,0.53125 0.25,1.4625 0,0.9125 -0.23125,1.4125 -0.3375,0.725 -1.0875,0.725 -0.28125,0 -0.56875,-0.14375 -0.28125,-0.14375 -0.4625,-0.4875 -0.28125,-0.51875 -0.28125,-1.50625 z m 0.51875,-0.075 q 0,0.94375 0.06875,1.31875 0.075,0.40625 0.28125,0.58125 0.2125,0.175 0.44375,0.175 0.25,0 0.45625,-0.1875 0.2125,-0.1875 0.275,-0.59375 0.06875,-0.4 0.06875,-1.29375 0,-0.86875 -0.0625,-1.21875 -0.08125,-0.40625 -0.3,-0.56875 -0.21875,-0.1625 -0.4375,-0.1625 -0.08125,0 -0.16875,0.025 -0.0875,0.025 -0.2125,0.0937 -0.125,0.0688 -0.225,0.24375 -0.09375,0.175 -0.1375,0.4375 -0.05,0.3375 -0.05,1.15 z"
         style=""
         id="path16245" />
    </g>
    <g
       style="font-style:normal;font-variant:normal;font-weight:500;font-stretch:normal;font-size:6.25px;line-height:125%;font-family:'CMU Serif';-inkscape-font-specification:'CMU Serif Medium';text-align:center;letter-spacing:0px;word-spacing:0px;text-anchor:middle;fill:#000000;fill-opacity:1;stroke:none;stroke-width:1px;stroke-linecap:butt;stroke-linejoin:miter;stroke-opacity:1"
       id="text3502">
      <path
         d="m 41.446924,959.56165 0,-0.19375 0.15,0 q 0.3375,0 0.4125,-0.0562 0.08125,-0.0562 0.08125,-0.2375 l 0,-3.29375 q 0,-0.18125 -0.08125,-0.2375 -0.075,-0.0562 -0.4125,-0.0562 l -0.15,0 0,-0.19375 2.2875,0 q 0.59375,0 0.9875,0.31875 0.4,0.31875 0.4,0.7375 0,0.34375 -0.29375,0.61875 -0.2875,0.275 -0.74375,0.3625 0.51875,0.0562 0.8625,0.36875 0.34375,0.3125 0.34375,0.71875 0,0.45625 -0.39375,0.8 -0.39375,0.34375 -1,0.34375 l -2.45,0 z m 1.1625,-0.44375 q 0,0.1625 0.04375,0.20625 0.05,0.0437 0.2625,0.0437 l 0.78125,0 q 0.45,0 0.70625,-0.29375 0.2625,-0.29375 0.2625,-0.6625 0,-0.36875 -0.23125,-0.68125 -0.225,-0.31875 -0.65,-0.31875 l -1.175,0 0,1.70625 z m 0,-1.84375 0.90625,0 q 0.48125,0 0.7375,-0.2875 0.2625,-0.29375 0.2625,-0.6375 0,-0.30625 -0.20625,-0.58125 -0.20625,-0.28125 -0.61875,-0.28125 l -0.775,0 q -0.2125,0 -0.2625,0.0437 -0.04375,0.0438 -0.04375,0.20625 l 0,1.5375 z"
         style=""
         id="path16238" />
      <path
         d="m 45.896826,957.56165 q 0,-0.91875 0.23125,-1.41875 0.325,-0.74375 1.0875,-0.74375 0.1625,0 0.33125,0.0438 0.16875,0.0438 0.38125,0.2125 0.21875,0.16875 0.35,0.44375 0.25,0.53125 0.25,1.4625 0,0.9125 -0.23125,1.4125 -0.3375,0.725 -1.0875,0.725 -0.28125,0 -0.56875,-0.14375 -0.28125,-0.14375 -0.4625,-0.4875 -0.28125,-0.51875 -0.28125,-1.50625 z m 0.51875,-0.075 q 0,0.94375 0.06875,1.31875 0.075,0.40625 0.28125,0.58125 0.2125,0.175 0.44375,0.175 0.25,0 0.45625,-0.1875 0.2125,-0.1875 0.275,-0.59375 0.06875,-0.4 0.06875,-1.29375 0,-0.86875 -0.0625,-1.21875 -0.08125,-0.40625 -0.3,-0.56875 -0.21875,-0.1625 -0.4375,-0.1625 -0.08125,0 -0.16875,0.025 -0.0875,0.025 -0.2125,0.0937 -0.125,0.0688 -0.225,0.24375 -0.09375,0.175 -0.1375,0.4375 -0.05,0.3375 -0.05,1.15 z"
         style=""
         id="path16240" />
    </g>
    <g
       style="font-style:normal;font-variant:normal;font-weight:500;font-stretch:normal;font-size:6.25px;line-height:125%;font-family:'CMU Serif';-inkscape-font-specification:'CMU Serif Medium';text-align:center;letter-spacing:0px;word-spacing:0px;text-anchor:middle;fill:#000000;fill-opacity:1;stroke:none;stroke-width:1px;stroke-linecap:butt;stroke-linejoin:miter;stroke-opacity:1"
       id="text3506">
      <path
         d="m 51.29375,959.56165 0,-0.19375 q 0.55625,-0.0125 0.7,-0.41875 l 1.29375,-3.7375 q 0.025,-0.075 0.05,-0.1 0.03125,-0.025 0.1,-0.025 0.0375,0 0.05625,0.006 0.025,0.006 0.0375,0.0312 0.01875,0.0188 0.025,0.0312 0.0063,0.0125 0.025,0.0562 l 1.35,3.90625 q 0.05,0.15625 0.15,0.20625 0.1,0.0437 0.38125,0.0437 l 0.1125,0 0,0.19375 q -0.39375,-0.0187 -0.81875,-0.0187 -0.675,0 -0.9,0.0187 l 0,-0.19375 q 0.51875,0 0.51875,-0.1875 0,-0.0125 -0.01875,-0.0875 l -0.33125,-0.95625 -1.54375,0 -0.2875,0.81875 q -0.0125,0.025 -0.0125,0.0937 0,0.13125 0.11875,0.225 0.125,0.0937 0.35,0.0937 l 0,0.19375 q -0.6,-0.0187 -0.71875,-0.0187 -0.20625,0 -0.6375,0.0187 z m 1.25625,-1.61875 1.40625,0 -0.70625,-2.03125 -0.7,2.03125 z"
         style=""
         id="path16233" />
      <path
         d="m 56.025,957.56165 q 0,-0.91875 0.23125,-1.41875 0.325,-0.74375 1.0875,-0.74375 0.1625,0 0.33125,0.0438 0.16875,0.0438 0.38125,0.2125 0.21875,0.16875 0.35,0.44375 0.25,0.53125 0.25,1.4625 0,0.9125 -0.23125,1.4125 -0.3375,0.725 -1.0875,0.725 -0.28125,0 -0.56875,-0.14375 -0.28125,-0.14375 -0.4625,-0.4875 -0.28125,-0.51875 -0.28125,-1.50625 z m 0.51875,-0.075 q 0,0.94375 0.06875,1.31875 0.075,0.40625 0.28125,0.58125 0.2125,0.175 0.44375,0.175 0.25,0 0.45625,-0.1875 0.2125,-0.1875 0.275,-0.59375 0.06875,-0.4 0.06875,-1.29375 0,-0.86875 -0.0625,-1.21875 -0.08125,-0.40625 -0.3,-0.56875 -0.21875,-0.1625 -0.4375,-0.1625 -0.08125,0 -0.16875,0.025 -0.0875,0.025 -0.2125,0.0937 -0.125,0.0688 -0.225,0.24375 -0.09375,0.175 -0.1375,0.4375 -0.05,0.3375 -0.05,1.15 z"
         style=""
         id="path16235" />
    </g>
    <g
       style="font-style:normal;font-variant:normal;font-weight:500;font-stretch:normal;font-size:6.25px;line-height:125%;font-family:'CMU Serif';-inkscape-font-specification:'CMU Serif Medium';text-align:center;letter-spacing:0px;word-spacing:0px;text-anchor:middle;fill:#000000;fill-opacity:1;stroke:none;stroke-width:1px;stroke-linecap:butt;stroke-linejoin:miter;stroke-opacity:1"
       id="text3510">
      <path
         d="m 61.29375,959.56165 0,-0.19375 q 0.55625,-0.0125 0.7,-0.41875 l 1.29375,-3.7375 q 0.025,-0.075 0.05,-0.1 0.03125,-0.025 0.1,-0.025 0.0375,0 0.05625,0.006 0.025,0.006 0.0375,0.0312 0.01875,0.0188 0.025,0.0312 0.0063,0.0125 0.025,0.0562 l 1.35,3.90625 q 0.05,0.15625 0.15,0.20625 0.1,0.0437 0.38125,0.0437 l 0.1125,0 0,0.19375 q -0.39375,-0.0187 -0.81875,-0.0187 -0.675,0 -0.9,0.0187 l 0,-0.19375 q 0.51875,0 0.51875,-0.1875 0,-0.0125 -0.01875,-0.0875 l -0.33125,-0.95625 -1.54375,0 -0.2875,0.81875 q -0.0125,0.025 -0.0125,0.0937 0,0.13125 0.11875,0.225 0.125,0.0937 0.35,0.0937 l 0,0.19375 q -0.6,-0.0187 -0.71875,-0.0187 -0.20625,0 -0.6375,0.0187 z m 1.25625,-1.61875 1.40625,0 -0.70625,-2.03125 -0.7,2.03125 z"
         style=""
         id="path16228" />
      <path
         d="m 66.3375,955.9929 0,-0.19375 q 0.75,0 1.1375,-0.4 0.10625,0 0.125,0.025 0.01875,0.025 0.01875,0.1375 l 0,3.50625 q 0,0.1875 0.0875,0.24375 0.09375,0.0562 0.49375,0.0562 l 0.2,0 0,0.19375 q -0.21875,-0.0187 -1.0125,-0.0187 -0.79375,0 -1.0125,0.0187 l 0,-0.19375 0.2,0 q 0.39375,0 0.4875,-0.0562 0.09375,-0.0562 0.09375,-0.24375 l 0,-3.2375 q -0.325,0.1625 -0.81875,0.1625 z"
         style=""
         id="path16230" />
    </g>
    <g
       style="font-style:normal;font-variant:normal;font-weight:500;font-stretch:normal;font-size:6.25px;line-height:125%;font-family:'CMU Serif';-inkscape-font-specification:'CMU Serif Medium';text-align:center;letter-spacing:0px;word-spacing:0px;text-anchor:middle;fill:#000000;fill-opacity:1;stroke:none;stroke-width:1px;stroke-linecap:butt;stroke-linejoin:miter;stroke-opacity:1"
       id="text3514">
      <path
         d="m 71.29375,959.56165 0,-0.19375 q 0.55625,-0.0125 0.7,-0.41875 l 1.29375,-3.7375 q 0.025,-0.075 0.05,-0.1 0.03125,-0.025 0.1,-0.025 0.0375,0 0.05625,0.006 0.025,0.006 0.0375,0.0312 0.01875,0.0188 0.025,0.0312 0.0062,0.0125 0.025,0.0562 l 1.35,3.90625 q 0.05,0.15625 0.15,0.20625 0.1,0.0437 0.38125,0.0437 l 0.1125,0 0,0.19375 q -0.39375,-0.0187 -0.81875,-0.0187 -0.675,0 -0.9,0.0187 l 0,-0.19375 q 0.51875,0 0.51875,-0.1875 0,-0.0125 -0.01875,-0.0875 l -0.33125,-0.95625 -1.54375,0 -0.2875,0.81875 q -0.0125,0.025 -0.0125,0.0937 0,0.13125 0.11875,0.225 0.125,0.0937 0.35,0.0937 l 0,0.19375 q -0.6,-0.0187 -0.71875,-0.0187 -0.20625,0 -0.6375,0.0187 z m 1.25625,-1.61875 1.40625,0 -0.70625,-2.03125 -0.7,2.03125 z"
         style=""
         id="path16223" />
      <path
         d="m 76.09375,959.56165 q 0,-0.1125 0.0062,-0.14375 0.0125,-0.0375 0.0625,-0.0875 l 1.2,-1.3375 q 0.65625,-0.7375 0.65625,-1.38125 0,-0.41875 -0.21875,-0.71875 -0.21875,-0.3 -0.61875,-0.3 -0.275,0 -0.50625,0.16875 -0.23125,0.16875 -0.3375,0.46875 0.01875,-0.006 0.08125,-0.006 0.15625,0 0.24375,0.1 0.0875,0.0937 0.0875,0.225 0,0.16875 -0.1125,0.25 -0.10625,0.0812 -0.2125,0.0812 -0.04375,0 -0.1,-0.006 -0.05625,-0.0125 -0.14375,-0.1 -0.0875,-0.0875 -0.0875,-0.24375 0,-0.4375 0.33125,-0.78125 0.33125,-0.35 0.8375,-0.35 0.575,0 0.95,0.34375 0.375,0.3375 0.375,0.86875 0,0.1875 -0.05625,0.35625 -0.05625,0.16875 -0.13125,0.3 -0.075,0.13125 -0.275,0.34375 -0.2,0.20625 -0.3625,0.35625 -0.1625,0.15 -0.525,0.46875 l -0.6625,0.64375 1.125,0 q 0.55,0 0.59375,-0.05 0.0625,-0.0875 0.1375,-0.55625 l 0.15625,0 -0.175,1.0875 -2.31875,0 z"
         style=""
         id="path16225" />
    </g>
    <g
       style="font-style:normal;font-variant:normal;font-weight:500;font-stretch:normal;font-size:6.25px;line-height:125%;font-family:'CMU Serif';-inkscape-font-specification:'CMU Serif Medium';text-align:center;letter-spacing:0px;word-spacing:0px;text-anchor:middle;fill:#000000;fill-opacity:1;stroke:none;stroke-width:1px;stroke-linecap:butt;stroke-linejoin:miter;stroke-opacity:1"
       id="text3518">
      <path
         d="m 81.29375,959.56165 0,-0.19375 q 0.55625,-0.0125 0.7,-0.41875 l 1.29375,-3.7375 q 0.025,-0.075 0.05,-0.1 0.03125,-0.025 0.1,-0.025 0.0375,0 0.05625,0.006 0.025,0.006 0.0375,0.0312 0.01875,0.0188 0.025,0.0312 0.0062,0.0125 0.025,0.0562 l 1.35,3.90625 q 0.05,0.15625 0.15,0.20625 0.1,0.0437 0.38125,0.0437 l 0.1125,0 0,0.19375 q -0.39375,-0.0187 -0.81875,-0.0187 -0.675,0 -0.9,0.0187 l 0,-0.19375 q 0.51875,0 0.51875,-0.1875 0,-0.0125 -0.01875,-0.0875 l -0.33125,-0.95625 -1.54375,0 -0.2875,0.81875 q -0.0125,0.025 -0.0125,0.0937 0,0.13125 0.11875,0.225 0.125,0.0937 0.35,0.0937 l 0,0.19375 q -0.6,-0.0187 -0.71875,-0.0187 -0.20625,0 -0.6375,0.0187 z m 1.25625,-1.61875 1.40625,0 -0.70625,-2.03125 -0.7,2.03125 z"
         style=""
         id="path16218" />
      <path
         d="m 86.04375,958.7179 q 0,-0.1875 0.10625,-0.275 0.10625,-0.0875 0.24375,-0.0875 0.14375,0 0.24375,0.0937 0.10625,0.0937 0.10625,0.25625 0,0.175 -0.125,0.275 -0.11875,0.0937 -0.2875,0.0688 0.15,0.25 0.425,0.3625 0.275,0.1125 0.53125,0.1125 0.26875,0 0.4875,-0.23125 0.21875,-0.23125 0.21875,-0.8 0,-0.48125 -0.1875,-0.75625 -0.1875,-0.28125 -0.55625,-0.28125 l -0.275,0 q -0.09375,0 -0.125,-0.006 -0.025,-0.0125 -0.025,-0.0625 0,-0.0625 0.09375,-0.075 0.09375,0 0.24375,-0.0187 0.3625,-0.0125 0.55625,-0.325 0.175,-0.29375 0.175,-0.7125 0,-0.38125 -0.18125,-0.5375 -0.18125,-0.1625 -0.41875,-0.1625 -0.21875,0 -0.4625,0.0937 -0.2375,0.0875 -0.36875,0.29375 0.3875,0 0.3875,0.3125 0,0.1375 -0.0875,0.23125 -0.0875,0.0875 -0.23125,0.0875 -0.1375,0 -0.23125,-0.0875 -0.0875,-0.0875 -0.0875,-0.2375 0,-0.35625 0.31875,-0.6 0.31875,-0.25 0.7875,-0.25 0.4625,0 0.80625,0.24375 0.34375,0.24375 0.34375,0.61875 0,0.36875 -0.24375,0.675 -0.24375,0.3 -0.63125,0.425 0.475,0.0937 0.75625,0.41875 0.2875,0.31875 0.2875,0.7125 0,0.4875 -0.3875,0.85 -0.38125,0.35625 -0.94375,0.35625 -0.51875,0 -0.89375,-0.28125 -0.36875,-0.28125 -0.36875,-0.7 z"
         style=""
         id="path16220" />
    </g>
    <g
       style="font-style:normal;font-variant:normal;font-weight:500;font-stretch:normal;font-size:6.25px;line-height:125%;font-family:'CMU Serif';-inkscape-font-specification:'CMU Serif Medium';text-align:center;letter-spacing:0px;word-spacing:0px;text-anchor:middle;fill:#000000;fill-opacity:1;stroke:none;stroke-width:1px;stroke-linecap:butt;stroke-linejoin:miter;stroke-opacity:1"
       id="text3522">
      <path
         d="m 91.29375,959.56165 0,-0.19375 q 0.55625,-0.0125 0.7,-0.41875 l 1.29375,-3.7375 q 0.025,-0.075 0.05,-0.1 0.03125,-0.025 0.1,-0.025 0.0375,0 0.05625,0.006 0.025,0.006 0.0375,0.0312 0.01875,0.0188 0.025,0.0312 0.0062,0.0125 0.025,0.0562 l 1.35,3.90625 q 0.05,0.15625 0.15,0.20625 0.1,0.0437 0.38125,0.0437 l 0.1125,0 0,0.19375 q -0.39375,-0.0187 -0.81875,-0.0187 -0.675,0 -0.9,0.0187 l 0,-0.19375 q 0.51875,0 0.51875,-0.1875 0,-0.0125 -0.01875,-0.0875 l -0.33125,-0.95625 -1.54375,0 -0.2875,0.81875 q -0.0125,0.025 -0.0125,0.0937 0,0.13125 0.11875,0.225 0.125,0.0937 0.35,0.0937 l 0,0.19375 q -0.6,-0.0187 -0.71875,-0.0187 -0.20625,0 -0.6375,0.0187 z m 1.25625,-1.61875 1.40625,0 -0.70625,-2.03125 -0.7,2.03125 z"
         style=""
         id="path16213" />
      <path
         d="m 95.95625,958.5304 0,-0.19375 1.91875,-2.93125 q 0.05,-0.075 0.125,-0.075 0.06875,0 0.08125,0.0312 0.01875,0.025 0.01875,0.13125 l 0,2.84375 0.625,0 0,0.19375 -0.625,0 0,0.54375 q 0,0.18125 0.075,0.2375 0.075,0.0562 0.4,0.0562 l 0.13125,0 0,0.19375 q -0.25625,-0.0187 -0.85,-0.0187 -0.5875,0 -0.84375,0.0187 l 0,-0.19375 0.13125,0 q 0.325,0 0.4,-0.0562 0.075,-0.0562 0.075,-0.2375 l 0,-0.54375 -1.6625,0 z m 0.175,-0.19375 1.525,0 0,-2.33125 -1.525,2.33125 z"
         style=""
         id="path16215" />
    </g>
    <g
       style="font-style:normal;font-variant:normal;font-weight:500;font-stretch:normal;font-size:6.25px;line-height:125%;font-family:'CMU Serif';-inkscape-font-specification:'CMU Serif Medium';text-align:center;letter-spacing:0px;word-spacing:0px;text-anchor:middle;fill:#000000;fill-opacity:1;stroke:none;stroke-width:1px;stroke-linecap:butt;stroke-linejoin:miter;stroke-opacity:1"
       id="text3526">
      <path
         d="m 103.0249,959.46165 q -0.0937,-0.1 -0.0937,-0.23125 0,-0.13125 0.0937,-0.225 0.0937,-0.1 0.2375,-0.1 0.1375,0 0.23125,0.0937 0.0937,0.0875 0.0937,0.23125 0,0.14375 -0.1,0.2375 -0.1,0.0937 -0.225,0.0937 -0.14375,0 -0.2375,-0.1 z"
         style=""
         id="path16206" />
      <path
         d="m 104.7583,959.46165 q -0.0937,-0.1 -0.0937,-0.23125 0,-0.13125 0.0937,-0.225 0.0937,-0.1 0.2375,-0.1 0.1375,0 0.23125,0.0937 0.0937,0.0875 0.0937,0.23125 0,0.14375 -0.1,0.2375 -0.1,0.0937 -0.225,0.0937 -0.14375,0 -0.2375,-0.1 z"
         style=""
         id="path16208" />
      <path
         d="m 106.4917,959.46165 q -0.0937,-0.1 -0.0937,-0.23125 0,-0.13125 0.0937,-0.225 0.0937,-0.1 0.2375,-0.1 0.1375,0 0.23125,0.0937 0.0937,0.0875 0.0937,0.23125 0,0.14375 -0.1,0.2375 -0.1,0.0937 -0.225,0.0937 -0.14375,0 -0.2375,-0.1 z"
         style=""
         id="path16210" />
    </g>
    <g
       style="font-style:normal;font-variant:normal;font-weight:500;font-stretch:normal;font-size:6.25px;line-height:125%;font-family:'CMU Serif';-inkscape-font-specification:'CMU Serif Medium';text-align:center;letter-spacing:0px;word-spacing:0px;text-anchor:middle;fill:#000000;fill-opacity:1;stroke:none;stroke-width:1px;stroke-linecap:butt;stroke-linejoin:miter;stroke-opacity:1"
       id="text3530">
      <path
         d="m 51.446924,979.56165 0,-0.19375 0.15,0 q 0.3375,0 0.4125,-0.0562 0.08125,-0.0562 0.08125,-0.2375 l 0,-3.29375 q 0,-0.18125 -0.08125,-0.2375 -0.075,-0.0562 -0.4125,-0.0562 l -0.15,0 0,-0.19375 2.2875,0 q 0.59375,0 0.9875,0.31875 0.4,0.31875 0.4,0.7375 0,0.34375 -0.29375,0.61875 -0.2875,0.275 -0.74375,0.3625 0.51875,0.0562 0.8625,0.36875 0.34375,0.3125 0.34375,0.71875 0,0.45625 -0.39375,0.8 -0.39375,0.34375 -1,0.34375 l -2.45,0 z m 1.1625,-0.44375 q 0,0.1625 0.04375,0.20625 0.05,0.0437 0.2625,0.0437 l 0.78125,0 q 0.45,0 0.70625,-0.29375 0.2625,-0.29375 0.2625,-0.6625 0,-0.36875 -0.23125,-0.68125 -0.225,-0.31875 -0.65,-0.31875 l -1.175,0 0,1.70625 z m 0,-1.84375 0.90625,0 q 0.48125,0 0.7375,-0.2875 0.2625,-0.29375 0.2625,-0.6375 0,-0.30625 -0.20625,-0.58125 -0.20625,-0.28125 -0.61875,-0.28125 l -0.775,0 q -0.2125,0 -0.2625,0.0437 -0.04375,0.0438 -0.04375,0.20625 l 0,1.5375 z"
         style=""
         id="path16201" />
      <path
         d="m 56.209326,975.9929 0,-0.19375 q 0.75,0 1.1375,-0.4 0.10625,0 0.125,0.025 0.01875,0.025 0.01875,0.1375 l 0,3.50625 q 0,0.1875 0.0875,0.24375 0.09375,0.0562 0.49375,0.0562 l 0.2,0 0,0.19375 q -0.21875,-0.0187 -1.0125,-0.0187 -0.79375,0 -1.0125,0.0187 l 0,-0.19375 0.2,0 q 0.39375,0 0.4875,-0.0562 0.09375,-0.0562 0.09375,-0.24375 l 0,-3.2375 q -0.325,0.1625 -0.81875,0.1625 z"
         style=""
         id="path16203" />
    </g>
    <g
       style="font-style:normal;font-variant:normal;font-weight:500;font-stretch:normal;font-size:6.25px;line-height:125%;font-family:'CMU Serif';-inkscape-font-specification:'CMU Serif Medium';text-align:center;letter-spacing:0px;word-spacing:0px;text-anchor:middle;fill:#000000;fill-opacity:1;stroke:none;stroke-width:1px;stroke-linecap:butt;stroke-linejoin:miter;stroke-opacity:1"
       id="text3534">
      <path
         d="m 41.529199,997.42402 q 0,-0.94375 0.64375,-1.60625 0.64375,-0.6625 1.53125,-0.6625 0.275,0 0.51875,0.1 0.24375,0.1 0.35625,0.1875 0.1125,0.0875 0.275,0.25 l 0.3125,-0.4625 q 0.05,-0.075 0.1,-0.075 0.05,0 0.05625,0.0312 0.0125,0.025 0.0125,0.11875 l 0,1.48125 q 0,0.1 -0.0125,0.125 -0.0125,0.025 -0.0875,0.025 -0.0625,0 -0.075,-0.0187 -0.0125,-0.0188 -0.025,-0.0875 -0.09375,-0.675 -0.46875,-1.075 -0.375,-0.40625 -0.89375,-0.40625 -0.15,0 -0.31875,0.0375 -0.1625,0.0312 -0.40625,0.1625 -0.2375,0.125 -0.425,0.3375 -0.18125,0.2125 -0.31875,0.6125 -0.13125,0.4 -0.13125,0.93125 0,0.525 0.13125,0.93125 0.1375,0.4 0.31875,0.6125 0.1875,0.20625 0.425,0.3375 0.24375,0.125 0.4125,0.1625 0.16875,0.0312 0.31875,0.0312 0.5375,0 0.95,-0.38125 0.4125,-0.38125 0.45,-1.025 0.0063,-0.0312 0.0063,-0.0438 0,-0.0125 0.0063,-0.025 0.0063,-0.0187 0.01875,-0.025 0.01875,-0.006 0.04375,-0.006 0.08125,0 0.08125,0.10625 0,0.59375 -0.45625,1.09375 -0.45625,0.5 -1.175,0.5 -0.8875,0 -1.53125,-0.65625 -0.64375,-0.6625 -0.64375,-1.61875 z"
         style=""
         id="path16191" />
      <path
         d="m 46.252051,995.99277 0,-0.19375 q 0.75,0 1.1375,-0.4 0.10625,0 0.125,0.025 0.01875,0.025 0.01875,0.1375 l 0,3.50625 q 0,0.1875 0.0875,0.24375 0.09375,0.0562 0.49375,0.0562 l 0.2,0 0,0.19375 q -0.21875,-0.0187 -1.0125,-0.0187 -0.79375,0 -1.0125,0.0187 l 0,-0.19375 0.2,0 q 0.39375,0 0.4875,-0.0562 0.09375,-0.0562 0.09375,-0.24375 l 0,-3.2375 q -0.325,0.1625 -0.81875,0.1625 z"
         style=""
         id="path16193" />
    </g>
    <g
       style="font-style:normal;font-variant:normal;font-weight:500;font-stretch:normal;font-size:6.25px;line-height:125%;font-family:'CMU Serif';-inkscape-font-specification:'CMU Serif Medium';text-align:center;letter-spacing:0px;word-spacing:0px;text-anchor:middle;fill:#000000;fill-opacity:1;stroke:none;stroke-width:1px;stroke-linecap:butt;stroke-linejoin:miter;stroke-opacity:1"
       id="text3538">
      <path
         d="m 31.269775,1019.5614 0,-0.1937 0.15,0 q 0.3375,0 0.4125,-0.056 0.08125,-0.056 0.08125,-0.2375 l 0,-3.2937 q 0,-0.1813 -0.08125,-0.2375 -0.075,-0.056 -0.4125,-0.056 l -0.15,0 0,-0.1937 2.2875,0 q 0.8,0 1.35625,0.6375 0.55625,0.6375 0.55625,1.5312 0,0.875 -0.5625,1.4875 -0.55625,0.6125 -1.35,0.6125 l -2.2875,0 z m 1.18125,-0.4437 q 0,0.1625 0.04375,0.2062 0.05,0.044 0.2625,0.044 l 0.63125,0 q 0.4125,0 0.6875,-0.1688 0.28125,-0.1687 0.425,-0.3625 0.34375,-0.4687 0.34375,-1.375 0,-0.95 -0.325,-1.3937 -0.41875,-0.5813 -1.1375,-0.5813 l -0.625,0 q -0.2125,0 -0.2625,0.044 -0.04375,0.044 -0.04375,0.2062 l 0,3.3813 z"
         style=""
         id="path16186" />
      <path
         d="m 36.380225,1015.9927 0,-0.1938 q 0.75,0 1.1375,-0.4 0.10625,0 0.125,0.025 0.01875,0.025 0.01875,0.1375 l 0,3.5063 q 0,0.1875 0.0875,0.2437 0.09375,0.056 0.49375,0.056 l 0.2,0 0,0.1937 q -0.21875,-0.019 -1.0125,-0.019 -0.79375,0 -1.0125,0.019 l 0,-0.1937 0.2,0 q 0.39375,0 0.4875,-0.056 0.09375,-0.056 0.09375,-0.2437 l 0,-3.2375 q -0.325,0.1625 -0.81875,0.1625 z"
         style=""
         id="path16188" />
    </g>
    <g
       style="font-style:normal;font-variant:normal;font-weight:500;font-stretch:normal;font-size:6.25px;line-height:125%;font-family:'CMU Serif';-inkscape-font-specification:'CMU Serif Medium';text-align:center;letter-spacing:0px;word-spacing:0px;text-anchor:middle;fill:#000000;fill-opacity:1;stroke:none;stroke-width:1px;stroke-linecap:butt;stroke-linejoin:miter;stroke-opacity:1"
       id="text3542">
      <path
         d="m 21.519727,1039.5616 0,-0.1937 0.15,0 q 0.3375,0 0.4125,-0.056 0.08125,-0.056 0.08125,-0.2375 l 0,-3.275 q 0,-0.1812 -0.08125,-0.2375 -0.075,-0.056 -0.4125,-0.056 l -0.15,0 0,-0.1938 3.51875,0 0.175,1.4063 -0.15625,0 q -0.04375,-0.3563 -0.1,-0.5625 -0.05625,-0.2063 -0.19375,-0.3625 -0.13125,-0.1625 -0.35625,-0.225 -0.21875,-0.062 -0.575,-0.062 l -0.80625,0 q -0.2125,0 -0.2625,0.044 -0.04375,0.044 -0.04375,0.2063 l 0,1.5 0.5625,0 q 0.43125,0 0.55,-0.15 0.125,-0.15 0.125,-0.5813 l 0.15625,0 0,1.6563 -0.15625,0 q 0,-0.425 -0.125,-0.575 -0.11875,-0.1563 -0.55,-0.1563 l -0.5625,0 0,1.6688 q 0,0.1625 0.04375,0.2062 0.05,0.044 0.2625,0.044 l 0.83125,0 q 0.26875,0 0.4625,-0.031 0.2,-0.038 0.3375,-0.125 0.1375,-0.088 0.23125,-0.1875 0.09375,-0.1 0.15625,-0.2812 0.06875,-0.1813 0.10625,-0.35 0.0375,-0.1688 0.08125,-0.4438 l 0.15625,0 -0.2625,1.6125 -3.60625,0 z"
         style=""
         id="path16156" />
      <path
         d="m 26.117773,1035.9929 0,-0.1938 q 0.75,0 1.1375,-0.4 0.10625,0 0.125,0.025 0.01875,0.025 0.01875,0.1375 l 0,3.5063 q 0,0.1875 0.0875,0.2437 0.09375,0.056 0.49375,0.056 l 0.2,0 0,0.1937 q -0.21875,-0.019 -1.0125,-0.019 -0.79375,0 -1.0125,0.019 l 0,-0.1937 0.2,0 q 0.39375,0 0.4875,-0.056 0.09375,-0.056 0.09375,-0.2437 l 0,-3.2375 q -0.325,0.1625 -0.81875,0.1625 z"
         style=""
         id="path16158" />
    </g>
    <g
       style="font-style:normal;font-variant:normal;font-weight:500;font-stretch:normal;font-size:6.25px;line-height:125%;font-family:'CMU Serif';-inkscape-font-specification:'CMU Serif Medium';text-align:center;letter-spacing:0px;word-spacing:0px;text-anchor:middle;fill:#000000;fill-opacity:1;stroke:none;stroke-width:1px;stroke-linecap:butt;stroke-linejoin:miter;stroke-opacity:1"
       id="text3546">
      <path
         d="m 61.446924,999.56152 0,-0.19375 0.15,0 q 0.3375,0 0.4125,-0.0562 0.08125,-0.0562 0.08125,-0.2375 l 0,-3.29375 q 0,-0.18125 -0.08125,-0.2375 -0.075,-0.0562 -0.4125,-0.0562 l -0.15,0 0,-0.19375 2.2875,0 q 0.59375,0 0.9875,0.31875 0.4,0.31875 0.4,0.7375 0,0.34375 -0.29375,0.61875 -0.2875,0.275 -0.74375,0.3625 0.51875,0.0562 0.8625,0.36875 0.34375,0.3125 0.34375,0.71875 0,0.45625 -0.39375,0.8 -0.39375,0.34375 -1,0.34375 l -2.45,0 z m 1.1625,-0.44375 q 0,0.1625 0.04375,0.20625 0.05,0.0437 0.2625,0.0437 l 0.78125,0 q 0.45,0 0.70625,-0.29375 0.2625,-0.29375 0.2625,-0.6625 0,-0.36875 -0.23125,-0.68125 -0.225,-0.31875 -0.65,-0.31875 l -1.175,0 0,1.70625 z m 0,-1.84375 0.90625,0 q 0.48125,0 0.7375,-0.2875 0.2625,-0.29375 0.2625,-0.6375 0,-0.30625 -0.20625,-0.58125 -0.20625,-0.28125 -0.61875,-0.28125 l -0.775,0 q -0.2125,0 -0.2625,0.0437 -0.04375,0.0438 -0.04375,0.20625 l 0,1.5375 z"
         style=""
         id="path16196" />
      <path
         d="m 65.965576,999.56152 q 0,-0.1125 0.0062,-0.14375 0.0125,-0.0375 0.0625,-0.0875 l 1.2,-1.3375 q 0.65625,-0.7375 0.65625,-1.38125 0,-0.41875 -0.21875,-0.71875 -0.21875,-0.3 -0.61875,-0.3 -0.275,0 -0.50625,0.16875 -0.23125,0.16875 -0.3375,0.46875 0.01875,-0.006 0.08125,-0.006 0.15625,0 0.24375,0.1 0.0875,0.0937 0.0875,0.225 0,0.16875 -0.1125,0.25 -0.10625,0.0812 -0.2125,0.0812 -0.04375,0 -0.1,-0.006 -0.05625,-0.0125 -0.14375,-0.1 -0.0875,-0.0875 -0.0875,-0.24375 0,-0.4375 0.33125,-0.78125 0.33125,-0.35 0.8375,-0.35 0.575,0 0.95,0.34375 0.375,0.3375 0.375,0.86875 0,0.1875 -0.05625,0.35625 -0.05625,0.16875 -0.13125,0.3 -0.075,0.13125 -0.275,0.34375 -0.2,0.20625 -0.3625,0.35625 -0.1625,0.15 -0.525,0.46875 l -0.6625,0.64375 1.125,0 q 0.55,0 0.59375,-0.05 0.0625,-0.0875 0.1375,-0.55625 l 0.15625,0 -0.175,1.0875 -2.31875,0 z"
         style=""
         id="path16198" />
    </g>
    <g
       style="font-style:normal;font-variant:normal;font-weight:500;font-stretch:normal;font-size:6.25px;line-height:125%;font-family:'CMU Serif';-inkscape-font-specification:'CMU Serif Medium';text-align:center;letter-spacing:0px;word-spacing:0px;text-anchor:middle;fill:#000000;fill-opacity:1;stroke:none;stroke-width:1px;stroke-linecap:butt;stroke-linejoin:miter;stroke-opacity:1"
       id="text3550">
      <path
         d="m 51.529199,1017.4239 q 0,-0.9437 0.64375,-1.6062 0.64375,-0.6625 1.53125,-0.6625 0.275,0 0.51875,0.1 0.24375,0.1 0.35625,0.1875 0.1125,0.088 0.275,0.25 l 0.3125,-0.4625 q 0.05,-0.075 0.1,-0.075 0.05,0 0.05625,0.031 0.0125,0.025 0.0125,0.1188 l 0,1.4812 q 0,0.1 -0.0125,0.125 -0.0125,0.025 -0.0875,0.025 -0.0625,0 -0.075,-0.019 -0.0125,-0.019 -0.025,-0.087 -0.09375,-0.675 -0.46875,-1.075 -0.375,-0.4063 -0.89375,-0.4063 -0.15,0 -0.31875,0.038 -0.1625,0.031 -0.40625,0.1625 -0.2375,0.125 -0.425,0.3375 -0.18125,0.2125 -0.31875,0.6125 -0.13125,0.4 -0.13125,0.9313 0,0.525 0.13125,0.9312 0.1375,0.4 0.31875,0.6125 0.1875,0.2063 0.425,0.3375 0.24375,0.125 0.4125,0.1625 0.16875,0.031 0.31875,0.031 0.5375,0 0.95,-0.3813 0.4125,-0.3812 0.45,-1.025 0.0063,-0.031 0.0063,-0.044 0,-0.013 0.0063,-0.025 0.0063,-0.019 0.01875,-0.025 0.01875,-0.01 0.04375,-0.01 0.08125,0 0.08125,0.1063 0,0.5937 -0.45625,1.0937 -0.45625,0.5 -1.175,0.5 -0.8875,0 -1.53125,-0.6562 -0.64375,-0.6625 -0.64375,-1.6188 z"
         style=""
         id="path16181" />
      <path
         d="m 56.008301,1019.5614 q 0,-0.1125 0.0062,-0.1437 0.0125,-0.038 0.0625,-0.087 l 1.2,-1.3375 q 0.65625,-0.7375 0.65625,-1.3813 0,-0.4187 -0.21875,-0.7187 -0.21875,-0.3 -0.61875,-0.3 -0.275,0 -0.50625,0.1687 -0.23125,0.1688 -0.3375,0.4688 0.01875,-0.01 0.08125,-0.01 0.15625,0 0.24375,0.1 0.0875,0.094 0.0875,0.225 0,0.1688 -0.1125,0.25 -0.10625,0.081 -0.2125,0.081 -0.04375,0 -0.1,-0.01 -0.05625,-0.013 -0.14375,-0.1 -0.0875,-0.087 -0.0875,-0.2437 0,-0.4375 0.33125,-0.7813 0.33125,-0.35 0.8375,-0.35 0.575,0 0.95,0.3438 0.375,0.3375 0.375,0.8687 0,0.1875 -0.05625,0.3563 -0.05625,0.1687 -0.13125,0.3 -0.075,0.1312 -0.275,0.3437 -0.2,0.2063 -0.3625,0.3563 -0.1625,0.15 -0.525,0.4687 l -0.6625,0.6438 1.125,0 q 0.55,0 0.59375,-0.05 0.0625,-0.088 0.1375,-0.5563 l 0.15625,0 -0.175,1.0875 -2.31875,0 z"
         style=""
         id="path16183" />
    </g>
    <g
       style="font-style:normal;font-variant:normal;font-weight:500;font-stretch:normal;font-size:6.25px;line-height:125%;font-family:'CMU Serif';-inkscape-font-specification:'CMU Serif Medium';text-align:center;letter-spacing:0px;word-spacing:0px;text-anchor:middle;fill:#000000;fill-opacity:1;stroke:none;stroke-width:1px;stroke-linecap:butt;stroke-linejoin:miter;stroke-opacity:1"
       id="text3554">
      <path
         d="m 71.446924,1019.5614 0,-0.1937 0.15,0 q 0.3375,0 0.4125,-0.056 0.08125,-0.056 0.08125,-0.2375 l 0,-3.2937 q 0,-0.1813 -0.08125,-0.2375 -0.075,-0.056 -0.4125,-0.056 l -0.15,0 0,-0.1937 2.2875,0 q 0.59375,0 0.9875,0.3187 0.4,0.3188 0.4,0.7375 0,0.3438 -0.29375,0.6188 -0.2875,0.275 -0.74375,0.3625 0.51875,0.056 0.8625,0.3687 0.34375,0.3125 0.34375,0.7188 0,0.4562 -0.39375,0.8 -0.39375,0.3437 -1,0.3437 l -2.45,0 z m 1.1625,-0.4437 q 0,0.1625 0.04375,0.2062 0.05,0.044 0.2625,0.044 l 0.78125,0 q 0.45,0 0.70625,-0.2938 0.2625,-0.2937 0.2625,-0.6625 0,-0.3687 -0.23125,-0.6812 -0.225,-0.3188 -0.65,-0.3188 l -1.175,0 0,1.7063 z m 0,-1.8438 0.90625,0 q 0.48125,0 0.7375,-0.2875 0.2625,-0.2937 0.2625,-0.6375 0,-0.3062 -0.20625,-0.5812 -0.20625,-0.2813 -0.61875,-0.2813 l -0.775,0 q -0.2125,0 -0.2625,0.044 -0.04375,0.044 -0.04375,0.2062 l 0,1.5375 z"
         style=""
         id="path16176" />
      <path
         d="m 75.915576,1018.7177 q 0,-0.1875 0.10625,-0.275 0.10625,-0.087 0.24375,-0.087 0.14375,0 0.24375,0.094 0.10625,0.094 0.10625,0.2563 0,0.175 -0.125,0.275 -0.11875,0.094 -0.2875,0.069 0.15,0.25 0.425,0.3625 0.275,0.1125 0.53125,0.1125 0.26875,0 0.4875,-0.2312 0.21875,-0.2313 0.21875,-0.8 0,-0.4813 -0.1875,-0.7563 -0.1875,-0.2812 -0.55625,-0.2812 l -0.275,0 q -0.09375,0 -0.125,-0.01 -0.025,-0.012 -0.025,-0.062 0,-0.062 0.09375,-0.075 0.09375,0 0.24375,-0.019 0.3625,-0.012 0.55625,-0.325 0.175,-0.2938 0.175,-0.7125 0,-0.3813 -0.18125,-0.5375 -0.18125,-0.1625 -0.41875,-0.1625 -0.21875,0 -0.4625,0.094 -0.2375,0.087 -0.36875,0.2938 0.3875,0 0.3875,0.3125 0,0.1375 -0.0875,0.2312 -0.0875,0.087 -0.23125,0.087 -0.1375,0 -0.23125,-0.087 -0.0875,-0.087 -0.0875,-0.2375 0,-0.3562 0.31875,-0.6 0.31875,-0.25 0.7875,-0.25 0.4625,0 0.80625,0.2438 0.34375,0.2437 0.34375,0.6187 0,0.3688 -0.24375,0.675 -0.24375,0.3 -0.63125,0.425 0.475,0.094 0.75625,0.4188 0.2875,0.3187 0.2875,0.7125 0,0.4875 -0.3875,0.85 -0.38125,0.3562 -0.94375,0.3562 -0.51875,0 -0.89375,-0.2812 -0.36875,-0.2813 -0.36875,-0.7 z"
         style=""
         id="path16178" />
    </g>
    <g
       style="font-style:normal;font-variant:normal;font-weight:500;font-stretch:normal;font-size:6.25px;line-height:125%;font-family:'CMU Serif';-inkscape-font-specification:'CMU Serif Medium';text-align:center;letter-spacing:0px;word-spacing:0px;text-anchor:middle;fill:#000000;fill-opacity:1;stroke:none;stroke-width:1px;stroke-linecap:butt;stroke-linejoin:miter;stroke-opacity:1"
       id="text3558">
      <path
         d="m 41.269775,1039.5616 0,-0.1937 0.15,0 q 0.3375,0 0.4125,-0.056 0.08125,-0.056 0.08125,-0.2375 l 0,-3.2937 q 0,-0.1813 -0.08125,-0.2375 -0.075,-0.056 -0.4125,-0.056 l -0.15,0 0,-0.1937 2.2875,0 q 0.8,0 1.35625,0.6375 0.55625,0.6375 0.55625,1.5312 0,0.875 -0.5625,1.4875 -0.55625,0.6125 -1.35,0.6125 l -2.2875,0 z m 1.18125,-0.4437 q 0,0.1625 0.04375,0.2062 0.05,0.044 0.2625,0.044 l 0.63125,0 q 0.4125,0 0.6875,-0.1688 0.28125,-0.1687 0.425,-0.3625 0.34375,-0.4687 0.34375,-1.375 0,-0.95 -0.325,-1.3937 -0.41875,-0.5813 -1.1375,-0.5813 l -0.625,0 q -0.2125,0 -0.2625,0.044 -0.04375,0.044 -0.04375,0.2062 l 0,3.3813 z"
         style=""
         id="path16161" />
      <path
         d="m 46.136475,1039.5616 q 0,-0.1125 0.0063,-0.1437 0.0125,-0.037 0.0625,-0.087 l 1.2,-1.3375 q 0.65625,-0.7375 0.65625,-1.3813 0,-0.4187 -0.21875,-0.7187 -0.21875,-0.3 -0.61875,-0.3 -0.275,0 -0.50625,0.1687 -0.23125,0.1688 -0.3375,0.4688 0.01875,-0.01 0.08125,-0.01 0.15625,0 0.24375,0.1 0.0875,0.094 0.0875,0.225 0,0.1688 -0.1125,0.25 -0.10625,0.081 -0.2125,0.081 -0.04375,0 -0.1,-0.01 -0.05625,-0.013 -0.14375,-0.1 -0.0875,-0.088 -0.0875,-0.2437 0,-0.4375 0.33125,-0.7813 0.33125,-0.35 0.8375,-0.35 0.575,0 0.95,0.3438 0.375,0.3375 0.375,0.8687 0,0.1875 -0.05625,0.3563 -0.05625,0.1687 -0.13125,0.3 -0.075,0.1312 -0.275,0.3437 -0.2,0.2063 -0.3625,0.3563 -0.1625,0.15 -0.525,0.4687 l -0.6625,0.6438 1.125,0 q 0.55,0 0.59375,-0.05 0.0625,-0.088 0.1375,-0.5563 l 0.15625,0 -0.175,1.0875 -2.31875,0 z"
         style=""
         id="path16163" />
    </g>
    <g
       style="font-style:normal;font-variant:normal;font-weight:500;font-stretch:normal;font-size:6.25px;line-height:125%;font-family:'CMU Serif';-inkscape-font-specification:'CMU Serif Medium';text-align:center;letter-spacing:0px;word-spacing:0px;text-anchor:middle;fill:#000000;fill-opacity:1;stroke:none;stroke-width:1px;stroke-linecap:butt;stroke-linejoin:miter;stroke-opacity:1"
       id="text3562">
      <path
         d="m 61.529199,1037.4241 q 0,-0.9437 0.64375,-1.6062 0.64375,-0.6625 1.53125,-0.6625 0.275,0 0.51875,0.1 0.24375,0.1 0.35625,0.1875 0.1125,0.088 0.275,0.25 l 0.3125,-0.4625 q 0.05,-0.075 0.1,-0.075 0.05,0 0.05625,0.031 0.0125,0.025 0.0125,0.1188 l 0,1.4812 q 0,0.1 -0.0125,0.125 -0.0125,0.025 -0.0875,0.025 -0.0625,0 -0.075,-0.019 -0.0125,-0.019 -0.025,-0.087 -0.09375,-0.675 -0.46875,-1.075 -0.375,-0.4063 -0.89375,-0.4063 -0.15,0 -0.31875,0.038 -0.1625,0.031 -0.40625,0.1625 -0.2375,0.125 -0.425,0.3375 -0.18125,0.2125 -0.31875,0.6125 -0.13125,0.4 -0.13125,0.9313 0,0.525 0.13125,0.9312 0.1375,0.4 0.31875,0.6125 0.1875,0.2063 0.425,0.3375 0.24375,0.125 0.4125,0.1625 0.16875,0.031 0.31875,0.031 0.5375,0 0.95,-0.3813 0.4125,-0.3812 0.45,-1.025 0.0063,-0.031 0.0063,-0.044 0,-0.013 0.0062,-0.025 0.0062,-0.019 0.01875,-0.025 0.01875,-0.01 0.04375,-0.01 0.08125,0 0.08125,0.1063 0,0.5937 -0.45625,1.0937 -0.45625,0.5 -1.175,0.5 -0.8875,0 -1.53125,-0.6562 -0.64375,-0.6625 -0.64375,-1.6188 z"
         style=""
         id="path16166" />
      <path
         d="m 65.958301,1038.7179 q 0,-0.1875 0.10625,-0.275 0.10625,-0.088 0.24375,-0.088 0.14375,0 0.24375,0.094 0.10625,0.094 0.10625,0.2563 0,0.175 -0.125,0.275 -0.11875,0.094 -0.2875,0.069 0.15,0.25 0.425,0.3625 0.275,0.1125 0.53125,0.1125 0.26875,0 0.4875,-0.2312 0.21875,-0.2313 0.21875,-0.8 0,-0.4813 -0.1875,-0.7563 -0.1875,-0.2812 -0.55625,-0.2812 l -0.275,0 q -0.09375,0 -0.125,-0.01 -0.025,-0.013 -0.025,-0.062 0,-0.062 0.09375,-0.075 0.09375,0 0.24375,-0.019 0.3625,-0.012 0.55625,-0.325 0.175,-0.2938 0.175,-0.7125 0,-0.3813 -0.18125,-0.5375 -0.18125,-0.1625 -0.41875,-0.1625 -0.21875,0 -0.4625,0.094 -0.2375,0.087 -0.36875,0.2938 0.3875,0 0.3875,0.3125 0,0.1375 -0.0875,0.2312 -0.0875,0.088 -0.23125,0.088 -0.1375,0 -0.23125,-0.088 -0.0875,-0.087 -0.0875,-0.2375 0,-0.3562 0.31875,-0.6 0.31875,-0.25 0.7875,-0.25 0.4625,0 0.80625,0.2438 0.34375,0.2437 0.34375,0.6187 0,0.3688 -0.24375,0.675 -0.24375,0.3 -0.63125,0.425 0.475,0.094 0.75625,0.4188 0.2875,0.3187 0.2875,0.7125 0,0.4875 -0.3875,0.85 -0.38125,0.3562 -0.94375,0.3562 -0.51875,0 -0.89375,-0.2812 -0.36875,-0.2813 -0.36875,-0.7 z"
         style=""
         id="path16168" />
    </g>
    <g
       style="font-style:normal;font-variant:normal;font-weight:500;font-stretch:normal;font-size:6.25px;line-height:125%;font-family:'CMU Serif';-inkscape-font-specification:'CMU Serif Medium';text-align:center;letter-spacing:0px;word-spacing:0px;text-anchor:middle;fill:#000000;fill-opacity:1;stroke:none;stroke-width:1px;stroke-linecap:butt;stroke-linejoin:miter;stroke-opacity:1"
       id="text3566">
      <path
         d="m 81.446924,1039.5616 0,-0.1937 0.15,0 q 0.3375,0 0.4125,-0.056 0.08125,-0.056 0.08125,-0.2375 l 0,-3.2937 q 0,-0.1813 -0.08125,-0.2375 -0.075,-0.056 -0.4125,-0.056 l -0.15,0 0,-0.1937 2.2875,0 q 0.59375,0 0.9875,0.3187 0.4,0.3188 0.4,0.7375 0,0.3438 -0.29375,0.6188 -0.2875,0.275 -0.74375,0.3625 0.51875,0.056 0.8625,0.3687 0.34375,0.3125 0.34375,0.7188 0,0.4562 -0.39375,0.8 -0.39375,0.3437 -1,0.3437 l -2.45,0 z m 1.1625,-0.4437 q 0,0.1625 0.04375,0.2062 0.05,0.044 0.2625,0.044 l 0.78125,0 q 0.45,0 0.70625,-0.2938 0.2625,-0.2937 0.2625,-0.6625 0,-0.3687 -0.23125,-0.6812 -0.225,-0.3188 -0.65,-0.3188 l -1.175,0 0,1.7063 z m 0,-1.8438 0.90625,0 q 0.48125,0 0.7375,-0.2875 0.2625,-0.2937 0.2625,-0.6375 0,-0.3062 -0.20625,-0.5812 -0.20625,-0.2813 -0.61875,-0.2813 l -0.775,0 q -0.2125,0 -0.2625,0.044 -0.04375,0.044 -0.04375,0.2062 l 0,1.5375 z"
         style=""
         id="path16171" />
      <path
         d="m 85.828076,1038.5304 0,-0.1938 1.91875,-2.9312 q 0.05,-0.075 0.125,-0.075 0.06875,0 0.08125,0.031 0.01875,0.025 0.01875,0.1313 l 0,2.8437 0.625,0 0,0.1938 -0.625,0 0,0.5437 q 0,0.1813 0.075,0.2375 0.075,0.056 0.4,0.056 l 0.13125,0 0,0.1937 q -0.25625,-0.019 -0.85,-0.019 -0.5875,0 -0.84375,0.019 l 0,-0.1937 0.13125,0 q 0.325,0 0.4,-0.056 0.075,-0.056 0.075,-0.2375 l 0,-0.5437 -1.6625,0 z m 0.175,-0.1938 1.525,0 0,-2.3312 -1.525,2.3312 z"
         style=""
         id="path16173" />
    </g>
    <g
       style="font-style:normal;font-variant:normal;font-weight:500;font-stretch:normal;font-size:6.25px;line-height:125%;font-family:'CMU Serif';-inkscape-font-specification:'CMU Serif Medium';text-align:center;letter-spacing:0px;word-spacing:0px;text-anchor:middle;fill:#000000;fill-opacity:1;stroke:none;stroke-width:1px;stroke-linecap:butt;stroke-linejoin:miter;stroke-opacity:1"
       id="text14769"
       transform="translate(-2,0)">
      <path
         d="m 4.1251953,974.34968 0,-0.3875 q 1.5,0 2.275,-0.8 0.2125,0 0.25,0.05 0.0375,0.05 0.0375,0.275 l 0,7.0125 q 0,0.375 0.175,0.4875 0.1875,0.1125 0.9875,0.1125 l 0.4,0 0,0.3875 q -0.4375,-0.0375 -2.025,-0.0375 -1.5875,0 -2.025,0.0375 l 0,-0.3875 0.4,0 q 0.7875,0 0.975,-0.1125 0.1875,-0.1125 0.1875,-0.4875 l 0,-6.475 q -0.65,0.325 -1.6375,0.325 z"
         style="font-size:12.5px"
         id="path16271"
         inkscape:connector-curvature="0" />
    </g>
    <g
       style="font-style:normal;font-variant:normal;font-weight:500;font-stretch:normal;font-size:6.25px;line-height:125%;font-family:'CMU Serif';-inkscape-font-specification:'CMU Serif Medium';text-align:center;letter-spacing:0px;word-spacing:0px;text-anchor:middle;fill:#000000;fill-opacity:1;stroke:none;stroke-width:1px;stroke-linecap:butt;stroke-linejoin:miter;stroke-opacity:1"
       id="text14773"
       transform="translate(-2,0)">
      <path
         d="m 3.6376953,1001.2872 q 0,-0.225 0.0125,-0.2875 0.025,-0.075 0.125,-0.175 l 2.4,-2.67503 q 1.3125,-1.475 1.3125,-2.7625 0,-0.8375 -0.4375,-1.4375 -0.4375,-0.6 -1.2375,-0.6 -0.55,0 -1.0125,0.3375 -0.4625,0.3375 -0.675,0.9375 0.0375,-0.0125 0.1625,-0.0125 0.3125,0 0.4875,0.2 0.175,0.1875 0.175,0.45 0,0.3375 -0.225,0.5 -0.2125,0.1625 -0.425,0.1625 -0.0875,0 -0.2,-0.0125 -0.1125,-0.025 -0.2875,-0.2 -0.175,-0.175 -0.175,-0.4875 0,-0.875 0.6625,-1.5625 0.6625,-0.7 1.675,-0.7 1.15,0 1.9,0.6875 0.75,0.675 0.75,1.7375 0,0.375 -0.1125,0.7125 -0.1125,0.3375 -0.2625,0.6 -0.15,0.2625 -0.55,0.6875 -0.4,0.4125 -0.725,0.7125 -0.325,0.3 -1.05,0.9375 l -1.325,1.28753 2.25,0 q 1.1,0 1.1875,-0.1 0.125,-0.175 0.275,-1.11253 l 0.3125,0 -0.35,2.17503 -4.6375,0 z"
         style="font-size:12.5px"
         id="path16268"
         inkscape:connector-curvature="0" />
    </g>
    <g
       style="font-style:normal;font-variant:normal;font-weight:500;font-stretch:normal;font-size:6.25px;line-height:125%;font-family:'CMU Serif';-inkscape-font-specification:'CMU Serif Medium';text-align:center;letter-spacing:0px;word-spacing:0px;text-anchor:middle;fill:#000000;fill-opacity:1;stroke:none;stroke-width:1px;stroke-linecap:butt;stroke-linejoin:miter;stroke-opacity:1"
       id="text14777"
       transform="translate(-2,0)">
      <path
         d="m 3.5376953,1019.5997 q 0,-0.375 0.2125,-0.55 0.2125,-0.175 0.4875,-0.175 0.2875,0 0.4875,0.1875 0.2125,0.1875 0.2125,0.5125 0,0.35 -0.25,0.55 -0.2375,0.1875 -0.575,0.1375 0.3,0.5 0.85,0.725 0.55,0.225 1.0625,0.225 0.5375,0 0.975,-0.4625 0.4375,-0.4625 0.4375,-1.6 0,-0.9625 -0.375,-1.5125 -0.375,-0.5625 -1.1125,-0.5625 l -0.55,0 q -0.1875,0 -0.25,-0.013 -0.05,-0.025 -0.05,-0.125 0,-0.125 0.1875,-0.15 0.1875,0 0.4875,-0.038 0.725,-0.025 1.1125,-0.65 0.35,-0.5875 0.35,-1.425 0,-0.7625 -0.3625,-1.075 -0.3625,-0.325 -0.8375,-0.325 -0.4375,0 -0.925,0.1875 -0.475,0.175 -0.7375,0.5875 0.775,0 0.775,0.625 0,0.275 -0.175,0.4625 -0.175,0.175 -0.4625,0.175 -0.275,0 -0.4625,-0.175 -0.175,-0.175 -0.175,-0.475 0,-0.7125 0.6375,-1.2 0.6375,-0.5 1.575,-0.5 0.925,0 1.6125,0.4875 0.6875,0.4875 0.6875,1.2375 0,0.7375 -0.4875,1.35 -0.4875,0.6 -1.2625,0.85 0.95,0.1875 1.5125,0.8375 0.575,0.6375 0.575,1.425 0,0.975 -0.775,1.7 -0.7625,0.7125 -1.8875,0.7125 -1.0375,0 -1.7875,-0.5625 -0.7375,-0.5625 -0.7375,-1.4 z"
         style="font-size:12.5px"
         id="path16265"
         inkscape:connector-curvature="0" />
    </g>
    <g
       style="font-style:normal;font-variant:normal;font-weight:500;font-stretch:normal;font-size:6.25px;line-height:125%;font-family:'CMU Serif';-inkscape-font-specification:'CMU Serif Medium';text-align:center;letter-spacing:0px;word-spacing:0px;text-anchor:middle;fill:#000000;fill-opacity:1;stroke:none;stroke-width:1px;stroke-linecap:butt;stroke-linejoin:miter;stroke-opacity:1"
       id="text14781"
       transform="matrix(0,1,-1,0,1041.5289,1031.2828)">
      <path
         d="M 2.1875,1037.8621 Q 2,1037.6621 2,1037.3996 q 0,-0.2625 0.1875,-0.45 0.1875,-0.2 0.475,-0.2 0.275,0 0.4625,0.1875 0.1875,0.175 0.1875,0.4625 0,0.2875 -0.2,0.475 -0.2,0.1875 -0.45,0.1875 -0.2875,0 -0.475,-0.2 z"
         style="font-size:12.5px"
         id="path16258"
         inkscape:connector-curvature="0" />
      <path
         d="m 5.6542969,1037.8621 q -0.1875,-0.2 -0.1875,-0.4625 0,-0.2625 0.1875,-0.45 0.1875,-0.2 0.475,-0.2 0.275,0 0.4625,0.1875 0.1875,0.175 0.1875,0.4625 0,0.2875 -0.2,0.475 -0.2,0.1875 -0.45,0.1875 -0.2875,0 -0.475,-0.2 z"
         style="font-size:12.5px"
         id="path16260"
         inkscape:connector-curvature="0" />
      <path
         d="m 9.1210938,1037.8621 q -0.1875,-0.2 -0.1875,-0.4625 0,-0.2625 0.1875,-0.45 0.1875,-0.2 0.475,-0.2 0.275,0 0.4625002,0.1875 0.1875,0.175 0.1875,0.4625 0,0.2875 -0.2,0.475 -0.2000002,0.1875 -0.4500002,0.1875 -0.2875,0 -0.475,-0.2 z"
         style="font-size:12.5px"
         id="path16262"
         inkscape:connector-curvature="0" />
    </g>
    <use
       x="0"
       y="0"
       xlink:href="#g4370"
       id="use4393"
       transform="translate(0,20)"
       width="100%"
       height="100%" />
    <use
       x="0"
       y="0"
       xlink:href="#g4370"
       id="use4395"
       transform="translate(0,40)"
       width="100%"
       height="100%" />
    <use
       x="0"
       y="0"
       xlink:href="#g4370"
       id="use4397"
       transform="translate(0,60)"
       width="100%"
       height="100%" />
    <use
       x="0"
       y="0"
       xlink:href="#g4370"
       id="use4399"
       transform="translate(0,80)"
       width="100%"
       height="100%" />
    <use
       x="0"
       y="0"
       xlink:href="#path3430"
       id="use4416"
       transform="translate(10,20)"
       width="100%"
       height="100%" />
    <use
       x="0"
       y="0"
       xlink:href="#path3432"
       id="use4418"
       transform="translate(10,20)"
       width="100%"
       height="100%" />
    <use
       x="0"
       y="0"
       xlink:href="#path3458"
       id="use4420"
       transform="translate(10,20)"
       width="100%"
       height="100%" />
    <use
       x="0"
       y="0"
       xlink:href="#path3460"
       id="use4422"
       transform="translate(10,20)"
       width="100%"
       height="100%" />
    <use
       x="0"
       y="0"
       xlink:href="#path3462"
       id="use4424"
       transform="translate(10,20)"
       width="100%"
       height="100%" />
    <use
       x="0"
       y="0"
       xlink:href="#path3464"
       id="use4426"
       transform="translate(10,20)"
       width="100%"
       height="100%" />
    <use
       x="0"
       y="0"
       xlink:href="#path3466"
       id="use4428"
       transform="translate(10,20)"
       width="100%"
       height="100%" />
    <use
       x="0"
       y="0"
       xlink:href="#path3468"
       id="use4430"
       transform="translate(10,20)"
       width="100%"
       height="100%" />
    <use
       x="0"
       y="0"
       xlink:href="#path3470"
       id="use4432"
       transform="translate(10,20)"
       width="100%"
       height="100%" />
    <use
       x="0"
       y="0"
       xlink:href="#path3476"
       id="use4434"
       transform="translate(10,20)"
       width="100%"
       height="100%" />
    <use
       x="0"
       y="0"
       xlink:href="#path3478"
       id="use4436"
       transform="translate(10,20)"
       width="100%"
       height="100%" />
    <use
       x="0"
       y="0"
       xlink:href="#path3488"
       id="use4438"
       transform="translate(10,20)"
       width="100%"
       height="100%" />
  </g>
</svg>
