<?xml version="1.0" encoding="UTF-8" standalone="no"?>
<!-- Created with Inkscape (http://www.inkscape.org/) -->

<svg
   xmlns:dc="http://purl.org/dc/elements/1.1/"
   xmlns:cc="http://creativecommons.org/ns#"
   xmlns:rdf="http://www.w3.org/1999/02/22-rdf-syntax-ns#"
   xmlns:svg="http://www.w3.org/2000/svg"
   xmlns="http://www.w3.org/2000/svg"
   xmlns:xlink="http://www.w3.org/1999/xlink"
   xmlns:sodipodi="http://sodipodi.sourceforge.net/DTD/sodipodi-0.dtd"
   xmlns:inkscape="http://www.inkscape.org/namespaces/inkscape"
   width="170"
   height="247.65741"
   viewBox="0 0 170 247.65741"
   id="svg8372"
   version="1.1"
   inkscape:version="0.91 r13725"
   sodipodi:docname="singlevar.svg">
  <defs
     id="defs8374">
    <marker
       inkscape:isstock="true"
       style="overflow:visible"
       id="marker77401"
       refX="0"
       refY="0"
       orient="auto"
       inkscape:stockid="Arrow1Send">
      <path
         transform="matrix(-0.2,0,0,-0.2,-1.2,0)"
         style="fill:#000000;fill-opacity:1;fill-rule:evenodd;stroke:#000000;stroke-width:1pt;stroke-opacity:1"
         d="M 0,0 5,-5 -12.5,0 5,5 0,0 Z"
         id="path77403"
         inkscape:connector-curvature="0" />
    </marker>
    <marker
       inkscape:isstock="true"
       style="overflow:visible"
       id="marker34605"
       refX="0"
       refY="0"
       orient="auto"
       inkscape:stockid="Arrow1Send">
      <path
         transform="matrix(-0.2,0,0,-0.2,-1.2,0)"
         style="fill:#000000;fill-opacity:1;fill-rule:evenodd;stroke:#000000;stroke-width:1pt;stroke-opacity:1"
         d="M 0,0 5,-5 -12.5,0 5,5 0,0 Z"
         id="path34607"
         inkscape:connector-curvature="0" />
    </marker>
    <marker
       inkscape:stockid="Arrow1Send"
       orient="auto"
       refY="0"
       refX="0"
       id="marker12129"
       style="overflow:visible"
       inkscape:isstock="true">
      <path
         id="path12131"
         d="M 0,0 5,-5 -12.5,0 5,5 0,0 Z"
         style="fill:#000000;fill-opacity:1;fill-rule:evenodd;stroke:#000000;stroke-width:1pt;stroke-opacity:1"
         transform="matrix(-0.2,0,0,-0.2,-1.2,0)"
         inkscape:connector-curvature="0" />
    </marker>
  </defs>
  <sodipodi:namedview
     id="base"
     pagecolor="#ffffff"
     bordercolor="#666666"
     borderopacity="1.0"
     inkscape:pageopacity="0.0"
     inkscape:pageshadow="2"
     inkscape:zoom="3.959798"
     inkscape:cx="5.2580793"
     inkscape:cy="173.69568"
     inkscape:document-units="px"
     inkscape:current-layer="layer1"
     showgrid="true"
     units="px"
     inkscape:window-width="1920"
     inkscape:window-height="1003"
     inkscape:window-x="0"
     inkscape:window-y="180"
     inkscape:window-maximized="1"
     inkscape:snap-bbox="true"
     inkscape:snap-bbox-midpoints="true"
     fit-margin-top="0"
     fit-margin-left="0"
     fit-margin-right="0"
     fit-margin-bottom="0">
    <inkscape:grid
       type="xygrid"
       id="grid8920"
       spacingx="5"
       spacingy="5"
       snapvisiblegridlinesonly="false"
       originx="5"
       originy="34.999901" />
  </sodipodi:namedview>
  <metadata
     id="metadata8377">
    <rdf:RDF>
      <cc:Work
         rdf:about="">
        <dc:format>image/svg+xml</dc:format>
        <dc:type
           rdf:resource="http://purl.org/dc/dcmitype/StillImage" />
        <dc:title></dc:title>
      </cc:Work>
    </rdf:RDF>
  </metadata>
  <g
     inkscape:label="Layer 1"
     inkscape:groupmode="layer"
     id="layer1"
     transform="translate(5,2.6574999)">
    <rect
       style="fill:#4d4d4d;fill-opacity:1;stroke:#4d4d4d;stroke-width:0.21582924;stroke-linecap:round;stroke-linejoin:round;stroke-miterlimit:4;stroke-dasharray:none;stroke-dashoffset:0"
       id="rect12176"
       width="69.984169"
       height="9.9841709"
       x="10.007915"
       y="190.00792" />
    <rect
       style="fill:#ececec;fill-opacity:1;stroke:none;stroke-width:0.5;stroke-linecap:round;stroke-linejoin:round;stroke-miterlimit:4;stroke-dasharray:1, 1;stroke-dashoffset:0"
       id="rect14747"
       width="170"
       height="30"
       x="-4.999999"
       y="30.00001" />
    <rect
       style="fill:#4d4d4d;fill-opacity:1;stroke:#4d4d4d;stroke-width:0.2;stroke-linecap:round;stroke-linejoin:round;stroke-miterlimit:4;stroke-dasharray:none;stroke-dashoffset:0"
       id="rect12176-7"
       width="70"
       height="10"
       x="90"
       y="40" />
    <rect
       style="fill:#4d4d4d;fill-opacity:1;stroke:#4d4d4d;stroke-width:0.2;stroke-linecap:round;stroke-linejoin:round;stroke-miterlimit:4;stroke-dasharray:none;stroke-dashoffset:0"
       id="rect12176-7-5"
       width="60"
       height="10"
       x="100"
       y="70" />
    <rect
       y="89.999908"
       x="-5"
       height="30"
       width="170"
       id="rect5054"
       style="fill:#ececec;fill-opacity:1;stroke:none;stroke-width:0.5;stroke-linecap:round;stroke-linejoin:round;stroke-miterlimit:4;stroke-dasharray:1, 1;stroke-dashoffset:0" />
    <rect
       style="fill:#4d4d4d;fill-opacity:1;stroke:#4d4d4d;stroke-width:0.2;stroke-linecap:round;stroke-linejoin:round;stroke-miterlimit:4;stroke-dasharray:none;stroke-dashoffset:0"
       id="rect12176-7-5-1"
       width="50"
       height="10"
       x="110"
       y="100" />
    <rect
       style="fill:#4d4d4d;fill-opacity:1;stroke:#4d4d4d;stroke-width:0.2;stroke-linecap:round;stroke-linejoin:round;stroke-miterlimit:4;stroke-dasharray:none;stroke-dashoffset:0"
       id="rect12176-7-5-2"
       width="40"
       height="10"
       x="120"
       y="130" />
    <rect
       style="fill:#ececec;fill-opacity:1;stroke:none;stroke-width:0.5;stroke-linecap:round;stroke-linejoin:round;stroke-miterlimit:4;stroke-dasharray:1, 1;stroke-dashoffset:0"
       id="rect20560"
       width="170"
       height="30"
       x="-5"
       y="149.99991" />
    <rect
       style="fill:#4d4d4d;fill-opacity:1;stroke:#4d4d4d;stroke-width:0.2;stroke-linecap:round;stroke-linejoin:round;stroke-miterlimit:4;stroke-dasharray:none;stroke-dashoffset:0"
       id="rect12176-7-5-7"
       width="30"
       height="10"
       x="130"
       y="160" />
    <rect
       y="209.99991"
       x="-5"
       height="35"
       width="170"
       id="rect20580"
       style="fill:#ececec;fill-opacity:1;stroke:none;stroke-width:0.5;stroke-linecap:round;stroke-linejoin:round;stroke-miterlimit:4;stroke-dasharray:1, 1;stroke-dashoffset:0" />
    <rect
       y="220"
       x="150"
       height="10"
       width="10"
       id="rect4218"
       style="fill:#4d4d4d;fill-opacity:1;stroke:#4d4d4d;stroke-width:0.2;stroke-linecap:round;stroke-linejoin:round;stroke-miterlimit:4;stroke-dasharray:none;stroke-dashoffset:0" />
    <rect
       style="fill:#4d4d4d;fill-opacity:1;stroke:#4d4d4d;stroke-width:0.2;stroke-linecap:round;stroke-linejoin:round;stroke-miterlimit:4;stroke-dasharray:none;stroke-dashoffset:0"
       id="rect12176-7-5-0"
       width="20"
       height="10"
       x="140"
       y="190" />
    <rect
       style="fill:#4d4d4d;fill-opacity:1;stroke:#4d4d4d;stroke-width:0.28112128;stroke-linecap:round;stroke-linejoin:round;stroke-miterlimit:4;stroke-dasharray:none;stroke-dashoffset:0"
       id="rect12176-7-5-9"
       width="19.918879"
       height="9.9188786"
       x="10.040561"
       y="40.040562" />
    <rect
       style="fill:#4d4d4d;fill-opacity:1;stroke:#4d4d4d;stroke-width:0.2442265;stroke-linecap:round;stroke-linejoin:round;stroke-miterlimit:4;stroke-dasharray:none;stroke-dashoffset:0"
       id="rect12176-7-5-3"
       width="29.955774"
       height="9.9557734"
       x="10.022113"
       y="70.02211" />
    <rect
       style="fill:#4d4d4d;fill-opacity:1;stroke:#4d4d4d;stroke-width:0.23049973;stroke-linecap:round;stroke-linejoin:round;stroke-miterlimit:4;stroke-dasharray:none;stroke-dashoffset:0"
       id="rect12176-7-5-6"
       width="39.969501"
       height="9.9695005"
       x="10.01525"
       y="100.01525" />
    <rect
       style="fill:#4d4d4d;fill-opacity:1;stroke:#4d4d4d;stroke-width:0.22329418;stroke-linecap:round;stroke-linejoin:round;stroke-miterlimit:4;stroke-dasharray:none;stroke-dashoffset:0"
       id="rect12176-7-5-06"
       width="49.976707"
       height="9.9767056"
       x="10.011647"
       y="130.01164" />
    <rect
       style="fill:#4d4d4d;fill-opacity:1;stroke:#4d4d4d;stroke-width:0.21884808;stroke-linecap:round;stroke-linejoin:round;stroke-miterlimit:4;stroke-dasharray:none;stroke-dashoffset:0"
       id="rect12176-7-5-26"
       width="59.981152"
       height="9.9811516"
       x="10.009424"
       y="160.00943" />
    <rect
       y="10"
       x="80"
       height="10"
       width="80"
       id="rect4222"
       style="fill:#4d4d4d;fill-opacity:1;stroke:#4d4d4d;stroke-width:0.2;stroke-linecap:round;stroke-linejoin:round;stroke-miterlimit:4;stroke-dasharray:none;stroke-dashoffset:0" />
    <rect
       y="220.01527"
       x="10.01527"
       height="9.9694595"
       width="79.985458"
       id="rect4224"
       style="fill:#4d4d4d;fill-opacity:1;stroke:#4d4d4d;stroke-width:0.23054016;stroke-linecap:round;stroke-linejoin:round;stroke-miterlimit:4;stroke-dasharray:none;stroke-dashoffset:0" />
    <rect
       y="10"
       x="10"
       height="10"
       width="10"
       id="rect4250"
       style="fill:#4d4d4d;fill-opacity:1;stroke:#4d4d4d;stroke-width:0.2;stroke-linecap:round;stroke-linejoin:round;stroke-miterlimit:4;stroke-dasharray:none;stroke-dashoffset:0" />
    <g
       id="g12193">
      <g
         id="g8964">
        <path
           style="fill:none;fill-rule:evenodd;stroke:#000000;stroke-width:1px;stroke-linecap:round;stroke-linejoin:miter;stroke-opacity:1"
           d="m 10,10 150,0"
           id="path8922"
           inkscape:connector-curvature="0"
           sodipodi:nodetypes="cc" />
        <path
           style="fill:none;fill-rule:evenodd;stroke:#000000;stroke-width:1px;stroke-linecap:round;stroke-linejoin:miter;stroke-opacity:1"
           d="m 10,20 150,0"
           id="path8924"
           inkscape:connector-curvature="0"
           sodipodi:nodetypes="cc" />
        <path
           style="fill:none;fill-rule:evenodd;stroke:#000000;stroke-width:1px;stroke-linecap:round;stroke-linejoin:miter;stroke-opacity:1"
           d="m 10,10 0,10"
           id="path8926"
           inkscape:connector-curvature="0" />
        <path
           style="fill:none;fill-rule:evenodd;stroke:#000000;stroke-width:1px;stroke-linecap:round;stroke-linejoin:miter;stroke-opacity:1"
           d="m 20,10 0,10"
           id="path8928"
           inkscape:connector-curvature="0" />
        <path
           style="fill:none;fill-rule:evenodd;stroke:#000000;stroke-width:1px;stroke-linecap:round;stroke-linejoin:miter;stroke-opacity:1"
           d="m 30,10 0,10"
           id="path8930"
           inkscape:connector-curvature="0" />
        <path
           style="fill:none;fill-rule:evenodd;stroke:#000000;stroke-width:1px;stroke-linecap:round;stroke-linejoin:miter;stroke-opacity:1"
           d="m 40,10 0,10"
           id="path8932"
           inkscape:connector-curvature="0" />
        <path
           style="fill:none;fill-rule:evenodd;stroke:#000000;stroke-width:1px;stroke-linecap:round;stroke-linejoin:miter;stroke-opacity:1"
           d="m 50,10 0,10"
           id="path8934"
           inkscape:connector-curvature="0" />
        <path
           style="fill:none;fill-rule:evenodd;stroke:#000000;stroke-width:1px;stroke-linecap:round;stroke-linejoin:miter;stroke-opacity:1"
           d="m 60,10 0,10"
           id="path8936"
           inkscape:connector-curvature="0" />
        <path
           style="fill:none;fill-rule:evenodd;stroke:#000000;stroke-width:1px;stroke-linecap:round;stroke-linejoin:miter;stroke-opacity:1"
           d="m 70,10 0,10"
           id="path8938"
           inkscape:connector-curvature="0" />
        <path
           style="fill:none;fill-rule:evenodd;stroke:#000000;stroke-width:1px;stroke-linecap:round;stroke-linejoin:miter;stroke-opacity:1"
           d="m 80,10 0,10"
           id="path8940"
           inkscape:connector-curvature="0" />
        <path
           style="fill:none;fill-rule:evenodd;stroke:#000000;stroke-width:1px;stroke-linecap:round;stroke-linejoin:miter;stroke-opacity:1"
           d="m 90,10 0,10"
           id="path8942"
           inkscape:connector-curvature="0" />
        <path
           style="fill:none;fill-rule:evenodd;stroke:#000000;stroke-width:1px;stroke-linecap:round;stroke-linejoin:miter;stroke-opacity:1"
           d="m 100,10 0,10"
           id="path8944"
           inkscape:connector-curvature="0" />
        <path
           style="fill:none;fill-rule:evenodd;stroke:#000000;stroke-width:1px;stroke-linecap:round;stroke-linejoin:miter;stroke-opacity:1"
           d="m 110,10 0,10"
           id="path8946"
           inkscape:connector-curvature="0" />
        <path
           style="fill:none;fill-rule:evenodd;stroke:#000000;stroke-width:1px;stroke-linecap:round;stroke-linejoin:miter;stroke-opacity:1"
           d="m 120,10 0,10"
           id="path8948"
           inkscape:connector-curvature="0" />
        <path
           style="fill:none;fill-rule:evenodd;stroke:#000000;stroke-width:1px;stroke-linecap:round;stroke-linejoin:miter;stroke-opacity:1"
           d="m 130,10 0,10"
           id="path8950"
           inkscape:connector-curvature="0" />
        <path
           style="fill:none;fill-rule:evenodd;stroke:#000000;stroke-width:1px;stroke-linecap:round;stroke-linejoin:miter;stroke-opacity:1"
           d="m 140,10 0,10"
           id="path8952"
           inkscape:connector-curvature="0" />
        <path
           style="fill:none;fill-rule:evenodd;stroke:#000000;stroke-width:1px;stroke-linecap:round;stroke-linejoin:miter;stroke-opacity:1"
           d="m 150,10 0,10"
           id="path8954"
           inkscape:connector-curvature="0" />
        <path
           inkscape:connector-curvature="0"
           id="path4214"
           d="m 160,10 0,10"
           style="fill:none;fill-rule:evenodd;stroke:#000000;stroke-width:1px;stroke-linecap:round;stroke-linejoin:miter;stroke-opacity:1" />
      </g>
      <use
         height="100%"
         width="100%"
         id="use8987"
         xlink:href="#g8964"
         y="30"
         x="0" />
      <use
         height="100%"
         width="100%"
         id="use8989"
         xlink:href="#g8964"
         y="60"
         x="0" />
      <use
         height="100%"
         width="100%"
         id="use8991"
         xlink:href="#g8964"
         y="90"
         x="0" />
      <use
         height="100%"
         width="100%"
         id="use8993"
         xlink:href="#g8964"
         y="120"
         x="0" />
      <use
         height="100%"
         width="100%"
         id="use8995"
         xlink:href="#g8964"
         y="150"
         x="0" />
      <use
         height="100%"
         width="100%"
         id="use8997"
         xlink:href="#g8964"
         y="180"
         x="0" />
      <use
         x="0"
         y="180"
         xlink:href="#g8964"
         id="use4212"
         width="100%"
         height="100%"
         transform="translate(0,30)" />
    </g>
    <g
       id="g12223">
      <g
         id="g12139">
        <g
           id="g11800">
          <path
             inkscape:connector-curvature="0"
             id="path9027"
             d="m 17,22 5,15"
             style="fill:none;fill-rule:evenodd;stroke:#000000;stroke-width:1px;stroke-linecap:round;stroke-linejoin:miter;stroke-opacity:1;marker-end:url(#marker34605)" />
          <path
             inkscape:connector-curvature="0"
             id="path9029"
             d="m 25,22 0,15"
             style="fill:none;fill-rule:evenodd;stroke:#000000;stroke-width:1px;stroke-linecap:round;stroke-linejoin:miter;stroke-opacity:1;marker-end:url(#marker77401)" />
          <path
             inkscape:connector-curvature="0"
             id="path9031"
             d="M 33,22 28,37"
             style="fill:none;fill-rule:evenodd;stroke:#000000;stroke-width:1px;stroke-linecap:round;stroke-linejoin:miter;stroke-opacity:1;marker-end:url(#marker12129)" />
        </g>
        <use
           x="20"
           y="0"
           xlink:href="#g11800"
           id="use11805"
           width="100%"
           height="100%"
           style="opacity:1" />
        <use
           height="100%"
           width="100%"
           id="use12174"
           xlink:href="#g11800"
           y="0"
           x="40" />
        <use
           x="60"
           y="0"
           xlink:href="#g11800"
           id="use12237"
           width="100%"
           height="100%"
           style="opacity:1" />
      </g>
      <use
         height="100%"
         width="100%"
         id="use12164"
         xlink:href="#g12139"
         y="30"
         x="10" />
      <use
         height="100%"
         width="100%"
         id="use12166"
         xlink:href="#g12139"
         y="60"
         x="20" />
      <use
         height="100%"
         width="100%"
         id="use12168"
         xlink:href="#g12139"
         y="90"
         x="30" />
      <use
         height="100%"
         width="100%"
         id="use12170"
         xlink:href="#g12139"
         y="120"
         x="40" />
      <use
         height="100%"
         width="100%"
         id="use12172"
         xlink:href="#g12139"
         y="150"
         x="50" />
      <use
         x="60"
         y="180"
         xlink:href="#g12139"
         id="use4220"
         width="100%"
         height="100%" />
    </g>
    <g
       style="font-style:normal;font-variant:normal;font-weight:500;font-stretch:normal;font-size:40px;line-height:125%;font-family:'CMU Serif';-inkscape-font-specification:'CMU Serif Medium';text-align:center;letter-spacing:0px;word-spacing:0px;text-anchor:middle;fill:#000000;fill-opacity:1;stroke:none;stroke-width:1px;stroke-linecap:butt;stroke-linejoin:miter;stroke-opacity:1"
       id="text12347">
      <path
         d="m 103.22842,5.8800001 0,-0.3875 0.325,0 q 0.7,0 0.8625,-0.1125 0.1625,-0.1125 0.1625,-0.475 l 0,-6.5875 q 0,-0.3625 -0.1625,-0.475 -0.1625,-0.1125 -0.8625,-0.1125 l -0.325,0 0,-0.3875 q 0.4375,0.0375 1.9125,0.0375 1.4625,0 1.9,-0.0375 l 0,0.3875 -0.325,0 q -0.7,0 -0.8625,0.1125 -0.1625,0.1125 -0.1625,0.475 l 0,6.5875 q 0,0.3625 0.1625,0.475 0.1625,0.1125 0.8625,0.1125 l 0.325,0 0,0.3875 q -0.4375,-0.0375 -1.9125,-0.0375 -1.4625,0 -1.9,0.0375 z"
         style="font-style:normal;font-variant:normal;font-weight:500;font-stretch:normal;font-size:12.5px;font-family:'CMU Serif';-inkscape-font-specification:'CMU Serif Medium';text-align:center;text-anchor:middle"
         id="path4227"
         inkscape:connector-curvature="0" />
      <path
         d="m 107.79502,5.8800001 0,-0.3875 q 0.6625,0 0.8125,-0.075 0.1625,-0.0875 0.1625,-0.4875 l 0,-3.35 q 0,-0.4625 -0.1625,-0.575 -0.1625,-0.12499999 -0.8125,-0.12499999 l 0,-0.3875 1.7625,-0.1375 0,1.31249999 q 0.5875,-1.31249999 1.85,-1.31249999 0.9375,0 1.3125,0.4625 0.275,0.31249999 0.325,0.66249999 0.0625,0.35 0.0625,1.25 l 0,2.3875 q 0.0125,0.2625 0.2125,0.325 0.2,0.05 0.7625,0.05 l 0,0.3875 q -1.275,-0.0375 -1.4,-0.0375 -0.1,0 -1.4125,0.0375 l 0,-0.3875 q 0.6625,0 0.8125,-0.075 0.1625,-0.0875 0.1625,-0.4875 l 0,-2.9125 q 0,-0.6375 -0.2,-1.0125 -0.1875,-0.37499999 -0.725,-0.37499999 -0.65,0 -1.175,0.54999999 -0.5125,0.5375 -0.5125,1.45 l 0,2.3 q 0,0.4 0.15,0.4875 0.1625,0.075 0.825,0.075 l 0,0.3875 q -1.275,-0.0375 -1.4,-0.0375 -0.1,0 -1.4125,0.0375 z"
         style="font-style:normal;font-variant:normal;font-weight:500;font-stretch:normal;font-size:12.5px;font-family:'CMU Serif';-inkscape-font-specification:'CMU Serif Medium';text-align:center;text-anchor:middle"
         id="path4229"
         inkscape:connector-curvature="0" />
      <path
         d="m 114.67861,7.9175001 q 0.6625,0 0.8125,-0.0875 0.1625,-0.075 0.1625,-0.475 l 0,-5.85 q 0,-0.4125 -0.1625,-0.51249999 -0.15,-0.1125 -0.8125,-0.1125 l 0,-0.3875 1.8,-0.1375 0,0.82499999 q 0.75,-0.82499999 1.75,-0.82499999 1.0625,0 1.8375,0.82499999 0.775,0.825 0.775,2 0,1.1875 -0.825,2.0125 -0.825,0.825 -1.9625,0.825 -0.625,0 -1.05,-0.3125 -0.4125,-0.325 -0.4875,-0.5625 l 0,0.1125 0,2.1 q 0,0.4 0.15,0.475 0.1625,0.0875 0.825,0.0875 l 0,0.3875 q -1.3125,-0.0375 -1.4125,-0.0375 -0.125,0 -1.4,0.0375 l 0,-0.3875 z m 1.8375,-3.4625 q 0,0.1875 0.025,0.2625 0.025,0.0625 0.15,0.2625 0.5,0.7625 1.3125,0.7625 0.7125,0 1.25,-0.725 0.55,-0.7375 0.55,-1.8375 0,-1.05 -0.5,-1.775 -0.4875,-0.73749999 -1.175,-0.73749999 -0.4875,0 -0.9125,0.2625 -0.425,0.26249999 -0.7,0.73749999 l 0,2.7875 z"
         style="font-style:normal;font-variant:normal;font-weight:500;font-stretch:normal;font-size:12.5px;font-family:'CMU Serif';-inkscape-font-specification:'CMU Serif Medium';text-align:center;text-anchor:middle"
         id="path4231"
         inkscape:connector-curvature="0" />
      <path
         d="m 121.66221,0.88000011 0,-0.3875 1.8375,-0.1375 0,4.14999999 q 0,0.3 0.025,0.475 0.025,0.175 0.125,0.375 0.1,0.2 0.3375,0.3 0.2375,0.0875 0.6125,0.0875 0.675,0 1.0875,-0.55 0.425,-0.5625 0.425,-1.3875 l 0,-2.225 q 0,-0.4625 -0.1625,-0.575 -0.1625,-0.12499999 -0.8125,-0.12499999 l 0,-0.3875 1.8375,-0.1375 0,4.43749999 q 0,0.4625 0.1625,0.5875 0.1625,0.1125 0.8125,0.1125 l 0,0.3875 -1.8,0.1375 0,-1.125 q -0.525,1.125 -1.6125,1.125 -0.55,0 -0.925,-0.1375 -0.375,-0.1375 -0.5625,-0.3125 -0.1875,-0.175 -0.2875,-0.5125 -0.1,-0.3375 -0.1125,-0.5375 -0.0125,-0.2125 -0.0125,-0.6125 l 0,-1.875 q 0,-0.85 -0.125,-1 -0.125,-0.14999999 -0.85,-0.14999999 z"
         style="font-style:normal;font-variant:normal;font-weight:500;font-stretch:normal;font-size:12.5px;font-family:'CMU Serif';-inkscape-font-specification:'CMU Serif Medium';text-align:center;text-anchor:middle"
         id="path4233"
         inkscape:connector-curvature="0" />
      <path
         d="m 128.4333,0.88000011 0,-0.275 q 0.575,-0.025 0.95,-0.425 0.3875,-0.4125 0.5125,-0.9125 0.1375,-0.50000001 0.15,-1.07500001 l 0.3125,0 0,2.30000001 1.7875,0 0,0.3875 -1.7875,0 0,3.47499999 q 0,1.35 0.8375,1.35 0.3625,0 0.6,-0.3625 0.2375,-0.375 0.2375,-1.0375 l 0,-0.6875 0.3125,0 0,0.7125 q 0,0.675 -0.3125,1.1875 -0.3125,0.5 -0.925,0.5 -0.225,0 -0.45,-0.0625 -0.225,-0.05 -0.5125,-0.2 -0.2875,-0.15 -0.475,-0.5125 -0.175,-0.375 -0.175,-0.9125 l 0,-3.44999999 -1.0625,0 z"
         style="font-style:normal;font-variant:normal;font-weight:500;font-stretch:normal;font-size:12.5px;font-family:'CMU Serif';-inkscape-font-specification:'CMU Serif Medium';text-align:center;text-anchor:middle"
         id="path4235"
         inkscape:connector-curvature="0" />
    </g>
    <g
       style="font-style:normal;font-variant:normal;font-weight:500;font-stretch:normal;font-size:40px;line-height:125%;font-family:'CMU Serif';-inkscape-font-specification:'CMU Serif Medium';text-align:center;letter-spacing:0px;word-spacing:0px;text-anchor:middle;fill:#000000;fill-opacity:1;stroke:none;stroke-width:1px;stroke-linecap:butt;stroke-linejoin:miter;stroke-opacity:1"
       id="text12351">
      <path
         d="m 30.582812,236.1624 q 0,-1.9125 1.225,-3.2375 1.225,-1.3375 2.925001,-1.3375 1.712499,0 2.9375,1.3375 1.225,1.3375 1.225,3.2375 0,1.8875 -1.225,3.2 -1.225001,1.3125 -2.9375,1.3125 -1.6875,0 -2.925001,-1.3 -1.225,-1.3125 -1.225,-3.2125 z m 1.2875,-0.175 q 0,1.1625 0.275001,2.05 0.275,0.8875 0.7125,1.375 0.449999,0.475 0.924999,0.7125 0.475,0.225 0.9625,0.225 0.475,0 0.9375,-0.225 0.475,-0.225 0.9125,-0.7 0.450001,-0.475 0.725,-1.3625 0.287501,-0.9 0.287501,-2.075 0,-0.9125 -0.200001,-1.65 -0.1875,-0.7375 -0.5,-1.175 -0.299999,-0.45 -0.699999,-0.7375 -0.387501,-0.3 -0.762501,-0.4125 -0.362499,-0.1125 -0.712499,-0.1125 -0.4375,0 -0.9,0.2 -0.450001,0.1875 -0.9125,0.625 -0.4625,0.425 -0.762501,1.275 -0.2875,0.8375 -0.2875,1.9875 z"
         style="font-style:normal;font-variant:normal;font-weight:500;font-stretch:normal;font-size:12.5px;font-family:'CMU Serif';-inkscape-font-specification:'CMU Serif Medium';text-align:center;text-anchor:middle"
         id="path4238"
         inkscape:connector-curvature="0" />
      <path
         d="m 39.999609,235.3999 0,-0.3875 1.8375,-0.1375 0,4.15 q 0,0.3 0.025,0.475 0.025,0.175 0.125,0.375 0.1,0.2 0.3375,0.3 0.2375,0.0875 0.6125,0.0875 0.675,0 1.0875,-0.55 0.425,-0.5625 0.425,-1.3875 l 0,-2.225 q 0,-0.4625 -0.1625,-0.575 -0.1625,-0.125 -0.8125,-0.125 l 0,-0.3875 1.8375,-0.1375 0,4.4375 q 0,0.4625 0.1625,0.5875 0.1625,0.1125 0.8125,0.1125 l 0,0.3875 -1.8,0.1375 0,-1.125 q -0.525,1.125 -1.6125,1.125 -0.55,0 -0.925,-0.1375 -0.375,-0.1375 -0.5625,-0.3125 -0.1875,-0.175 -0.2875,-0.5125 -0.1,-0.3375 -0.1125,-0.5375 -0.0125,-0.2125 -0.0125,-0.6125 l 0,-1.875 q 0,-0.85 -0.125,-1 -0.125,-0.15 -0.85,-0.15 z"
         style="font-style:normal;font-variant:normal;font-weight:500;font-stretch:normal;font-size:12.5px;font-family:'CMU Serif';-inkscape-font-specification:'CMU Serif Medium';text-align:center;text-anchor:middle"
         id="path4240"
         inkscape:connector-curvature="0" />
      <path
         d="m 46.770703,235.3999 0,-0.275 q 0.575,-0.025 0.95,-0.425 0.3875,-0.4125 0.5125,-0.9125 0.1375,-0.5 0.15,-1.075 l 0.3125,0 0,2.3 1.7875,0 0,0.3875 -1.7875,0 0,3.475 q 0,1.35 0.8375,1.35 0.3625,0 0.6,-0.3625 0.2375,-0.375 0.2375,-1.0375 l 0,-0.6875 0.3125,0 0,0.7125 q 0,0.675 -0.3125,1.1875 -0.3125,0.5 -0.925,0.5 -0.225,0 -0.45,-0.0625 -0.225,-0.05 -0.5125,-0.2 -0.2875,-0.15 -0.475,-0.5125 -0.175,-0.375 -0.175,-0.9125 l 0,-3.45 -1.0625,0 z"
         style="font-style:normal;font-variant:normal;font-weight:500;font-stretch:normal;font-size:12.5px;font-family:'CMU Serif';-inkscape-font-specification:'CMU Serif Medium';text-align:center;text-anchor:middle"
         id="path4242"
         inkscape:connector-curvature="0" />
      <path
         d="m 51.741602,242.4374 q 0.6625,0 0.8125,-0.0875 0.1625,-0.075 0.1625,-0.475 l 0,-5.85 q 0,-0.4125 -0.1625,-0.5125 -0.15,-0.1125 -0.8125,-0.1125 l 0,-0.3875 1.8,-0.1375 0,0.825 q 0.75,-0.825 1.75,-0.825 1.0625,0 1.8375,0.825 0.775,0.825 0.775,2 0,1.1875 -0.825,2.0125 -0.825,0.825 -1.9625,0.825 -0.625,0 -1.05,-0.3125 -0.4125,-0.325 -0.4875,-0.5625 l 0,0.1125 0,2.1 q 0,0.4 0.15,0.475 0.1625,0.0875 0.825,0.0875 l 0,0.3875 q -1.3125,-0.0375 -1.4125,-0.0375 -0.125,0 -1.4,0.0375 l 0,-0.3875 z m 1.8375,-3.4625 q 0,0.1875 0.025,0.2625 0.025,0.0625 0.15,0.2625 0.5,0.7625 1.3125,0.7625 0.7125,0 1.25,-0.725 0.55,-0.7375 0.55,-1.8375 0,-1.05 -0.5,-1.775 -0.4875,-0.7375 -1.175,-0.7375 -0.4875,0 -0.9125,0.2625 -0.425,0.2625 -0.7,0.7375 l 0,2.7875 z"
         style="font-style:normal;font-variant:normal;font-weight:500;font-stretch:normal;font-size:12.5px;font-family:'CMU Serif';-inkscape-font-specification:'CMU Serif Medium';text-align:center;text-anchor:middle"
         id="path4244"
         inkscape:connector-curvature="0" />
      <path
         d="m 58.725195,235.3999 0,-0.3875 1.8375,-0.1375 0,4.15 q 0,0.3 0.025,0.475 0.025,0.175 0.125,0.375 0.1,0.2 0.3375,0.3 0.2375,0.0875 0.6125,0.0875 0.675,0 1.0875,-0.55 0.425,-0.5625 0.425,-1.3875 l 0,-2.225 q 0,-0.4625 -0.1625,-0.575 -0.1625,-0.125 -0.8125,-0.125 l 0,-0.3875 1.8375,-0.1375 0,4.4375 q 0,0.4625 0.1625,0.5875 0.1625,0.1125 0.8125,0.1125 l 0,0.3875 -1.8,0.1375 0,-1.125 q -0.525,1.125 -1.6125,1.125 -0.55,0 -0.925,-0.1375 -0.375,-0.1375 -0.5625,-0.3125 -0.1875,-0.175 -0.2875,-0.5125 -0.1,-0.3375 -0.1125,-0.5375 -0.0125,-0.2125 -0.0125,-0.6125 l 0,-1.875 q 0,-0.85 -0.125,-1 -0.125,-0.15 -0.85,-0.15 z"
         style="font-style:normal;font-variant:normal;font-weight:500;font-stretch:normal;font-size:12.5px;font-family:'CMU Serif';-inkscape-font-specification:'CMU Serif Medium';text-align:center;text-anchor:middle"
         id="path4246"
         inkscape:connector-curvature="0" />
      <path
         d="m 65.496289,235.3999 0,-0.275 q 0.575,-0.025 0.95,-0.425 0.3875,-0.4125 0.5125,-0.9125 0.1375,-0.5 0.15,-1.075 l 0.3125,0 0,2.3 1.7875,0 0,0.3875 -1.7875,0 0,3.475 q 0,1.35 0.8375,1.35 0.3625,0 0.6,-0.3625 0.2375,-0.375 0.2375,-1.0375 l 0,-0.6875 0.3125,0 0,0.7125 q 0,0.675 -0.3125,1.1875 -0.3125,0.5 -0.925,0.5 -0.225,0 -0.45,-0.0625 -0.225,-0.05 -0.5125,-0.2 -0.2875,-0.15 -0.475,-0.5125 -0.175,-0.375 -0.175,-0.9125 l 0,-3.45 -1.0625,0 z"
         style="font-style:normal;font-variant:normal;font-weight:500;font-stretch:normal;font-size:12.5px;font-family:'CMU Serif';-inkscape-font-specification:'CMU Serif Medium';text-align:center;text-anchor:middle"
         id="path4248"
         inkscape:connector-curvature="0" />
    </g>
    <g
       style="font-style:normal;font-variant:normal;font-weight:500;font-stretch:normal;font-size:10px;line-height:125%;font-family:'CMU Serif';-inkscape-font-specification:'CMU Serif Medium';text-align:center;letter-spacing:0px;word-spacing:0px;text-anchor:middle;fill:#000000;fill-opacity:1;stroke:none;stroke-width:1px;stroke-linecap:butt;stroke-linejoin:miter;stroke-opacity:1"
       id="text4252"
       transform="translate(0,-2e-6)">
      <path
         d="m 3.35,42.620002 0,-0.31 q 1.2,0 1.82,-0.64 0.17,0 0.2,0.04 0.03,0.04 0.03,0.22 l 0,5.61 q 0,0.3 0.14,0.39 0.15,0.09 0.79,0.09 l 0.32,0 0,0.31 q -0.35,-0.03 -1.62,-0.03 -1.27,0 -1.62,0.03 l 0,-0.31 0.32,0 q 0.63,0 0.78,-0.09 0.15,-0.09 0.15,-0.39 l 0,-5.18 q -0.52,0.26 -1.31,0.26 z"
         id="path4284"
         inkscape:connector-curvature="0" />
    </g>
    <g
       style="font-style:normal;font-variant:normal;font-weight:500;font-stretch:normal;font-size:10px;line-height:125%;font-family:'CMU Serif';-inkscape-font-specification:'CMU Serif Medium';text-align:center;letter-spacing:0px;word-spacing:0px;text-anchor:middle;fill:#000000;fill-opacity:1;stroke:none;stroke-width:1px;stroke-linecap:butt;stroke-linejoin:miter;stroke-opacity:1"
       id="text4256"
       transform="translate(0.045,-2e-6)">
      <path
         d="m 2.96,78.330002 q 0,-0.18 0.01,-0.23 0.02,-0.06 0.1,-0.14 l 1.92,-2.14 q 1.05,-1.18 1.05,-2.21 0,-0.67 -0.35,-1.15 -0.35,-0.48 -0.99,-0.48 -0.44,0 -0.81,0.27 -0.37,0.27 -0.54,0.75 0.03,-0.01 0.13,-0.01 0.25,0 0.39,0.16 0.14,0.15 0.14,0.36 0,0.27 -0.18,0.4 -0.17,0.13 -0.34,0.13 -0.07,0 -0.16,-0.01 -0.09,-0.02 -0.23,-0.16 -0.14,-0.14 -0.14,-0.39 0,-0.7 0.53,-1.25 0.53,-0.56 1.34,-0.56 0.92,0 1.52,0.55 0.6,0.54 0.6,1.39 0,0.3 -0.09,0.57 -0.09,0.27 -0.21,0.48 -0.12,0.21 -0.44,0.55 -0.32,0.33 -0.58,0.57 -0.26,0.24 -0.84,0.75 l -1.06,1.03 1.8,0 q 0.88,0 0.95,-0.08 0.1,-0.14 0.22,-0.89 l 0.25,0 -0.28,1.74 -3.71,0 z"
         id="path4281"
         inkscape:connector-curvature="0" />
    </g>
    <g
       style="font-style:normal;font-variant:normal;font-weight:500;font-stretch:normal;font-size:10px;line-height:125%;font-family:'CMU Serif';-inkscape-font-specification:'CMU Serif Medium';text-align:center;letter-spacing:0px;word-spacing:0px;text-anchor:middle;fill:#000000;fill-opacity:1;stroke:none;stroke-width:1px;stroke-linecap:butt;stroke-linejoin:miter;stroke-opacity:1"
       id="text4260"
       transform="translate(1.045,-0.11)">
      <path
         d="m 1.88,106.98 q 0,-0.3 0.17,-0.44 0.17,-0.14 0.39,-0.14 0.23,0 0.39,0.15 0.17,0.15 0.17,0.41 0,0.28 -0.2,0.44 -0.19,0.15 -0.46,0.11 0.24,0.4 0.68,0.58 0.44,0.18 0.85,0.18 0.43,0 0.78,-0.37 Q 5,107.53 5,106.62 5,105.85 4.7,105.41 4.4,104.96 3.81,104.96 l -0.44,0 q -0.15,0 -0.2,-0.01 -0.04,-0.02 -0.04,-0.1 0,-0.1 0.15,-0.12 0.15,0 0.39,-0.03 0.58,-0.02 0.89,-0.52 0.28,-0.47 0.28,-1.14 0,-0.61 -0.29,-0.86 -0.29,-0.26 -0.67,-0.26 -0.35,0 -0.74,0.15 -0.38,0.14 -0.59,0.47 0.62,0 0.62,0.5 0,0.22 -0.14,0.37 -0.14,0.14 -0.37,0.14 -0.22,0 -0.37,-0.14 -0.14,-0.14 -0.14,-0.38 0,-0.57 0.51,-0.96 0.51,-0.4 1.26,-0.4 0.74,0 1.29,0.39 0.55,0.39 0.55,0.99 0,0.59 -0.39,1.08 -0.39,0.48 -1.01,0.68 0.76,0.15 1.21,0.67 0.46,0.51 0.46,1.14 0,0.78 -0.62,1.36 -0.61,0.57 -1.51,0.57 -0.83,0 -1.43,-0.45 -0.59,-0.45 -0.59,-1.12 z"
         id="path4296"
         inkscape:connector-curvature="0" />
    </g>
    <g
       style="font-style:normal;font-variant:normal;font-weight:500;font-stretch:normal;font-size:10px;line-height:125%;font-family:'CMU Serif';-inkscape-font-specification:'CMU Serif Medium';text-align:center;letter-spacing:0px;word-spacing:0px;text-anchor:middle;fill:#000000;fill-opacity:1;stroke:none;stroke-width:1px;stroke-linecap:butt;stroke-linejoin:miter;stroke-opacity:1"
       id="text4264"
       transform="translate(1.045,1.055)">
      <path
         d="m 1.74,135.68 0,-0.31 3.07,-4.69 q 0.08,-0.12 0.2,-0.12 0.11,0 0.13,0.05 0.03,0.04 0.03,0.21 l 0,4.55 1,0 0,0.31 -1,0 0,0.87 q 0,0.29 0.12,0.38 0.12,0.09 0.64,0.09 l 0.21,0 0,0.31 q -0.41,-0.03 -1.36,-0.03 -0.94,0 -1.35,0.03 l 0,-0.31 0.21,0 q 0.52,0 0.64,-0.09 0.12,-0.09 0.12,-0.38 l 0,-0.87 -2.66,0 z m 0.28,-0.31 2.44,0 0,-3.73 -2.44,3.73 z"
         id="path4293"
         inkscape:connector-curvature="0" />
    </g>
    <g
       style="font-style:normal;font-variant:normal;font-weight:500;font-stretch:normal;font-size:10px;line-height:125%;font-family:'CMU Serif';-inkscape-font-specification:'CMU Serif Medium';text-align:center;letter-spacing:0px;word-spacing:0px;text-anchor:middle;fill:#000000;fill-opacity:1;stroke:none;stroke-width:1px;stroke-linecap:butt;stroke-linejoin:miter;stroke-opacity:1"
       id="text4268"
       transform="translate(1.045,-0.11)">
      <path
         d="m 1.96,166.72 q 0,-0.3 0.16,-0.41 0.16,-0.12 0.33,-0.12 0.23,0 0.36,0.15 0.14,0.14 0.14,0.34 0,0.2 -0.14,0.35 -0.13,0.14 -0.36,0.14 -0.11,0 -0.17,-0.02 0.13,0.46 0.53,0.79 0.41,0.33 0.94,0.33 0.67,0 1.07,-0.65 0.24,-0.42 0.24,-1.37 0,-0.84 -0.18,-1.26 -0.28,-0.64 -0.85,-0.64 -0.81,0 -1.29,0.7 -0.06,0.09 -0.13,0.09 -0.1,0 -0.12,-0.05 -0.02,-0.06 -0.02,-0.21 l 0,-2.96 q 0,-0.24 0.1,-0.24 0.04,0 0.12,0.03 0.63,0.28 1.33,0.28 0.72,0 1.36,-0.29 0.05,-0.03 0.08,-0.03 0.1,0 0.1,0.11 0,0.04 -0.08,0.16 -0.08,0.11 -0.25,0.26 -0.17,0.15 -0.39,0.29 -0.22,0.14 -0.54,0.24 -0.32,0.09 -0.67,0.09 -0.42,0 -0.85,-0.13 l 0,1.95 q 0.52,-0.51 1.27,-0.51 0.8,0 1.35,0.65 0.55,0.64 0.55,1.54 0,0.94 -0.65,1.59 -0.65,0.64 -1.53,0.64 -0.8,0 -1.31,-0.57 -0.5,-0.57 -0.5,-1.26 z"
         id="path4290"
         inkscape:connector-curvature="0" />
    </g>
    <g
       style="font-style:normal;font-variant:normal;font-weight:500;font-stretch:normal;font-size:10px;line-height:125%;font-family:'CMU Serif';-inkscape-font-specification:'CMU Serif Medium';text-align:center;letter-spacing:0px;word-spacing:0px;text-anchor:middle;fill:#000000;fill-opacity:1;stroke:none;stroke-width:1px;stroke-linecap:butt;stroke-linejoin:miter;stroke-opacity:1"
       id="text4272"
       transform="translate(0.045,3.89)">
      <path
         d="m 2.88,191.17 q 0,-1.57 0.8,-2.53 0.8,-0.97 1.83,-0.97 0.6,0 0.93,0.31 0.34,0.3 0.34,0.77 0,0.26 -0.15,0.37 -0.15,0.11 -0.31,0.11 -0.18,0 -0.32,-0.12 -0.14,-0.12 -0.14,-0.34 0,-0.45 0.55,-0.45 -0.26,-0.4 -0.88,-0.4 -0.19,0 -0.39,0.06 -0.19,0.05 -0.45,0.24 -0.25,0.18 -0.45,0.48 -0.19,0.29 -0.33,0.84 -0.13,0.55 -0.13,1.27 l 0,0.24 q 0.41,-0.99 1.25,-0.99 0.84,0 1.42,0.64 0.58,0.64 0.58,1.59 0,0.97 -0.61,1.62 -0.6,0.64 -1.45,0.64 -0.38,0 -0.73,-0.16 -0.34,-0.16 -0.66,-0.52 -0.32,-0.36 -0.51,-1.05 -0.19,-0.7 -0.19,-1.65 z m 0.92,0.9 q 0,0.98 0.18,1.45 0.03,0.08 0.09,0.19 0.07,0.1 0.18,0.24 0.12,0.14 0.31,0.23 0.19,0.09 0.41,0.09 0.67,0 0.99,-0.65 0.17,-0.36 0.17,-1.34 0,-1 -0.18,-1.37 -0.31,-0.62 -0.93,-0.62 -0.42,0 -0.71,0.29 -0.29,0.29 -0.4,0.68 -0.11,0.38 -0.11,0.81 z"
         id="path4287"
         inkscape:connector-curvature="0" />
    </g>
    <g
       style="font-style:normal;font-variant:normal;font-weight:500;font-stretch:normal;font-size:10px;line-height:125%;font-family:'CMU Serif';-inkscape-font-specification:'CMU Serif Medium';text-align:center;letter-spacing:0px;word-spacing:0px;text-anchor:middle;fill:#000000;fill-opacity:1;stroke:none;stroke-width:1px;stroke-linecap:butt;stroke-linejoin:miter;stroke-opacity:1"
       id="text4276"
       transform="translate(-0.165,-0.06)">
      <path
         d="m 3.02,223.63 0.33,-2.06 0.25,0 q 0.03,0.12 0.08,0.18 0.05,0.05 0.33,0.1 0.29,0.04 0.87,0.04 l 2.43,0 q 0,0.23 -0.09,0.35 l -1.35,1.9 q -0.43,0.6 -0.62,1.71 -0.11,0.74 -0.11,1.64 l 0,0.51 q 0,0.55 -0.46,0.55 -0.46,0 -0.46,-0.55 0,-1.91 1.23,-3.76 0.13,-0.19 0.61,-0.87 0.49,-0.68 0.51,-0.71 l -2.07,0 q -0.91,0 -0.98,0.06 -0.1,0.09 -0.25,0.91 l -0.25,0 z"
         id="path4299"
         inkscape:connector-curvature="0" />
    </g>
  </g>
</svg>
